G04 #@! TF.GenerationSoftware,KiCad,Pcbnew,(5.1.2)-2*
G04 #@! TF.CreationDate,2019-08-09T03:14:28-07:00*
G04 #@! TF.ProjectId,noncontact_electrode,6e6f6e63-6f6e-4746-9163-745f656c6563,rev?*
G04 #@! TF.SameCoordinates,Original*
G04 #@! TF.FileFunction,Legend,Top*
G04 #@! TF.FilePolarity,Positive*
%FSLAX46Y46*%
G04 Gerber Fmt 4.6, Leading zero omitted, Abs format (unit mm)*
G04 Created by KiCad (PCBNEW (5.1.2)-2) date 2019-08-09 03:14:28*
%MOMM*%
%LPD*%
G04 APERTURE LIST*
%ADD10C,0.100000*%
%ADD11C,0.152400*%
%ADD12C,0.150000*%
%ADD13C,0.050000*%
G04 APERTURE END LIST*
D10*
X97180400Y-99517200D02*
G75*
G02X97205800Y-100126800I12700J-304800D01*
G01*
D11*
X97205800Y-100126800D02*
X97205800Y-101193600D01*
X97205800Y-98450400D02*
X97205800Y-100126800D01*
X102184200Y-101193600D02*
X102184200Y-98450400D01*
D10*
X94041000Y-99653000D02*
X93791000Y-99653000D01*
X94041000Y-99653000D02*
X94041000Y-99903000D01*
X92141000Y-99653000D02*
X92391000Y-99653000D01*
X92141000Y-99653000D02*
X92141000Y-99903000D01*
X92141000Y-100753000D02*
X92141000Y-100503000D01*
X92141000Y-100753000D02*
X92391000Y-100753000D01*
X94041000Y-100753000D02*
X93791000Y-100753000D01*
X94041000Y-100753000D02*
X94041000Y-100503000D01*
X101280000Y-93938000D02*
X101030000Y-93938000D01*
X101280000Y-93938000D02*
X101280000Y-94188000D01*
X99380000Y-93938000D02*
X99630000Y-93938000D01*
X99380000Y-93938000D02*
X99380000Y-94188000D01*
X99380000Y-95038000D02*
X99380000Y-94788000D01*
X99380000Y-95038000D02*
X99630000Y-95038000D01*
X101280000Y-95038000D02*
X101030000Y-95038000D01*
X101280000Y-95038000D02*
X101280000Y-94788000D01*
X103312000Y-103971000D02*
X103062000Y-103971000D01*
X103312000Y-103971000D02*
X103312000Y-104221000D01*
X101412000Y-103971000D02*
X101662000Y-103971000D01*
X101412000Y-103971000D02*
X101412000Y-104221000D01*
X101412000Y-105071000D02*
X101412000Y-104821000D01*
X101412000Y-105071000D02*
X101662000Y-105071000D01*
X103312000Y-105071000D02*
X103062000Y-105071000D01*
X103312000Y-105071000D02*
X103312000Y-104821000D01*
X100645000Y-105749000D02*
X100395000Y-105749000D01*
X100645000Y-105749000D02*
X100645000Y-105999000D01*
X98745000Y-105749000D02*
X98995000Y-105749000D01*
X98745000Y-105749000D02*
X98745000Y-105999000D01*
X98745000Y-106849000D02*
X98745000Y-106599000D01*
X98745000Y-106849000D02*
X98995000Y-106849000D01*
X100645000Y-106849000D02*
X100395000Y-106849000D01*
X100645000Y-106849000D02*
X100645000Y-106599000D01*
D12*
X99528333Y-105767142D02*
X99480714Y-105814761D01*
X99337857Y-105862380D01*
X99242619Y-105862380D01*
X99099761Y-105814761D01*
X99004523Y-105719523D01*
X98956904Y-105624285D01*
X98909285Y-105433809D01*
X98909285Y-105290952D01*
X98956904Y-105100476D01*
X99004523Y-105005238D01*
X99099761Y-104910000D01*
X99242619Y-104862380D01*
X99337857Y-104862380D01*
X99480714Y-104910000D01*
X99528333Y-104957619D01*
X99909285Y-104957619D02*
X99956904Y-104910000D01*
X100052142Y-104862380D01*
X100290238Y-104862380D01*
X100385476Y-104910000D01*
X100433095Y-104957619D01*
X100480714Y-105052857D01*
X100480714Y-105148095D01*
X100433095Y-105290952D01*
X99861666Y-105862380D01*
X100480714Y-105862380D01*
D13*
X94653951Y-101504239D02*
X95982299Y-101504239D01*
X96138575Y-101426101D01*
X96216713Y-101347963D01*
X96294851Y-101191687D01*
X96294851Y-100879134D01*
X96216713Y-100722858D01*
X96138575Y-100644720D01*
X95982299Y-100566582D01*
X94653951Y-100566582D01*
X96294851Y-98925682D02*
X96294851Y-99863339D01*
X96294851Y-99394510D02*
X94653951Y-99394510D01*
X94888366Y-99550787D01*
X95044642Y-99707063D01*
X95122780Y-99863339D01*
X104628587Y-102284870D02*
X104628587Y-103066541D01*
X102987077Y-103066541D01*
X104628587Y-101737700D02*
X102987077Y-101737700D01*
X104159585Y-101190530D01*
X102987077Y-100643360D01*
X104628587Y-100643360D01*
X104628587Y-99861688D02*
X102987077Y-99861688D01*
X102987077Y-99236351D01*
X103065245Y-99080017D01*
X103143412Y-99001850D01*
X103299746Y-98923682D01*
X103534247Y-98923682D01*
X103690582Y-99001850D01*
X103768749Y-99080017D01*
X103846916Y-99236351D01*
X103846916Y-99861688D01*
X102987077Y-98376512D02*
X102987077Y-97282172D01*
X104628587Y-97985677D01*
X102987077Y-96813170D02*
X102987077Y-95718830D01*
X104628587Y-96422334D01*
X103143412Y-95171660D02*
X103065245Y-95093492D01*
X102987077Y-94937158D01*
X102987077Y-94546322D01*
X103065245Y-94389988D01*
X103143412Y-94311821D01*
X103299746Y-94233654D01*
X103456080Y-94233654D01*
X103690582Y-94311821D01*
X104628587Y-95249827D01*
X104628587Y-94233654D01*
X104628587Y-92670311D02*
X104628587Y-93608317D01*
X104628587Y-93139314D02*
X102987077Y-93139314D01*
X103221579Y-93295648D01*
X103377913Y-93451982D01*
X103456080Y-93608317D01*
X104628587Y-91966807D02*
X102987077Y-91966807D01*
X104159585Y-91419637D01*
X102987077Y-90872467D01*
X104628587Y-90872467D01*
X104159585Y-90168962D02*
X104159585Y-89387291D01*
X104628587Y-90325297D02*
X102987077Y-89778127D01*
X104628587Y-89230957D01*
D12*
X91717952Y-98052000D02*
X91622714Y-98004380D01*
X91479857Y-98004380D01*
X91337000Y-98052000D01*
X91241761Y-98147238D01*
X91194142Y-98242476D01*
X91146523Y-98432952D01*
X91146523Y-98575809D01*
X91194142Y-98766285D01*
X91241761Y-98861523D01*
X91337000Y-98956761D01*
X91479857Y-99004380D01*
X91575095Y-99004380D01*
X91717952Y-98956761D01*
X91765571Y-98909142D01*
X91765571Y-98575809D01*
X91575095Y-98575809D01*
X92194142Y-98337714D02*
X92194142Y-99004380D01*
X92194142Y-98432952D02*
X92241761Y-98385333D01*
X92337000Y-98337714D01*
X92479857Y-98337714D01*
X92575095Y-98385333D01*
X92622714Y-98480571D01*
X92622714Y-99004380D01*
X93527476Y-99004380D02*
X93527476Y-98004380D01*
X93527476Y-98956761D02*
X93432238Y-99004380D01*
X93241761Y-99004380D01*
X93146523Y-98956761D01*
X93098904Y-98909142D01*
X93051285Y-98813904D01*
X93051285Y-98528190D01*
X93098904Y-98432952D01*
X93146523Y-98385333D01*
X93241761Y-98337714D01*
X93432238Y-98337714D01*
X93527476Y-98385333D01*
X94527476Y-99004380D02*
X93956047Y-99004380D01*
X94241761Y-99004380D02*
X94241761Y-98004380D01*
X94146523Y-98147238D01*
X94051285Y-98242476D01*
X93956047Y-98290095D01*
X98663333Y-92416380D02*
X98996666Y-93416380D01*
X99330000Y-92416380D01*
X100091904Y-93368761D02*
X99996666Y-93416380D01*
X99806190Y-93416380D01*
X99710952Y-93368761D01*
X99663333Y-93321142D01*
X99615714Y-93225904D01*
X99615714Y-92940190D01*
X99663333Y-92844952D01*
X99710952Y-92797333D01*
X99806190Y-92749714D01*
X99996666Y-92749714D01*
X100091904Y-92797333D01*
X100949047Y-93368761D02*
X100853809Y-93416380D01*
X100663333Y-93416380D01*
X100568095Y-93368761D01*
X100520476Y-93321142D01*
X100472857Y-93225904D01*
X100472857Y-92940190D01*
X100520476Y-92844952D01*
X100568095Y-92797333D01*
X100663333Y-92749714D01*
X100853809Y-92749714D01*
X100949047Y-92797333D01*
X101901428Y-93416380D02*
X101330000Y-93416380D01*
X101615714Y-93416380D02*
X101615714Y-92416380D01*
X101520476Y-92559238D01*
X101425238Y-92654476D01*
X101330000Y-92702095D01*
X96972380Y-105957666D02*
X96496190Y-106291000D01*
X96972380Y-106529095D02*
X95972380Y-106529095D01*
X95972380Y-106148142D01*
X96020000Y-106052904D01*
X96067619Y-106005285D01*
X96162857Y-105957666D01*
X96305714Y-105957666D01*
X96400952Y-106005285D01*
X96448571Y-106052904D01*
X96496190Y-106148142D01*
X96496190Y-106529095D01*
X95972380Y-105624333D02*
X95972380Y-105005285D01*
X96353333Y-105338619D01*
X96353333Y-105195761D01*
X96400952Y-105100523D01*
X96448571Y-105052904D01*
X96543809Y-105005285D01*
X96781904Y-105005285D01*
X96877142Y-105052904D01*
X96924761Y-105100523D01*
X96972380Y-105195761D01*
X96972380Y-105481476D01*
X96924761Y-105576714D01*
X96877142Y-105624333D01*
X95575380Y-103798666D02*
X95099190Y-104132000D01*
X95575380Y-104370095D02*
X94575380Y-104370095D01*
X94575380Y-103989142D01*
X94623000Y-103893904D01*
X94670619Y-103846285D01*
X94765857Y-103798666D01*
X94908714Y-103798666D01*
X95003952Y-103846285D01*
X95051571Y-103893904D01*
X95099190Y-103989142D01*
X95099190Y-104370095D01*
X94670619Y-103417714D02*
X94623000Y-103370095D01*
X94575380Y-103274857D01*
X94575380Y-103036761D01*
X94623000Y-102941523D01*
X94670619Y-102893904D01*
X94765857Y-102846285D01*
X94861095Y-102846285D01*
X95003952Y-102893904D01*
X95575380Y-103465333D01*
X95575380Y-102846285D01*
X95829380Y-96178666D02*
X95353190Y-96512000D01*
X95829380Y-96750095D02*
X94829380Y-96750095D01*
X94829380Y-96369142D01*
X94877000Y-96273904D01*
X94924619Y-96226285D01*
X95019857Y-96178666D01*
X95162714Y-96178666D01*
X95257952Y-96226285D01*
X95305571Y-96273904D01*
X95353190Y-96369142D01*
X95353190Y-96750095D01*
X95829380Y-95226285D02*
X95829380Y-95797714D01*
X95829380Y-95512000D02*
X94829380Y-95512000D01*
X94972238Y-95607238D01*
X95067476Y-95702476D01*
X95115095Y-95797714D01*
X104354476Y-104100380D02*
X104544952Y-104100380D01*
X104640190Y-104148000D01*
X104735428Y-104243238D01*
X104783047Y-104433714D01*
X104783047Y-104767047D01*
X104735428Y-104957523D01*
X104640190Y-105052761D01*
X104544952Y-105100380D01*
X104354476Y-105100380D01*
X104259238Y-105052761D01*
X104164000Y-104957523D01*
X104116380Y-104767047D01*
X104116380Y-104433714D01*
X104164000Y-104243238D01*
X104259238Y-104148000D01*
X104354476Y-104100380D01*
X105640190Y-104433714D02*
X105640190Y-105100380D01*
X105211619Y-104433714D02*
X105211619Y-104957523D01*
X105259238Y-105052761D01*
X105354476Y-105100380D01*
X105497333Y-105100380D01*
X105592571Y-105052761D01*
X105640190Y-105005142D01*
X105973523Y-104433714D02*
X106354476Y-104433714D01*
X106116380Y-104100380D02*
X106116380Y-104957523D01*
X106164000Y-105052761D01*
X106259238Y-105100380D01*
X106354476Y-105100380D01*
X107211619Y-105100380D02*
X106640190Y-105100380D01*
X106925904Y-105100380D02*
X106925904Y-104100380D01*
X106830666Y-104243238D01*
X106735428Y-104338476D01*
X106640190Y-104386095D01*
X101060523Y-105878380D02*
X101393857Y-106878380D01*
X101727190Y-105878380D01*
X102489095Y-106830761D02*
X102393857Y-106878380D01*
X102203380Y-106878380D01*
X102108142Y-106830761D01*
X102060523Y-106783142D01*
X102012904Y-106687904D01*
X102012904Y-106402190D01*
X102060523Y-106306952D01*
X102108142Y-106259333D01*
X102203380Y-106211714D01*
X102393857Y-106211714D01*
X102489095Y-106259333D01*
X103346238Y-106830761D02*
X103251000Y-106878380D01*
X103060523Y-106878380D01*
X102965285Y-106830761D01*
X102917666Y-106783142D01*
X102870047Y-106687904D01*
X102870047Y-106402190D01*
X102917666Y-106306952D01*
X102965285Y-106259333D01*
X103060523Y-106211714D01*
X103251000Y-106211714D01*
X103346238Y-106259333D01*
X104489095Y-105830761D02*
X103631952Y-107116476D01*
X104774809Y-105973619D02*
X104822428Y-105926000D01*
X104917666Y-105878380D01*
X105155761Y-105878380D01*
X105251000Y-105926000D01*
X105298619Y-105973619D01*
X105346238Y-106068857D01*
X105346238Y-106164095D01*
X105298619Y-106306952D01*
X104727190Y-106878380D01*
X105346238Y-106878380D01*
X95545333Y-101068142D02*
X95497714Y-101115761D01*
X95354857Y-101163380D01*
X95259619Y-101163380D01*
X95116761Y-101115761D01*
X95021523Y-101020523D01*
X94973904Y-100925285D01*
X94926285Y-100734809D01*
X94926285Y-100591952D01*
X94973904Y-100401476D01*
X95021523Y-100306238D01*
X95116761Y-100211000D01*
X95259619Y-100163380D01*
X95354857Y-100163380D01*
X95497714Y-100211000D01*
X95545333Y-100258619D01*
X96497714Y-101163380D02*
X95926285Y-101163380D01*
X96212000Y-101163380D02*
X96212000Y-100163380D01*
X96116761Y-100306238D01*
X96021523Y-100401476D01*
X95926285Y-100449095D01*
M02*
