G04 #@! TF.GenerationSoftware,KiCad,Pcbnew,(5.1.2)-2*
G04 #@! TF.CreationDate,2019-08-09T03:14:28-07:00*
G04 #@! TF.ProjectId,noncontact_electrode,6e6f6e63-6f6e-4746-9163-745f656c6563,rev?*
G04 #@! TF.SameCoordinates,Original*
G04 #@! TF.FileFunction,Copper,L1,Top*
G04 #@! TF.FilePolarity,Positive*
%FSLAX46Y46*%
G04 Gerber Fmt 4.6, Leading zero omitted, Abs format (unit mm)*
G04 Created by KiCad (PCBNEW (5.1.2)-2) date 2019-08-09 03:14:28*
%MOMM*%
%LPD*%
G04 APERTURE LIST*
%ADD10C,0.100000*%
%ADD11C,0.590000*%
%ADD12R,0.558800X1.981200*%
%ADD13R,1.800000X1.000000*%
%ADD14C,0.800000*%
%ADD15C,0.250000*%
G04 APERTURE END LIST*
D10*
G36*
X100318958Y-104201710D02*
G01*
X100333276Y-104203834D01*
X100347317Y-104207351D01*
X100360946Y-104212228D01*
X100374031Y-104218417D01*
X100386447Y-104225858D01*
X100398073Y-104234481D01*
X100408798Y-104244202D01*
X100418519Y-104254927D01*
X100427142Y-104266553D01*
X100434583Y-104278969D01*
X100440772Y-104292054D01*
X100445649Y-104305683D01*
X100449166Y-104319724D01*
X100451290Y-104334042D01*
X100452000Y-104348500D01*
X100452000Y-104693500D01*
X100451290Y-104707958D01*
X100449166Y-104722276D01*
X100445649Y-104736317D01*
X100440772Y-104749946D01*
X100434583Y-104763031D01*
X100427142Y-104775447D01*
X100418519Y-104787073D01*
X100408798Y-104797798D01*
X100398073Y-104807519D01*
X100386447Y-104816142D01*
X100374031Y-104823583D01*
X100360946Y-104829772D01*
X100347317Y-104834649D01*
X100333276Y-104838166D01*
X100318958Y-104840290D01*
X100304500Y-104841000D01*
X100009500Y-104841000D01*
X99995042Y-104840290D01*
X99980724Y-104838166D01*
X99966683Y-104834649D01*
X99953054Y-104829772D01*
X99939969Y-104823583D01*
X99927553Y-104816142D01*
X99915927Y-104807519D01*
X99905202Y-104797798D01*
X99895481Y-104787073D01*
X99886858Y-104775447D01*
X99879417Y-104763031D01*
X99873228Y-104749946D01*
X99868351Y-104736317D01*
X99864834Y-104722276D01*
X99862710Y-104707958D01*
X99862000Y-104693500D01*
X99862000Y-104348500D01*
X99862710Y-104334042D01*
X99864834Y-104319724D01*
X99868351Y-104305683D01*
X99873228Y-104292054D01*
X99879417Y-104278969D01*
X99886858Y-104266553D01*
X99895481Y-104254927D01*
X99905202Y-104244202D01*
X99915927Y-104234481D01*
X99927553Y-104225858D01*
X99939969Y-104218417D01*
X99953054Y-104212228D01*
X99966683Y-104207351D01*
X99980724Y-104203834D01*
X99995042Y-104201710D01*
X100009500Y-104201000D01*
X100304500Y-104201000D01*
X100318958Y-104201710D01*
X100318958Y-104201710D01*
G37*
D11*
X100157000Y-104521000D03*
D10*
G36*
X99348958Y-104201710D02*
G01*
X99363276Y-104203834D01*
X99377317Y-104207351D01*
X99390946Y-104212228D01*
X99404031Y-104218417D01*
X99416447Y-104225858D01*
X99428073Y-104234481D01*
X99438798Y-104244202D01*
X99448519Y-104254927D01*
X99457142Y-104266553D01*
X99464583Y-104278969D01*
X99470772Y-104292054D01*
X99475649Y-104305683D01*
X99479166Y-104319724D01*
X99481290Y-104334042D01*
X99482000Y-104348500D01*
X99482000Y-104693500D01*
X99481290Y-104707958D01*
X99479166Y-104722276D01*
X99475649Y-104736317D01*
X99470772Y-104749946D01*
X99464583Y-104763031D01*
X99457142Y-104775447D01*
X99448519Y-104787073D01*
X99438798Y-104797798D01*
X99428073Y-104807519D01*
X99416447Y-104816142D01*
X99404031Y-104823583D01*
X99390946Y-104829772D01*
X99377317Y-104834649D01*
X99363276Y-104838166D01*
X99348958Y-104840290D01*
X99334500Y-104841000D01*
X99039500Y-104841000D01*
X99025042Y-104840290D01*
X99010724Y-104838166D01*
X98996683Y-104834649D01*
X98983054Y-104829772D01*
X98969969Y-104823583D01*
X98957553Y-104816142D01*
X98945927Y-104807519D01*
X98935202Y-104797798D01*
X98925481Y-104787073D01*
X98916858Y-104775447D01*
X98909417Y-104763031D01*
X98903228Y-104749946D01*
X98898351Y-104736317D01*
X98894834Y-104722276D01*
X98892710Y-104707958D01*
X98892000Y-104693500D01*
X98892000Y-104348500D01*
X98892710Y-104334042D01*
X98894834Y-104319724D01*
X98898351Y-104305683D01*
X98903228Y-104292054D01*
X98909417Y-104278969D01*
X98916858Y-104266553D01*
X98925481Y-104254927D01*
X98935202Y-104244202D01*
X98945927Y-104234481D01*
X98957553Y-104225858D01*
X98969969Y-104218417D01*
X98983054Y-104212228D01*
X98996683Y-104207351D01*
X99010724Y-104203834D01*
X99025042Y-104201710D01*
X99039500Y-104201000D01*
X99334500Y-104201000D01*
X99348958Y-104201710D01*
X99348958Y-104201710D01*
G37*
D11*
X99187000Y-104521000D03*
D12*
X97790000Y-97358200D03*
X99060000Y-97358200D03*
X100330000Y-97358200D03*
X101600000Y-97358200D03*
X101600000Y-102285800D03*
X100330000Y-102285800D03*
X99060000Y-102285800D03*
X97790000Y-102285800D03*
D13*
X93091000Y-100203000D03*
X100330000Y-94488000D03*
D10*
G36*
X97849958Y-105092710D02*
G01*
X97864276Y-105094834D01*
X97878317Y-105098351D01*
X97891946Y-105103228D01*
X97905031Y-105109417D01*
X97917447Y-105116858D01*
X97929073Y-105125481D01*
X97939798Y-105135202D01*
X97949519Y-105145927D01*
X97958142Y-105157553D01*
X97965583Y-105169969D01*
X97971772Y-105183054D01*
X97976649Y-105196683D01*
X97980166Y-105210724D01*
X97982290Y-105225042D01*
X97983000Y-105239500D01*
X97983000Y-105534500D01*
X97982290Y-105548958D01*
X97980166Y-105563276D01*
X97976649Y-105577317D01*
X97971772Y-105590946D01*
X97965583Y-105604031D01*
X97958142Y-105616447D01*
X97949519Y-105628073D01*
X97939798Y-105638798D01*
X97929073Y-105648519D01*
X97917447Y-105657142D01*
X97905031Y-105664583D01*
X97891946Y-105670772D01*
X97878317Y-105675649D01*
X97864276Y-105679166D01*
X97849958Y-105681290D01*
X97835500Y-105682000D01*
X97490500Y-105682000D01*
X97476042Y-105681290D01*
X97461724Y-105679166D01*
X97447683Y-105675649D01*
X97434054Y-105670772D01*
X97420969Y-105664583D01*
X97408553Y-105657142D01*
X97396927Y-105648519D01*
X97386202Y-105638798D01*
X97376481Y-105628073D01*
X97367858Y-105616447D01*
X97360417Y-105604031D01*
X97354228Y-105590946D01*
X97349351Y-105577317D01*
X97345834Y-105563276D01*
X97343710Y-105548958D01*
X97343000Y-105534500D01*
X97343000Y-105239500D01*
X97343710Y-105225042D01*
X97345834Y-105210724D01*
X97349351Y-105196683D01*
X97354228Y-105183054D01*
X97360417Y-105169969D01*
X97367858Y-105157553D01*
X97376481Y-105145927D01*
X97386202Y-105135202D01*
X97396927Y-105125481D01*
X97408553Y-105116858D01*
X97420969Y-105109417D01*
X97434054Y-105103228D01*
X97447683Y-105098351D01*
X97461724Y-105094834D01*
X97476042Y-105092710D01*
X97490500Y-105092000D01*
X97835500Y-105092000D01*
X97849958Y-105092710D01*
X97849958Y-105092710D01*
G37*
D11*
X97663000Y-105387000D03*
D10*
G36*
X97849958Y-104122710D02*
G01*
X97864276Y-104124834D01*
X97878317Y-104128351D01*
X97891946Y-104133228D01*
X97905031Y-104139417D01*
X97917447Y-104146858D01*
X97929073Y-104155481D01*
X97939798Y-104165202D01*
X97949519Y-104175927D01*
X97958142Y-104187553D01*
X97965583Y-104199969D01*
X97971772Y-104213054D01*
X97976649Y-104226683D01*
X97980166Y-104240724D01*
X97982290Y-104255042D01*
X97983000Y-104269500D01*
X97983000Y-104564500D01*
X97982290Y-104578958D01*
X97980166Y-104593276D01*
X97976649Y-104607317D01*
X97971772Y-104620946D01*
X97965583Y-104634031D01*
X97958142Y-104646447D01*
X97949519Y-104658073D01*
X97939798Y-104668798D01*
X97929073Y-104678519D01*
X97917447Y-104687142D01*
X97905031Y-104694583D01*
X97891946Y-104700772D01*
X97878317Y-104705649D01*
X97864276Y-104709166D01*
X97849958Y-104711290D01*
X97835500Y-104712000D01*
X97490500Y-104712000D01*
X97476042Y-104711290D01*
X97461724Y-104709166D01*
X97447683Y-104705649D01*
X97434054Y-104700772D01*
X97420969Y-104694583D01*
X97408553Y-104687142D01*
X97396927Y-104678519D01*
X97386202Y-104668798D01*
X97376481Y-104658073D01*
X97367858Y-104646447D01*
X97360417Y-104634031D01*
X97354228Y-104620946D01*
X97349351Y-104607317D01*
X97345834Y-104593276D01*
X97343710Y-104578958D01*
X97343000Y-104564500D01*
X97343000Y-104269500D01*
X97343710Y-104255042D01*
X97345834Y-104240724D01*
X97349351Y-104226683D01*
X97354228Y-104213054D01*
X97360417Y-104199969D01*
X97367858Y-104187553D01*
X97376481Y-104175927D01*
X97386202Y-104165202D01*
X97396927Y-104155481D01*
X97408553Y-104146858D01*
X97420969Y-104139417D01*
X97434054Y-104133228D01*
X97447683Y-104128351D01*
X97461724Y-104124834D01*
X97476042Y-104122710D01*
X97490500Y-104122000D01*
X97835500Y-104122000D01*
X97849958Y-104122710D01*
X97849958Y-104122710D01*
G37*
D11*
X97663000Y-104417000D03*
D10*
G36*
X96452958Y-103799710D02*
G01*
X96467276Y-103801834D01*
X96481317Y-103805351D01*
X96494946Y-103810228D01*
X96508031Y-103816417D01*
X96520447Y-103823858D01*
X96532073Y-103832481D01*
X96542798Y-103842202D01*
X96552519Y-103852927D01*
X96561142Y-103864553D01*
X96568583Y-103876969D01*
X96574772Y-103890054D01*
X96579649Y-103903683D01*
X96583166Y-103917724D01*
X96585290Y-103932042D01*
X96586000Y-103946500D01*
X96586000Y-104241500D01*
X96585290Y-104255958D01*
X96583166Y-104270276D01*
X96579649Y-104284317D01*
X96574772Y-104297946D01*
X96568583Y-104311031D01*
X96561142Y-104323447D01*
X96552519Y-104335073D01*
X96542798Y-104345798D01*
X96532073Y-104355519D01*
X96520447Y-104364142D01*
X96508031Y-104371583D01*
X96494946Y-104377772D01*
X96481317Y-104382649D01*
X96467276Y-104386166D01*
X96452958Y-104388290D01*
X96438500Y-104389000D01*
X96093500Y-104389000D01*
X96079042Y-104388290D01*
X96064724Y-104386166D01*
X96050683Y-104382649D01*
X96037054Y-104377772D01*
X96023969Y-104371583D01*
X96011553Y-104364142D01*
X95999927Y-104355519D01*
X95989202Y-104345798D01*
X95979481Y-104335073D01*
X95970858Y-104323447D01*
X95963417Y-104311031D01*
X95957228Y-104297946D01*
X95952351Y-104284317D01*
X95948834Y-104270276D01*
X95946710Y-104255958D01*
X95946000Y-104241500D01*
X95946000Y-103946500D01*
X95946710Y-103932042D01*
X95948834Y-103917724D01*
X95952351Y-103903683D01*
X95957228Y-103890054D01*
X95963417Y-103876969D01*
X95970858Y-103864553D01*
X95979481Y-103852927D01*
X95989202Y-103842202D01*
X95999927Y-103832481D01*
X96011553Y-103823858D01*
X96023969Y-103816417D01*
X96037054Y-103810228D01*
X96050683Y-103805351D01*
X96064724Y-103801834D01*
X96079042Y-103799710D01*
X96093500Y-103799000D01*
X96438500Y-103799000D01*
X96452958Y-103799710D01*
X96452958Y-103799710D01*
G37*
D11*
X96266000Y-104094000D03*
D10*
G36*
X96452958Y-102829710D02*
G01*
X96467276Y-102831834D01*
X96481317Y-102835351D01*
X96494946Y-102840228D01*
X96508031Y-102846417D01*
X96520447Y-102853858D01*
X96532073Y-102862481D01*
X96542798Y-102872202D01*
X96552519Y-102882927D01*
X96561142Y-102894553D01*
X96568583Y-102906969D01*
X96574772Y-102920054D01*
X96579649Y-102933683D01*
X96583166Y-102947724D01*
X96585290Y-102962042D01*
X96586000Y-102976500D01*
X96586000Y-103271500D01*
X96585290Y-103285958D01*
X96583166Y-103300276D01*
X96579649Y-103314317D01*
X96574772Y-103327946D01*
X96568583Y-103341031D01*
X96561142Y-103353447D01*
X96552519Y-103365073D01*
X96542798Y-103375798D01*
X96532073Y-103385519D01*
X96520447Y-103394142D01*
X96508031Y-103401583D01*
X96494946Y-103407772D01*
X96481317Y-103412649D01*
X96467276Y-103416166D01*
X96452958Y-103418290D01*
X96438500Y-103419000D01*
X96093500Y-103419000D01*
X96079042Y-103418290D01*
X96064724Y-103416166D01*
X96050683Y-103412649D01*
X96037054Y-103407772D01*
X96023969Y-103401583D01*
X96011553Y-103394142D01*
X95999927Y-103385519D01*
X95989202Y-103375798D01*
X95979481Y-103365073D01*
X95970858Y-103353447D01*
X95963417Y-103341031D01*
X95957228Y-103327946D01*
X95952351Y-103314317D01*
X95948834Y-103300276D01*
X95946710Y-103285958D01*
X95946000Y-103271500D01*
X95946000Y-102976500D01*
X95946710Y-102962042D01*
X95948834Y-102947724D01*
X95952351Y-102933683D01*
X95957228Y-102920054D01*
X95963417Y-102906969D01*
X95970858Y-102894553D01*
X95979481Y-102882927D01*
X95989202Y-102872202D01*
X95999927Y-102862481D01*
X96011553Y-102853858D01*
X96023969Y-102846417D01*
X96037054Y-102840228D01*
X96050683Y-102835351D01*
X96064724Y-102831834D01*
X96079042Y-102829710D01*
X96093500Y-102829000D01*
X96438500Y-102829000D01*
X96452958Y-102829710D01*
X96452958Y-102829710D01*
G37*
D11*
X96266000Y-103124000D03*
D10*
G36*
X95436958Y-98130710D02*
G01*
X95451276Y-98132834D01*
X95465317Y-98136351D01*
X95478946Y-98141228D01*
X95492031Y-98147417D01*
X95504447Y-98154858D01*
X95516073Y-98163481D01*
X95526798Y-98173202D01*
X95536519Y-98183927D01*
X95545142Y-98195553D01*
X95552583Y-98207969D01*
X95558772Y-98221054D01*
X95563649Y-98234683D01*
X95567166Y-98248724D01*
X95569290Y-98263042D01*
X95570000Y-98277500D01*
X95570000Y-98572500D01*
X95569290Y-98586958D01*
X95567166Y-98601276D01*
X95563649Y-98615317D01*
X95558772Y-98628946D01*
X95552583Y-98642031D01*
X95545142Y-98654447D01*
X95536519Y-98666073D01*
X95526798Y-98676798D01*
X95516073Y-98686519D01*
X95504447Y-98695142D01*
X95492031Y-98702583D01*
X95478946Y-98708772D01*
X95465317Y-98713649D01*
X95451276Y-98717166D01*
X95436958Y-98719290D01*
X95422500Y-98720000D01*
X95077500Y-98720000D01*
X95063042Y-98719290D01*
X95048724Y-98717166D01*
X95034683Y-98713649D01*
X95021054Y-98708772D01*
X95007969Y-98702583D01*
X94995553Y-98695142D01*
X94983927Y-98686519D01*
X94973202Y-98676798D01*
X94963481Y-98666073D01*
X94954858Y-98654447D01*
X94947417Y-98642031D01*
X94941228Y-98628946D01*
X94936351Y-98615317D01*
X94932834Y-98601276D01*
X94930710Y-98586958D01*
X94930000Y-98572500D01*
X94930000Y-98277500D01*
X94930710Y-98263042D01*
X94932834Y-98248724D01*
X94936351Y-98234683D01*
X94941228Y-98221054D01*
X94947417Y-98207969D01*
X94954858Y-98195553D01*
X94963481Y-98183927D01*
X94973202Y-98173202D01*
X94983927Y-98163481D01*
X94995553Y-98154858D01*
X95007969Y-98147417D01*
X95021054Y-98141228D01*
X95034683Y-98136351D01*
X95048724Y-98132834D01*
X95063042Y-98130710D01*
X95077500Y-98130000D01*
X95422500Y-98130000D01*
X95436958Y-98130710D01*
X95436958Y-98130710D01*
G37*
D11*
X95250000Y-98425000D03*
D10*
G36*
X95436958Y-97160710D02*
G01*
X95451276Y-97162834D01*
X95465317Y-97166351D01*
X95478946Y-97171228D01*
X95492031Y-97177417D01*
X95504447Y-97184858D01*
X95516073Y-97193481D01*
X95526798Y-97203202D01*
X95536519Y-97213927D01*
X95545142Y-97225553D01*
X95552583Y-97237969D01*
X95558772Y-97251054D01*
X95563649Y-97264683D01*
X95567166Y-97278724D01*
X95569290Y-97293042D01*
X95570000Y-97307500D01*
X95570000Y-97602500D01*
X95569290Y-97616958D01*
X95567166Y-97631276D01*
X95563649Y-97645317D01*
X95558772Y-97658946D01*
X95552583Y-97672031D01*
X95545142Y-97684447D01*
X95536519Y-97696073D01*
X95526798Y-97706798D01*
X95516073Y-97716519D01*
X95504447Y-97725142D01*
X95492031Y-97732583D01*
X95478946Y-97738772D01*
X95465317Y-97743649D01*
X95451276Y-97747166D01*
X95436958Y-97749290D01*
X95422500Y-97750000D01*
X95077500Y-97750000D01*
X95063042Y-97749290D01*
X95048724Y-97747166D01*
X95034683Y-97743649D01*
X95021054Y-97738772D01*
X95007969Y-97732583D01*
X94995553Y-97725142D01*
X94983927Y-97716519D01*
X94973202Y-97706798D01*
X94963481Y-97696073D01*
X94954858Y-97684447D01*
X94947417Y-97672031D01*
X94941228Y-97658946D01*
X94936351Y-97645317D01*
X94932834Y-97631276D01*
X94930710Y-97616958D01*
X94930000Y-97602500D01*
X94930000Y-97307500D01*
X94930710Y-97293042D01*
X94932834Y-97278724D01*
X94936351Y-97264683D01*
X94941228Y-97251054D01*
X94947417Y-97237969D01*
X94954858Y-97225553D01*
X94963481Y-97213927D01*
X94973202Y-97203202D01*
X94983927Y-97193481D01*
X94995553Y-97184858D01*
X95007969Y-97177417D01*
X95021054Y-97171228D01*
X95034683Y-97166351D01*
X95048724Y-97162834D01*
X95063042Y-97160710D01*
X95077500Y-97160000D01*
X95422500Y-97160000D01*
X95436958Y-97160710D01*
X95436958Y-97160710D01*
G37*
D11*
X95250000Y-97455000D03*
D13*
X102362000Y-104521000D03*
X99695000Y-106299000D03*
D10*
G36*
X95411958Y-101407710D02*
G01*
X95426276Y-101409834D01*
X95440317Y-101413351D01*
X95453946Y-101418228D01*
X95467031Y-101424417D01*
X95479447Y-101431858D01*
X95491073Y-101440481D01*
X95501798Y-101450202D01*
X95511519Y-101460927D01*
X95520142Y-101472553D01*
X95527583Y-101484969D01*
X95533772Y-101498054D01*
X95538649Y-101511683D01*
X95542166Y-101525724D01*
X95544290Y-101540042D01*
X95545000Y-101554500D01*
X95545000Y-101899500D01*
X95544290Y-101913958D01*
X95542166Y-101928276D01*
X95538649Y-101942317D01*
X95533772Y-101955946D01*
X95527583Y-101969031D01*
X95520142Y-101981447D01*
X95511519Y-101993073D01*
X95501798Y-102003798D01*
X95491073Y-102013519D01*
X95479447Y-102022142D01*
X95467031Y-102029583D01*
X95453946Y-102035772D01*
X95440317Y-102040649D01*
X95426276Y-102044166D01*
X95411958Y-102046290D01*
X95397500Y-102047000D01*
X95102500Y-102047000D01*
X95088042Y-102046290D01*
X95073724Y-102044166D01*
X95059683Y-102040649D01*
X95046054Y-102035772D01*
X95032969Y-102029583D01*
X95020553Y-102022142D01*
X95008927Y-102013519D01*
X94998202Y-102003798D01*
X94988481Y-101993073D01*
X94979858Y-101981447D01*
X94972417Y-101969031D01*
X94966228Y-101955946D01*
X94961351Y-101942317D01*
X94957834Y-101928276D01*
X94955710Y-101913958D01*
X94955000Y-101899500D01*
X94955000Y-101554500D01*
X94955710Y-101540042D01*
X94957834Y-101525724D01*
X94961351Y-101511683D01*
X94966228Y-101498054D01*
X94972417Y-101484969D01*
X94979858Y-101472553D01*
X94988481Y-101460927D01*
X94998202Y-101450202D01*
X95008927Y-101440481D01*
X95020553Y-101431858D01*
X95032969Y-101424417D01*
X95046054Y-101418228D01*
X95059683Y-101413351D01*
X95073724Y-101409834D01*
X95088042Y-101407710D01*
X95102500Y-101407000D01*
X95397500Y-101407000D01*
X95411958Y-101407710D01*
X95411958Y-101407710D01*
G37*
D11*
X95250000Y-101727000D03*
D10*
G36*
X96381958Y-101407710D02*
G01*
X96396276Y-101409834D01*
X96410317Y-101413351D01*
X96423946Y-101418228D01*
X96437031Y-101424417D01*
X96449447Y-101431858D01*
X96461073Y-101440481D01*
X96471798Y-101450202D01*
X96481519Y-101460927D01*
X96490142Y-101472553D01*
X96497583Y-101484969D01*
X96503772Y-101498054D01*
X96508649Y-101511683D01*
X96512166Y-101525724D01*
X96514290Y-101540042D01*
X96515000Y-101554500D01*
X96515000Y-101899500D01*
X96514290Y-101913958D01*
X96512166Y-101928276D01*
X96508649Y-101942317D01*
X96503772Y-101955946D01*
X96497583Y-101969031D01*
X96490142Y-101981447D01*
X96481519Y-101993073D01*
X96471798Y-102003798D01*
X96461073Y-102013519D01*
X96449447Y-102022142D01*
X96437031Y-102029583D01*
X96423946Y-102035772D01*
X96410317Y-102040649D01*
X96396276Y-102044166D01*
X96381958Y-102046290D01*
X96367500Y-102047000D01*
X96072500Y-102047000D01*
X96058042Y-102046290D01*
X96043724Y-102044166D01*
X96029683Y-102040649D01*
X96016054Y-102035772D01*
X96002969Y-102029583D01*
X95990553Y-102022142D01*
X95978927Y-102013519D01*
X95968202Y-102003798D01*
X95958481Y-101993073D01*
X95949858Y-101981447D01*
X95942417Y-101969031D01*
X95936228Y-101955946D01*
X95931351Y-101942317D01*
X95927834Y-101928276D01*
X95925710Y-101913958D01*
X95925000Y-101899500D01*
X95925000Y-101554500D01*
X95925710Y-101540042D01*
X95927834Y-101525724D01*
X95931351Y-101511683D01*
X95936228Y-101498054D01*
X95942417Y-101484969D01*
X95949858Y-101472553D01*
X95958481Y-101460927D01*
X95968202Y-101450202D01*
X95978927Y-101440481D01*
X95990553Y-101431858D01*
X96002969Y-101424417D01*
X96016054Y-101418228D01*
X96029683Y-101413351D01*
X96043724Y-101409834D01*
X96058042Y-101407710D01*
X96072500Y-101407000D01*
X96367500Y-101407000D01*
X96381958Y-101407710D01*
X96381958Y-101407710D01*
G37*
D11*
X96220000Y-101727000D03*
D14*
X95250000Y-98425000D03*
X88011000Y-99822000D03*
X88083228Y-101326024D03*
X88343390Y-102809135D03*
X88787384Y-104247945D03*
X89408207Y-105619762D03*
X90196069Y-106902952D03*
X91138546Y-108077279D03*
X92220772Y-109124222D03*
X93425682Y-110027270D03*
X94734273Y-110772183D03*
X96125907Y-111347212D03*
X97578638Y-111743288D03*
X99069556Y-111954166D03*
X100575147Y-111976519D03*
X102071667Y-111809996D03*
X103535517Y-111457222D03*
X104943609Y-110923760D03*
X106273737Y-110218025D03*
X107504925Y-109351145D03*
X108617755Y-108336792D03*
X109594679Y-107190962D03*
X110420289Y-105931727D03*
X111081564Y-104578945D03*
X111568077Y-103153951D03*
X111872154Y-101679217D03*
X111989000Y-100178000D03*
X111916772Y-98673976D03*
X111656610Y-97190865D03*
X111212616Y-95752055D03*
X110591793Y-94380238D03*
X109803931Y-93097048D03*
X108861454Y-91922721D03*
X107779228Y-90875778D03*
X106574318Y-89972730D03*
X105265727Y-89227817D03*
X103874093Y-88652788D03*
X102421362Y-88256712D03*
X100930444Y-88045834D03*
X99424853Y-88023481D03*
X97928333Y-88190004D03*
X96464483Y-88542778D03*
X95056391Y-89076240D03*
X93726263Y-89781975D03*
X92495075Y-90648855D03*
X91382245Y-91663208D03*
X90405321Y-92809038D03*
X89579711Y-94068273D03*
X88918436Y-95421055D03*
X88431923Y-96846049D03*
X88127846Y-98320783D03*
X95250000Y-101727000D03*
D15*
X96778800Y-102285800D02*
X96220000Y-101727000D01*
X97790000Y-102285800D02*
X96778800Y-102285800D01*
X96778800Y-102611200D02*
X96266000Y-103124000D01*
X96778800Y-102285800D02*
X96778800Y-102611200D01*
X100330000Y-96117600D02*
X100330000Y-94488000D01*
X100330000Y-97358200D02*
X100330000Y-96117600D01*
X100330000Y-101574600D02*
X100330000Y-102285800D01*
X98958400Y-100203000D02*
X100330000Y-101574600D01*
X93091000Y-100203000D02*
X98958400Y-100203000D01*
X100157000Y-104521000D02*
X102362000Y-104521000D01*
X101600000Y-103759000D02*
X102362000Y-104521000D01*
X101600000Y-102285800D02*
X101600000Y-103759000D01*
X95346800Y-97358200D02*
X95250000Y-97455000D01*
X97790000Y-97358200D02*
X95346800Y-97358200D01*
X97790000Y-98069400D02*
X97790000Y-97358200D01*
X98319400Y-98598800D02*
X97790000Y-98069400D01*
X98445598Y-98598800D02*
X98319400Y-98598800D01*
X101600000Y-101753202D02*
X98445598Y-98598800D01*
X101600000Y-102285800D02*
X101600000Y-101753202D01*
X97340000Y-104094000D02*
X97663000Y-104417000D01*
X96266000Y-104094000D02*
X97340000Y-104094000D01*
X99083000Y-104417000D02*
X99187000Y-104521000D01*
X97663000Y-104417000D02*
X99083000Y-104417000D01*
X97663000Y-105387000D02*
X98575000Y-106299000D01*
X98575000Y-106299000D02*
X99695000Y-106299000D01*
M02*
