G04 #@! TF.GenerationSoftware,KiCad,Pcbnew,(5.1.2)-2*
G04 #@! TF.CreationDate,2019-08-09T02:30:37-07:00*
G04 #@! TF.ProjectId,noncontact_electrode,6e6f6e63-6f6e-4746-9163-745f656c6563,rev?*
G04 #@! TF.SameCoordinates,Original*
G04 #@! TF.FileFunction,Legend,Top*
G04 #@! TF.FilePolarity,Positive*
%FSLAX46Y46*%
G04 Gerber Fmt 4.6, Leading zero omitted, Abs format (unit mm)*
G04 Created by KiCad (PCBNEW (5.1.2)-2) date 2019-08-09 02:30:37*
%MOMM*%
%LPD*%
G04 APERTURE LIST*
%ADD10C,0.100000*%
%ADD11C,0.152400*%
%ADD12C,0.050000*%
%ADD13C,0.150000*%
G04 APERTURE END LIST*
D10*
X99390200Y-102336600D02*
G75*
G02X99999800Y-102311200I304800J12700D01*
G01*
D11*
X99999800Y-102311200D02*
X101066600Y-102311200D01*
X98323400Y-102311200D02*
X99999800Y-102311200D01*
X101066600Y-97332800D02*
X98323400Y-97332800D01*
D10*
X106233000Y-98637000D02*
X105983000Y-98637000D01*
X106233000Y-98637000D02*
X106233000Y-98887000D01*
X104333000Y-98637000D02*
X104583000Y-98637000D01*
X104333000Y-98637000D02*
X104333000Y-98887000D01*
X104333000Y-99737000D02*
X104333000Y-99487000D01*
X104333000Y-99737000D02*
X104583000Y-99737000D01*
X106233000Y-99737000D02*
X105983000Y-99737000D01*
X106233000Y-99737000D02*
X106233000Y-99487000D01*
X95311000Y-99526000D02*
X95061000Y-99526000D01*
X95311000Y-99526000D02*
X95311000Y-99776000D01*
X93411000Y-99526000D02*
X93661000Y-99526000D01*
X93411000Y-99526000D02*
X93411000Y-99776000D01*
X93411000Y-100626000D02*
X93411000Y-100376000D01*
X93411000Y-100626000D02*
X93661000Y-100626000D01*
X95311000Y-100626000D02*
X95061000Y-100626000D01*
X95311000Y-100626000D02*
X95311000Y-100376000D01*
X106233000Y-96859000D02*
X105983000Y-96859000D01*
X106233000Y-96859000D02*
X106233000Y-97109000D01*
X104333000Y-96859000D02*
X104583000Y-96859000D01*
X104333000Y-96859000D02*
X104333000Y-97109000D01*
X104333000Y-97959000D02*
X104333000Y-97709000D01*
X104333000Y-97959000D02*
X104583000Y-97959000D01*
X106233000Y-97959000D02*
X105983000Y-97959000D01*
X106233000Y-97959000D02*
X106233000Y-97709000D01*
X106233000Y-101177000D02*
X105983000Y-101177000D01*
X106233000Y-101177000D02*
X106233000Y-101427000D01*
X104333000Y-101177000D02*
X104583000Y-101177000D01*
X104333000Y-101177000D02*
X104333000Y-101427000D01*
X104333000Y-102277000D02*
X104333000Y-102027000D01*
X104333000Y-102277000D02*
X104583000Y-102277000D01*
X106233000Y-102277000D02*
X105983000Y-102277000D01*
X106233000Y-102277000D02*
X106233000Y-102027000D01*
D12*
X98876820Y-103065871D02*
X98876820Y-104394219D01*
X98954958Y-104550495D01*
X99033096Y-104628633D01*
X99189372Y-104706771D01*
X99501925Y-104706771D01*
X99658201Y-104628633D01*
X99736339Y-104550495D01*
X99814477Y-104394219D01*
X99814477Y-103065871D01*
X101455377Y-104706771D02*
X100517720Y-104706771D01*
X100986549Y-104706771D02*
X100986549Y-103065871D01*
X100830272Y-103300286D01*
X100673996Y-103456562D01*
X100517720Y-103534700D01*
X93803130Y-95357587D02*
X93021458Y-95357587D01*
X93021458Y-93716077D01*
X94350300Y-95357587D02*
X94350300Y-93716077D01*
X94897470Y-94888585D01*
X95444640Y-93716077D01*
X95444640Y-95357587D01*
X96226311Y-95357587D02*
X96226311Y-93716077D01*
X96851648Y-93716077D01*
X97007982Y-93794245D01*
X97086150Y-93872412D01*
X97164317Y-94028746D01*
X97164317Y-94263247D01*
X97086150Y-94419582D01*
X97007982Y-94497749D01*
X96851648Y-94575916D01*
X96226311Y-94575916D01*
X97711487Y-93716077D02*
X98805827Y-93716077D01*
X98102322Y-95357587D01*
X99274830Y-93716077D02*
X100369170Y-93716077D01*
X99665665Y-95357587D01*
X100916340Y-93872412D02*
X100994507Y-93794245D01*
X101150841Y-93716077D01*
X101541677Y-93716077D01*
X101698011Y-93794245D01*
X101776178Y-93872412D01*
X101854345Y-94028746D01*
X101854345Y-94185080D01*
X101776178Y-94419582D01*
X100838172Y-95357587D01*
X101854345Y-95357587D01*
X103417688Y-95357587D02*
X102479682Y-95357587D01*
X102948685Y-95357587D02*
X102948685Y-93716077D01*
X102792351Y-93950579D01*
X102636017Y-94106913D01*
X102479682Y-94185080D01*
X104121192Y-95357587D02*
X104121192Y-93716077D01*
X104668362Y-94888585D01*
X105215532Y-93716077D01*
X105215532Y-95357587D01*
X105919037Y-94888585D02*
X106700708Y-94888585D01*
X105762702Y-95357587D02*
X106309872Y-93716077D01*
X106857042Y-95357587D01*
D13*
X103957380Y-103902666D02*
X103481190Y-104236000D01*
X103957380Y-104474095D02*
X102957380Y-104474095D01*
X102957380Y-104093142D01*
X103005000Y-103997904D01*
X103052619Y-103950285D01*
X103147857Y-103902666D01*
X103290714Y-103902666D01*
X103385952Y-103950285D01*
X103433571Y-103997904D01*
X103481190Y-104093142D01*
X103481190Y-104474095D01*
X103290714Y-103045523D02*
X103957380Y-103045523D01*
X102909761Y-103283619D02*
X103624047Y-103521714D01*
X103624047Y-102902666D01*
X107465952Y-98687000D02*
X107370714Y-98639380D01*
X107227857Y-98639380D01*
X107085000Y-98687000D01*
X106989761Y-98782238D01*
X106942142Y-98877476D01*
X106894523Y-99067952D01*
X106894523Y-99210809D01*
X106942142Y-99401285D01*
X106989761Y-99496523D01*
X107085000Y-99591761D01*
X107227857Y-99639380D01*
X107323095Y-99639380D01*
X107465952Y-99591761D01*
X107513571Y-99544142D01*
X107513571Y-99210809D01*
X107323095Y-99210809D01*
X107942142Y-98972714D02*
X107942142Y-99639380D01*
X107942142Y-99067952D02*
X107989761Y-99020333D01*
X108085000Y-98972714D01*
X108227857Y-98972714D01*
X108323095Y-99020333D01*
X108370714Y-99115571D01*
X108370714Y-99639380D01*
X109275476Y-99639380D02*
X109275476Y-98639380D01*
X109275476Y-99591761D02*
X109180238Y-99639380D01*
X108989761Y-99639380D01*
X108894523Y-99591761D01*
X108846904Y-99544142D01*
X108799285Y-99448904D01*
X108799285Y-99163190D01*
X108846904Y-99067952D01*
X108894523Y-99020333D01*
X108989761Y-98972714D01*
X109180238Y-98972714D01*
X109275476Y-99020333D01*
X110275476Y-99639380D02*
X109704047Y-99639380D01*
X109989761Y-99639380D02*
X109989761Y-98639380D01*
X109894523Y-98782238D01*
X109799285Y-98877476D01*
X109704047Y-98925095D01*
X89773333Y-99528380D02*
X90106666Y-100528380D01*
X90440000Y-99528380D01*
X91201904Y-100480761D02*
X91106666Y-100528380D01*
X90916190Y-100528380D01*
X90820952Y-100480761D01*
X90773333Y-100433142D01*
X90725714Y-100337904D01*
X90725714Y-100052190D01*
X90773333Y-99956952D01*
X90820952Y-99909333D01*
X90916190Y-99861714D01*
X91106666Y-99861714D01*
X91201904Y-99909333D01*
X92059047Y-100480761D02*
X91963809Y-100528380D01*
X91773333Y-100528380D01*
X91678095Y-100480761D01*
X91630476Y-100433142D01*
X91582857Y-100337904D01*
X91582857Y-100052190D01*
X91630476Y-99956952D01*
X91678095Y-99909333D01*
X91773333Y-99861714D01*
X91963809Y-99861714D01*
X92059047Y-99909333D01*
X93011428Y-100528380D02*
X92440000Y-100528380D01*
X92725714Y-100528380D02*
X92725714Y-99528380D01*
X92630476Y-99671238D01*
X92535238Y-99766476D01*
X92440000Y-99814095D01*
X99655333Y-106116380D02*
X99322000Y-105640190D01*
X99083904Y-106116380D02*
X99083904Y-105116380D01*
X99464857Y-105116380D01*
X99560095Y-105164000D01*
X99607714Y-105211619D01*
X99655333Y-105306857D01*
X99655333Y-105449714D01*
X99607714Y-105544952D01*
X99560095Y-105592571D01*
X99464857Y-105640190D01*
X99083904Y-105640190D01*
X99988666Y-105116380D02*
X100607714Y-105116380D01*
X100274380Y-105497333D01*
X100417238Y-105497333D01*
X100512476Y-105544952D01*
X100560095Y-105592571D01*
X100607714Y-105687809D01*
X100607714Y-105925904D01*
X100560095Y-106021142D01*
X100512476Y-106068761D01*
X100417238Y-106116380D01*
X100131523Y-106116380D01*
X100036285Y-106068761D01*
X99988666Y-106021142D01*
X97099380Y-103925666D02*
X96623190Y-104259000D01*
X97099380Y-104497095D02*
X96099380Y-104497095D01*
X96099380Y-104116142D01*
X96147000Y-104020904D01*
X96194619Y-103973285D01*
X96289857Y-103925666D01*
X96432714Y-103925666D01*
X96527952Y-103973285D01*
X96575571Y-104020904D01*
X96623190Y-104116142D01*
X96623190Y-104497095D01*
X96194619Y-103544714D02*
X96147000Y-103497095D01*
X96099380Y-103401857D01*
X96099380Y-103163761D01*
X96147000Y-103068523D01*
X96194619Y-103020904D01*
X96289857Y-102973285D01*
X96385095Y-102973285D01*
X96527952Y-103020904D01*
X97099380Y-103592333D01*
X97099380Y-102973285D01*
X99505333Y-97888380D02*
X99172000Y-97412190D01*
X98933904Y-97888380D02*
X98933904Y-96888380D01*
X99314857Y-96888380D01*
X99410095Y-96936000D01*
X99457714Y-96983619D01*
X99505333Y-97078857D01*
X99505333Y-97221714D01*
X99457714Y-97316952D01*
X99410095Y-97364571D01*
X99314857Y-97412190D01*
X98933904Y-97412190D01*
X100457714Y-97888380D02*
X99886285Y-97888380D01*
X100172000Y-97888380D02*
X100172000Y-96888380D01*
X100076761Y-97031238D01*
X99981523Y-97126476D01*
X99886285Y-97174095D01*
X103973476Y-95261380D02*
X104163952Y-95261380D01*
X104259190Y-95309000D01*
X104354428Y-95404238D01*
X104402047Y-95594714D01*
X104402047Y-95928047D01*
X104354428Y-96118523D01*
X104259190Y-96213761D01*
X104163952Y-96261380D01*
X103973476Y-96261380D01*
X103878238Y-96213761D01*
X103783000Y-96118523D01*
X103735380Y-95928047D01*
X103735380Y-95594714D01*
X103783000Y-95404238D01*
X103878238Y-95309000D01*
X103973476Y-95261380D01*
X105259190Y-95594714D02*
X105259190Y-96261380D01*
X104830619Y-95594714D02*
X104830619Y-96118523D01*
X104878238Y-96213761D01*
X104973476Y-96261380D01*
X105116333Y-96261380D01*
X105211571Y-96213761D01*
X105259190Y-96166142D01*
X105592523Y-95594714D02*
X105973476Y-95594714D01*
X105735380Y-95261380D02*
X105735380Y-96118523D01*
X105783000Y-96213761D01*
X105878238Y-96261380D01*
X105973476Y-96261380D01*
X106830619Y-96261380D02*
X106259190Y-96261380D01*
X106544904Y-96261380D02*
X106544904Y-95261380D01*
X106449666Y-95404238D01*
X106354428Y-95499476D01*
X106259190Y-95547095D01*
X106648523Y-101306380D02*
X106981857Y-102306380D01*
X107315190Y-101306380D01*
X108077095Y-102258761D02*
X107981857Y-102306380D01*
X107791380Y-102306380D01*
X107696142Y-102258761D01*
X107648523Y-102211142D01*
X107600904Y-102115904D01*
X107600904Y-101830190D01*
X107648523Y-101734952D01*
X107696142Y-101687333D01*
X107791380Y-101639714D01*
X107981857Y-101639714D01*
X108077095Y-101687333D01*
X108934238Y-102258761D02*
X108839000Y-102306380D01*
X108648523Y-102306380D01*
X108553285Y-102258761D01*
X108505666Y-102211142D01*
X108458047Y-102115904D01*
X108458047Y-101830190D01*
X108505666Y-101734952D01*
X108553285Y-101687333D01*
X108648523Y-101639714D01*
X108839000Y-101639714D01*
X108934238Y-101687333D01*
X110077095Y-101258761D02*
X109219952Y-102544476D01*
X110362809Y-101401619D02*
X110410428Y-101354000D01*
X110505666Y-101306380D01*
X110743761Y-101306380D01*
X110839000Y-101354000D01*
X110886619Y-101401619D01*
X110934238Y-101496857D01*
X110934238Y-101592095D01*
X110886619Y-101734952D01*
X110315190Y-102306380D01*
X110934238Y-102306380D01*
X99528333Y-102592142D02*
X99480714Y-102639761D01*
X99337857Y-102687380D01*
X99242619Y-102687380D01*
X99099761Y-102639761D01*
X99004523Y-102544523D01*
X98956904Y-102449285D01*
X98909285Y-102258809D01*
X98909285Y-102115952D01*
X98956904Y-101925476D01*
X99004523Y-101830238D01*
X99099761Y-101735000D01*
X99242619Y-101687380D01*
X99337857Y-101687380D01*
X99480714Y-101735000D01*
X99528333Y-101782619D01*
X100480714Y-102687380D02*
X99909285Y-102687380D01*
X100195000Y-102687380D02*
X100195000Y-101687380D01*
X100099761Y-101830238D01*
X100004523Y-101925476D01*
X99909285Y-101973095D01*
M02*
