M48
INCH,TZ
T1C0.0157
%
G90
G05
T1
X34650Y-39300
X34678Y-39892
X34696Y-38709
X34781Y-40476
X34816Y-38128
X34956Y-41042
X35007Y-37567
X35200Y-41583
X35268Y-37035
X35510Y-42088
X35593Y-36539
X35881Y-42550
X35977Y-36088
X36307Y-42962
X36415Y-35689
X36782Y-43318
X36900Y-35347
X37297Y-43611
X37424Y-35069
X37500Y-40050
X37845Y-43837
X37978Y-34859
X38417Y-43993
X38554Y-34720
X39004Y-44076
X39144Y-34655
X39597Y-44085
X39736Y-34664
X40186Y-44020
X40323Y-34747
X40762Y-43881
X40895Y-34903
X41316Y-43671
X41443Y-35129
X41840Y-43393
X41958Y-35422
X42325Y-43052
X42433Y-35778
X42763Y-42652
X42859Y-36190
X43148Y-42201
X43230Y-36652
X43473Y-41705
X43540Y-37158
X43733Y-41173
X43784Y-37698
X43924Y-40612
X43959Y-38264
X44044Y-40031
X44062Y-38848
X44090Y-39440
T0
M30
