G04 #@! TF.GenerationSoftware,KiCad,Pcbnew,(5.1.2)-2*
G04 #@! TF.CreationDate,2019-08-09T04:16:50-07:00*
G04 #@! TF.ProjectId,noncontact_electrode,6e6f6e63-6f6e-4746-9163-745f656c6563,rev?*
G04 #@! TF.SameCoordinates,Original*
G04 #@! TF.FileFunction,Copper,L1,Top*
G04 #@! TF.FilePolarity,Positive*
%FSLAX46Y46*%
G04 Gerber Fmt 4.6, Leading zero omitted, Abs format (unit mm)*
G04 Created by KiCad (PCBNEW (5.1.2)-2) date 2019-08-09 04:16:50*
%MOMM*%
%LPD*%
G04 APERTURE LIST*
%ADD10C,0.100000*%
%ADD11C,4.000000*%
%ADD12C,0.590000*%
%ADD13R,0.558800X1.981200*%
%ADD14R,1.800000X1.000000*%
%ADD15C,0.800000*%
%ADD16C,0.250000*%
%ADD17C,0.254000*%
G04 APERTURE END LIST*
D10*
G36*
X96393000Y-99060000D02*
G01*
X95631000Y-99314000D01*
X94488000Y-99314000D01*
X94107000Y-98552000D01*
X94361000Y-98044000D01*
X96266000Y-98044000D01*
X96393000Y-99060000D01*
G37*
X96393000Y-99060000D02*
X95631000Y-99314000D01*
X94488000Y-99314000D01*
X94107000Y-98552000D01*
X94361000Y-98044000D01*
X96266000Y-98044000D01*
X96393000Y-99060000D01*
D11*
X111000000Y-100000000D02*
G75*
G03X111000000Y-100000000I-11000000J0D01*
G01*
D10*
G36*
X100318958Y-104201710D02*
G01*
X100333276Y-104203834D01*
X100347317Y-104207351D01*
X100360946Y-104212228D01*
X100374031Y-104218417D01*
X100386447Y-104225858D01*
X100398073Y-104234481D01*
X100408798Y-104244202D01*
X100418519Y-104254927D01*
X100427142Y-104266553D01*
X100434583Y-104278969D01*
X100440772Y-104292054D01*
X100445649Y-104305683D01*
X100449166Y-104319724D01*
X100451290Y-104334042D01*
X100452000Y-104348500D01*
X100452000Y-104693500D01*
X100451290Y-104707958D01*
X100449166Y-104722276D01*
X100445649Y-104736317D01*
X100440772Y-104749946D01*
X100434583Y-104763031D01*
X100427142Y-104775447D01*
X100418519Y-104787073D01*
X100408798Y-104797798D01*
X100398073Y-104807519D01*
X100386447Y-104816142D01*
X100374031Y-104823583D01*
X100360946Y-104829772D01*
X100347317Y-104834649D01*
X100333276Y-104838166D01*
X100318958Y-104840290D01*
X100304500Y-104841000D01*
X100009500Y-104841000D01*
X99995042Y-104840290D01*
X99980724Y-104838166D01*
X99966683Y-104834649D01*
X99953054Y-104829772D01*
X99939969Y-104823583D01*
X99927553Y-104816142D01*
X99915927Y-104807519D01*
X99905202Y-104797798D01*
X99895481Y-104787073D01*
X99886858Y-104775447D01*
X99879417Y-104763031D01*
X99873228Y-104749946D01*
X99868351Y-104736317D01*
X99864834Y-104722276D01*
X99862710Y-104707958D01*
X99862000Y-104693500D01*
X99862000Y-104348500D01*
X99862710Y-104334042D01*
X99864834Y-104319724D01*
X99868351Y-104305683D01*
X99873228Y-104292054D01*
X99879417Y-104278969D01*
X99886858Y-104266553D01*
X99895481Y-104254927D01*
X99905202Y-104244202D01*
X99915927Y-104234481D01*
X99927553Y-104225858D01*
X99939969Y-104218417D01*
X99953054Y-104212228D01*
X99966683Y-104207351D01*
X99980724Y-104203834D01*
X99995042Y-104201710D01*
X100009500Y-104201000D01*
X100304500Y-104201000D01*
X100318958Y-104201710D01*
X100318958Y-104201710D01*
G37*
D12*
X100157000Y-104521000D03*
D10*
G36*
X99348958Y-104201710D02*
G01*
X99363276Y-104203834D01*
X99377317Y-104207351D01*
X99390946Y-104212228D01*
X99404031Y-104218417D01*
X99416447Y-104225858D01*
X99428073Y-104234481D01*
X99438798Y-104244202D01*
X99448519Y-104254927D01*
X99457142Y-104266553D01*
X99464583Y-104278969D01*
X99470772Y-104292054D01*
X99475649Y-104305683D01*
X99479166Y-104319724D01*
X99481290Y-104334042D01*
X99482000Y-104348500D01*
X99482000Y-104693500D01*
X99481290Y-104707958D01*
X99479166Y-104722276D01*
X99475649Y-104736317D01*
X99470772Y-104749946D01*
X99464583Y-104763031D01*
X99457142Y-104775447D01*
X99448519Y-104787073D01*
X99438798Y-104797798D01*
X99428073Y-104807519D01*
X99416447Y-104816142D01*
X99404031Y-104823583D01*
X99390946Y-104829772D01*
X99377317Y-104834649D01*
X99363276Y-104838166D01*
X99348958Y-104840290D01*
X99334500Y-104841000D01*
X99039500Y-104841000D01*
X99025042Y-104840290D01*
X99010724Y-104838166D01*
X98996683Y-104834649D01*
X98983054Y-104829772D01*
X98969969Y-104823583D01*
X98957553Y-104816142D01*
X98945927Y-104807519D01*
X98935202Y-104797798D01*
X98925481Y-104787073D01*
X98916858Y-104775447D01*
X98909417Y-104763031D01*
X98903228Y-104749946D01*
X98898351Y-104736317D01*
X98894834Y-104722276D01*
X98892710Y-104707958D01*
X98892000Y-104693500D01*
X98892000Y-104348500D01*
X98892710Y-104334042D01*
X98894834Y-104319724D01*
X98898351Y-104305683D01*
X98903228Y-104292054D01*
X98909417Y-104278969D01*
X98916858Y-104266553D01*
X98925481Y-104254927D01*
X98935202Y-104244202D01*
X98945927Y-104234481D01*
X98957553Y-104225858D01*
X98969969Y-104218417D01*
X98983054Y-104212228D01*
X98996683Y-104207351D01*
X99010724Y-104203834D01*
X99025042Y-104201710D01*
X99039500Y-104201000D01*
X99334500Y-104201000D01*
X99348958Y-104201710D01*
X99348958Y-104201710D01*
G37*
D12*
X99187000Y-104521000D03*
D13*
X97790000Y-97358200D03*
X99060000Y-97358200D03*
X100330000Y-97358200D03*
X101600000Y-97358200D03*
X101600000Y-102285800D03*
X100330000Y-102285800D03*
X99060000Y-102285800D03*
X97790000Y-102285800D03*
D14*
X93091000Y-100203000D03*
X100330000Y-94488000D03*
D10*
G36*
X97849958Y-105092710D02*
G01*
X97864276Y-105094834D01*
X97878317Y-105098351D01*
X97891946Y-105103228D01*
X97905031Y-105109417D01*
X97917447Y-105116858D01*
X97929073Y-105125481D01*
X97939798Y-105135202D01*
X97949519Y-105145927D01*
X97958142Y-105157553D01*
X97965583Y-105169969D01*
X97971772Y-105183054D01*
X97976649Y-105196683D01*
X97980166Y-105210724D01*
X97982290Y-105225042D01*
X97983000Y-105239500D01*
X97983000Y-105534500D01*
X97982290Y-105548958D01*
X97980166Y-105563276D01*
X97976649Y-105577317D01*
X97971772Y-105590946D01*
X97965583Y-105604031D01*
X97958142Y-105616447D01*
X97949519Y-105628073D01*
X97939798Y-105638798D01*
X97929073Y-105648519D01*
X97917447Y-105657142D01*
X97905031Y-105664583D01*
X97891946Y-105670772D01*
X97878317Y-105675649D01*
X97864276Y-105679166D01*
X97849958Y-105681290D01*
X97835500Y-105682000D01*
X97490500Y-105682000D01*
X97476042Y-105681290D01*
X97461724Y-105679166D01*
X97447683Y-105675649D01*
X97434054Y-105670772D01*
X97420969Y-105664583D01*
X97408553Y-105657142D01*
X97396927Y-105648519D01*
X97386202Y-105638798D01*
X97376481Y-105628073D01*
X97367858Y-105616447D01*
X97360417Y-105604031D01*
X97354228Y-105590946D01*
X97349351Y-105577317D01*
X97345834Y-105563276D01*
X97343710Y-105548958D01*
X97343000Y-105534500D01*
X97343000Y-105239500D01*
X97343710Y-105225042D01*
X97345834Y-105210724D01*
X97349351Y-105196683D01*
X97354228Y-105183054D01*
X97360417Y-105169969D01*
X97367858Y-105157553D01*
X97376481Y-105145927D01*
X97386202Y-105135202D01*
X97396927Y-105125481D01*
X97408553Y-105116858D01*
X97420969Y-105109417D01*
X97434054Y-105103228D01*
X97447683Y-105098351D01*
X97461724Y-105094834D01*
X97476042Y-105092710D01*
X97490500Y-105092000D01*
X97835500Y-105092000D01*
X97849958Y-105092710D01*
X97849958Y-105092710D01*
G37*
D12*
X97663000Y-105387000D03*
D10*
G36*
X97849958Y-104122710D02*
G01*
X97864276Y-104124834D01*
X97878317Y-104128351D01*
X97891946Y-104133228D01*
X97905031Y-104139417D01*
X97917447Y-104146858D01*
X97929073Y-104155481D01*
X97939798Y-104165202D01*
X97949519Y-104175927D01*
X97958142Y-104187553D01*
X97965583Y-104199969D01*
X97971772Y-104213054D01*
X97976649Y-104226683D01*
X97980166Y-104240724D01*
X97982290Y-104255042D01*
X97983000Y-104269500D01*
X97983000Y-104564500D01*
X97982290Y-104578958D01*
X97980166Y-104593276D01*
X97976649Y-104607317D01*
X97971772Y-104620946D01*
X97965583Y-104634031D01*
X97958142Y-104646447D01*
X97949519Y-104658073D01*
X97939798Y-104668798D01*
X97929073Y-104678519D01*
X97917447Y-104687142D01*
X97905031Y-104694583D01*
X97891946Y-104700772D01*
X97878317Y-104705649D01*
X97864276Y-104709166D01*
X97849958Y-104711290D01*
X97835500Y-104712000D01*
X97490500Y-104712000D01*
X97476042Y-104711290D01*
X97461724Y-104709166D01*
X97447683Y-104705649D01*
X97434054Y-104700772D01*
X97420969Y-104694583D01*
X97408553Y-104687142D01*
X97396927Y-104678519D01*
X97386202Y-104668798D01*
X97376481Y-104658073D01*
X97367858Y-104646447D01*
X97360417Y-104634031D01*
X97354228Y-104620946D01*
X97349351Y-104607317D01*
X97345834Y-104593276D01*
X97343710Y-104578958D01*
X97343000Y-104564500D01*
X97343000Y-104269500D01*
X97343710Y-104255042D01*
X97345834Y-104240724D01*
X97349351Y-104226683D01*
X97354228Y-104213054D01*
X97360417Y-104199969D01*
X97367858Y-104187553D01*
X97376481Y-104175927D01*
X97386202Y-104165202D01*
X97396927Y-104155481D01*
X97408553Y-104146858D01*
X97420969Y-104139417D01*
X97434054Y-104133228D01*
X97447683Y-104128351D01*
X97461724Y-104124834D01*
X97476042Y-104122710D01*
X97490500Y-104122000D01*
X97835500Y-104122000D01*
X97849958Y-104122710D01*
X97849958Y-104122710D01*
G37*
D12*
X97663000Y-104417000D03*
D10*
G36*
X96452958Y-103799710D02*
G01*
X96467276Y-103801834D01*
X96481317Y-103805351D01*
X96494946Y-103810228D01*
X96508031Y-103816417D01*
X96520447Y-103823858D01*
X96532073Y-103832481D01*
X96542798Y-103842202D01*
X96552519Y-103852927D01*
X96561142Y-103864553D01*
X96568583Y-103876969D01*
X96574772Y-103890054D01*
X96579649Y-103903683D01*
X96583166Y-103917724D01*
X96585290Y-103932042D01*
X96586000Y-103946500D01*
X96586000Y-104241500D01*
X96585290Y-104255958D01*
X96583166Y-104270276D01*
X96579649Y-104284317D01*
X96574772Y-104297946D01*
X96568583Y-104311031D01*
X96561142Y-104323447D01*
X96552519Y-104335073D01*
X96542798Y-104345798D01*
X96532073Y-104355519D01*
X96520447Y-104364142D01*
X96508031Y-104371583D01*
X96494946Y-104377772D01*
X96481317Y-104382649D01*
X96467276Y-104386166D01*
X96452958Y-104388290D01*
X96438500Y-104389000D01*
X96093500Y-104389000D01*
X96079042Y-104388290D01*
X96064724Y-104386166D01*
X96050683Y-104382649D01*
X96037054Y-104377772D01*
X96023969Y-104371583D01*
X96011553Y-104364142D01*
X95999927Y-104355519D01*
X95989202Y-104345798D01*
X95979481Y-104335073D01*
X95970858Y-104323447D01*
X95963417Y-104311031D01*
X95957228Y-104297946D01*
X95952351Y-104284317D01*
X95948834Y-104270276D01*
X95946710Y-104255958D01*
X95946000Y-104241500D01*
X95946000Y-103946500D01*
X95946710Y-103932042D01*
X95948834Y-103917724D01*
X95952351Y-103903683D01*
X95957228Y-103890054D01*
X95963417Y-103876969D01*
X95970858Y-103864553D01*
X95979481Y-103852927D01*
X95989202Y-103842202D01*
X95999927Y-103832481D01*
X96011553Y-103823858D01*
X96023969Y-103816417D01*
X96037054Y-103810228D01*
X96050683Y-103805351D01*
X96064724Y-103801834D01*
X96079042Y-103799710D01*
X96093500Y-103799000D01*
X96438500Y-103799000D01*
X96452958Y-103799710D01*
X96452958Y-103799710D01*
G37*
D12*
X96266000Y-104094000D03*
D10*
G36*
X96452958Y-102829710D02*
G01*
X96467276Y-102831834D01*
X96481317Y-102835351D01*
X96494946Y-102840228D01*
X96508031Y-102846417D01*
X96520447Y-102853858D01*
X96532073Y-102862481D01*
X96542798Y-102872202D01*
X96552519Y-102882927D01*
X96561142Y-102894553D01*
X96568583Y-102906969D01*
X96574772Y-102920054D01*
X96579649Y-102933683D01*
X96583166Y-102947724D01*
X96585290Y-102962042D01*
X96586000Y-102976500D01*
X96586000Y-103271500D01*
X96585290Y-103285958D01*
X96583166Y-103300276D01*
X96579649Y-103314317D01*
X96574772Y-103327946D01*
X96568583Y-103341031D01*
X96561142Y-103353447D01*
X96552519Y-103365073D01*
X96542798Y-103375798D01*
X96532073Y-103385519D01*
X96520447Y-103394142D01*
X96508031Y-103401583D01*
X96494946Y-103407772D01*
X96481317Y-103412649D01*
X96467276Y-103416166D01*
X96452958Y-103418290D01*
X96438500Y-103419000D01*
X96093500Y-103419000D01*
X96079042Y-103418290D01*
X96064724Y-103416166D01*
X96050683Y-103412649D01*
X96037054Y-103407772D01*
X96023969Y-103401583D01*
X96011553Y-103394142D01*
X95999927Y-103385519D01*
X95989202Y-103375798D01*
X95979481Y-103365073D01*
X95970858Y-103353447D01*
X95963417Y-103341031D01*
X95957228Y-103327946D01*
X95952351Y-103314317D01*
X95948834Y-103300276D01*
X95946710Y-103285958D01*
X95946000Y-103271500D01*
X95946000Y-102976500D01*
X95946710Y-102962042D01*
X95948834Y-102947724D01*
X95952351Y-102933683D01*
X95957228Y-102920054D01*
X95963417Y-102906969D01*
X95970858Y-102894553D01*
X95979481Y-102882927D01*
X95989202Y-102872202D01*
X95999927Y-102862481D01*
X96011553Y-102853858D01*
X96023969Y-102846417D01*
X96037054Y-102840228D01*
X96050683Y-102835351D01*
X96064724Y-102831834D01*
X96079042Y-102829710D01*
X96093500Y-102829000D01*
X96438500Y-102829000D01*
X96452958Y-102829710D01*
X96452958Y-102829710D01*
G37*
D12*
X96266000Y-103124000D03*
D10*
G36*
X95436958Y-98130710D02*
G01*
X95451276Y-98132834D01*
X95465317Y-98136351D01*
X95478946Y-98141228D01*
X95492031Y-98147417D01*
X95504447Y-98154858D01*
X95516073Y-98163481D01*
X95526798Y-98173202D01*
X95536519Y-98183927D01*
X95545142Y-98195553D01*
X95552583Y-98207969D01*
X95558772Y-98221054D01*
X95563649Y-98234683D01*
X95567166Y-98248724D01*
X95569290Y-98263042D01*
X95570000Y-98277500D01*
X95570000Y-98572500D01*
X95569290Y-98586958D01*
X95567166Y-98601276D01*
X95563649Y-98615317D01*
X95558772Y-98628946D01*
X95552583Y-98642031D01*
X95545142Y-98654447D01*
X95536519Y-98666073D01*
X95526798Y-98676798D01*
X95516073Y-98686519D01*
X95504447Y-98695142D01*
X95492031Y-98702583D01*
X95478946Y-98708772D01*
X95465317Y-98713649D01*
X95451276Y-98717166D01*
X95436958Y-98719290D01*
X95422500Y-98720000D01*
X95077500Y-98720000D01*
X95063042Y-98719290D01*
X95048724Y-98717166D01*
X95034683Y-98713649D01*
X95021054Y-98708772D01*
X95007969Y-98702583D01*
X94995553Y-98695142D01*
X94983927Y-98686519D01*
X94973202Y-98676798D01*
X94963481Y-98666073D01*
X94954858Y-98654447D01*
X94947417Y-98642031D01*
X94941228Y-98628946D01*
X94936351Y-98615317D01*
X94932834Y-98601276D01*
X94930710Y-98586958D01*
X94930000Y-98572500D01*
X94930000Y-98277500D01*
X94930710Y-98263042D01*
X94932834Y-98248724D01*
X94936351Y-98234683D01*
X94941228Y-98221054D01*
X94947417Y-98207969D01*
X94954858Y-98195553D01*
X94963481Y-98183927D01*
X94973202Y-98173202D01*
X94983927Y-98163481D01*
X94995553Y-98154858D01*
X95007969Y-98147417D01*
X95021054Y-98141228D01*
X95034683Y-98136351D01*
X95048724Y-98132834D01*
X95063042Y-98130710D01*
X95077500Y-98130000D01*
X95422500Y-98130000D01*
X95436958Y-98130710D01*
X95436958Y-98130710D01*
G37*
D12*
X95250000Y-98425000D03*
D10*
G36*
X95436958Y-97160710D02*
G01*
X95451276Y-97162834D01*
X95465317Y-97166351D01*
X95478946Y-97171228D01*
X95492031Y-97177417D01*
X95504447Y-97184858D01*
X95516073Y-97193481D01*
X95526798Y-97203202D01*
X95536519Y-97213927D01*
X95545142Y-97225553D01*
X95552583Y-97237969D01*
X95558772Y-97251054D01*
X95563649Y-97264683D01*
X95567166Y-97278724D01*
X95569290Y-97293042D01*
X95570000Y-97307500D01*
X95570000Y-97602500D01*
X95569290Y-97616958D01*
X95567166Y-97631276D01*
X95563649Y-97645317D01*
X95558772Y-97658946D01*
X95552583Y-97672031D01*
X95545142Y-97684447D01*
X95536519Y-97696073D01*
X95526798Y-97706798D01*
X95516073Y-97716519D01*
X95504447Y-97725142D01*
X95492031Y-97732583D01*
X95478946Y-97738772D01*
X95465317Y-97743649D01*
X95451276Y-97747166D01*
X95436958Y-97749290D01*
X95422500Y-97750000D01*
X95077500Y-97750000D01*
X95063042Y-97749290D01*
X95048724Y-97747166D01*
X95034683Y-97743649D01*
X95021054Y-97738772D01*
X95007969Y-97732583D01*
X94995553Y-97725142D01*
X94983927Y-97716519D01*
X94973202Y-97706798D01*
X94963481Y-97696073D01*
X94954858Y-97684447D01*
X94947417Y-97672031D01*
X94941228Y-97658946D01*
X94936351Y-97645317D01*
X94932834Y-97631276D01*
X94930710Y-97616958D01*
X94930000Y-97602500D01*
X94930000Y-97307500D01*
X94930710Y-97293042D01*
X94932834Y-97278724D01*
X94936351Y-97264683D01*
X94941228Y-97251054D01*
X94947417Y-97237969D01*
X94954858Y-97225553D01*
X94963481Y-97213927D01*
X94973202Y-97203202D01*
X94983927Y-97193481D01*
X94995553Y-97184858D01*
X95007969Y-97177417D01*
X95021054Y-97171228D01*
X95034683Y-97166351D01*
X95048724Y-97162834D01*
X95063042Y-97160710D01*
X95077500Y-97160000D01*
X95422500Y-97160000D01*
X95436958Y-97160710D01*
X95436958Y-97160710D01*
G37*
D12*
X95250000Y-97455000D03*
D14*
X102362000Y-104521000D03*
X99695000Y-106299000D03*
D10*
G36*
X95411958Y-101407710D02*
G01*
X95426276Y-101409834D01*
X95440317Y-101413351D01*
X95453946Y-101418228D01*
X95467031Y-101424417D01*
X95479447Y-101431858D01*
X95491073Y-101440481D01*
X95501798Y-101450202D01*
X95511519Y-101460927D01*
X95520142Y-101472553D01*
X95527583Y-101484969D01*
X95533772Y-101498054D01*
X95538649Y-101511683D01*
X95542166Y-101525724D01*
X95544290Y-101540042D01*
X95545000Y-101554500D01*
X95545000Y-101899500D01*
X95544290Y-101913958D01*
X95542166Y-101928276D01*
X95538649Y-101942317D01*
X95533772Y-101955946D01*
X95527583Y-101969031D01*
X95520142Y-101981447D01*
X95511519Y-101993073D01*
X95501798Y-102003798D01*
X95491073Y-102013519D01*
X95479447Y-102022142D01*
X95467031Y-102029583D01*
X95453946Y-102035772D01*
X95440317Y-102040649D01*
X95426276Y-102044166D01*
X95411958Y-102046290D01*
X95397500Y-102047000D01*
X95102500Y-102047000D01*
X95088042Y-102046290D01*
X95073724Y-102044166D01*
X95059683Y-102040649D01*
X95046054Y-102035772D01*
X95032969Y-102029583D01*
X95020553Y-102022142D01*
X95008927Y-102013519D01*
X94998202Y-102003798D01*
X94988481Y-101993073D01*
X94979858Y-101981447D01*
X94972417Y-101969031D01*
X94966228Y-101955946D01*
X94961351Y-101942317D01*
X94957834Y-101928276D01*
X94955710Y-101913958D01*
X94955000Y-101899500D01*
X94955000Y-101554500D01*
X94955710Y-101540042D01*
X94957834Y-101525724D01*
X94961351Y-101511683D01*
X94966228Y-101498054D01*
X94972417Y-101484969D01*
X94979858Y-101472553D01*
X94988481Y-101460927D01*
X94998202Y-101450202D01*
X95008927Y-101440481D01*
X95020553Y-101431858D01*
X95032969Y-101424417D01*
X95046054Y-101418228D01*
X95059683Y-101413351D01*
X95073724Y-101409834D01*
X95088042Y-101407710D01*
X95102500Y-101407000D01*
X95397500Y-101407000D01*
X95411958Y-101407710D01*
X95411958Y-101407710D01*
G37*
D12*
X95250000Y-101727000D03*
D10*
G36*
X96381958Y-101407710D02*
G01*
X96396276Y-101409834D01*
X96410317Y-101413351D01*
X96423946Y-101418228D01*
X96437031Y-101424417D01*
X96449447Y-101431858D01*
X96461073Y-101440481D01*
X96471798Y-101450202D01*
X96481519Y-101460927D01*
X96490142Y-101472553D01*
X96497583Y-101484969D01*
X96503772Y-101498054D01*
X96508649Y-101511683D01*
X96512166Y-101525724D01*
X96514290Y-101540042D01*
X96515000Y-101554500D01*
X96515000Y-101899500D01*
X96514290Y-101913958D01*
X96512166Y-101928276D01*
X96508649Y-101942317D01*
X96503772Y-101955946D01*
X96497583Y-101969031D01*
X96490142Y-101981447D01*
X96481519Y-101993073D01*
X96471798Y-102003798D01*
X96461073Y-102013519D01*
X96449447Y-102022142D01*
X96437031Y-102029583D01*
X96423946Y-102035772D01*
X96410317Y-102040649D01*
X96396276Y-102044166D01*
X96381958Y-102046290D01*
X96367500Y-102047000D01*
X96072500Y-102047000D01*
X96058042Y-102046290D01*
X96043724Y-102044166D01*
X96029683Y-102040649D01*
X96016054Y-102035772D01*
X96002969Y-102029583D01*
X95990553Y-102022142D01*
X95978927Y-102013519D01*
X95968202Y-102003798D01*
X95958481Y-101993073D01*
X95949858Y-101981447D01*
X95942417Y-101969031D01*
X95936228Y-101955946D01*
X95931351Y-101942317D01*
X95927834Y-101928276D01*
X95925710Y-101913958D01*
X95925000Y-101899500D01*
X95925000Y-101554500D01*
X95925710Y-101540042D01*
X95927834Y-101525724D01*
X95931351Y-101511683D01*
X95936228Y-101498054D01*
X95942417Y-101484969D01*
X95949858Y-101472553D01*
X95958481Y-101460927D01*
X95968202Y-101450202D01*
X95978927Y-101440481D01*
X95990553Y-101431858D01*
X96002969Y-101424417D01*
X96016054Y-101418228D01*
X96029683Y-101413351D01*
X96043724Y-101409834D01*
X96058042Y-101407710D01*
X96072500Y-101407000D01*
X96367500Y-101407000D01*
X96381958Y-101407710D01*
X96381958Y-101407710D01*
G37*
D12*
X96220000Y-101727000D03*
D15*
X88011000Y-99822000D03*
X88083228Y-101326024D03*
X88343390Y-102809135D03*
X88787384Y-104247945D03*
X89408207Y-105619762D03*
X90196069Y-106902952D03*
X91138546Y-108077279D03*
X92220772Y-109124222D03*
X93425682Y-110027270D03*
X94734273Y-110772183D03*
X96125907Y-111347212D03*
X97578638Y-111743288D03*
X99069556Y-111954166D03*
X100575147Y-111976519D03*
X102071667Y-111809996D03*
X103535517Y-111457222D03*
X104943609Y-110923760D03*
X106273737Y-110218025D03*
X107504925Y-109351145D03*
X108617755Y-108336792D03*
X109594679Y-107190962D03*
X110420289Y-105931727D03*
X111081564Y-104578945D03*
X111568077Y-103153951D03*
X111872154Y-101679217D03*
X111989000Y-100178000D03*
X111916772Y-98673976D03*
X111656610Y-97190865D03*
X111212616Y-95752055D03*
X110591793Y-94380238D03*
X109803931Y-93097048D03*
X108861454Y-91922721D03*
X107779228Y-90875778D03*
X106574318Y-89972730D03*
X105265727Y-89227817D03*
X103874093Y-88652788D03*
X102421362Y-88256712D03*
X100930444Y-88045834D03*
X99424853Y-88023481D03*
X97928333Y-88190004D03*
X96464483Y-88542778D03*
X95056391Y-89076240D03*
X93726263Y-89781975D03*
X92495075Y-90648855D03*
X91382245Y-91663208D03*
X90405321Y-92809038D03*
X89579711Y-94068273D03*
X88918436Y-95421055D03*
X88431923Y-96846049D03*
X88127846Y-98320783D03*
X95250000Y-101727000D03*
D16*
X96778800Y-102285800D02*
X96220000Y-101727000D01*
X97790000Y-102285800D02*
X96778800Y-102285800D01*
X96778800Y-102611200D02*
X96266000Y-103124000D01*
X96778800Y-102285800D02*
X96778800Y-102611200D01*
X100330000Y-96117600D02*
X100330000Y-94488000D01*
X100330000Y-97358200D02*
X100330000Y-96117600D01*
X100330000Y-101574600D02*
X100330000Y-102285800D01*
X98958400Y-100203000D02*
X100330000Y-101574600D01*
X93091000Y-100203000D02*
X98958400Y-100203000D01*
X100157000Y-104521000D02*
X102362000Y-104521000D01*
X101600000Y-103759000D02*
X102362000Y-104521000D01*
X101600000Y-102285800D02*
X101600000Y-103759000D01*
X95346800Y-97358200D02*
X95250000Y-97455000D01*
X97790000Y-97358200D02*
X95346800Y-97358200D01*
X97790000Y-98069400D02*
X97790000Y-97358200D01*
X98319400Y-98598800D02*
X97790000Y-98069400D01*
X98445598Y-98598800D02*
X98319400Y-98598800D01*
X101600000Y-101753202D02*
X98445598Y-98598800D01*
X101600000Y-102285800D02*
X101600000Y-101753202D01*
X97340000Y-104094000D02*
X97663000Y-104417000D01*
X96266000Y-104094000D02*
X97340000Y-104094000D01*
X99083000Y-104417000D02*
X99187000Y-104521000D01*
X97663000Y-104417000D02*
X99083000Y-104417000D01*
X97663000Y-105387000D02*
X98575000Y-106299000D01*
X98575000Y-106299000D02*
X99695000Y-106299000D01*
D17*
G36*
X100270670Y-88849771D02*
G01*
X100440188Y-88963039D01*
X100628546Y-89041060D01*
X100828505Y-89080834D01*
X101032383Y-89080834D01*
X101232342Y-89041060D01*
X101420700Y-88963039D01*
X101578209Y-88857795D01*
X101617425Y-88916486D01*
X101761588Y-89060649D01*
X101931106Y-89173917D01*
X102119464Y-89251938D01*
X102319423Y-89291712D01*
X102523301Y-89291712D01*
X102723260Y-89251938D01*
X102911618Y-89173917D01*
X102957177Y-89143476D01*
X103070156Y-89312562D01*
X103214319Y-89456725D01*
X103383837Y-89569993D01*
X103572195Y-89648014D01*
X103772154Y-89687788D01*
X103976032Y-89687788D01*
X104175991Y-89648014D01*
X104298485Y-89597275D01*
X104348522Y-89718073D01*
X104461790Y-89887591D01*
X104605953Y-90031754D01*
X104775471Y-90145022D01*
X104963829Y-90223043D01*
X105163788Y-90262817D01*
X105367666Y-90262817D01*
X105567625Y-90223043D01*
X105568739Y-90222581D01*
X105579092Y-90274628D01*
X105657113Y-90462986D01*
X105770381Y-90632504D01*
X105914544Y-90776667D01*
X106084062Y-90889935D01*
X106272420Y-90967956D01*
X106472379Y-91007730D01*
X106676257Y-91007730D01*
X106747384Y-90993582D01*
X106784002Y-91177676D01*
X106862023Y-91366034D01*
X106975291Y-91535552D01*
X107119454Y-91679715D01*
X107288972Y-91792983D01*
X107477330Y-91871004D01*
X107677289Y-91910778D01*
X107826454Y-91910778D01*
X107826454Y-92024660D01*
X107866228Y-92224619D01*
X107944249Y-92412977D01*
X108057517Y-92582495D01*
X108201680Y-92726658D01*
X108371198Y-92839926D01*
X108559556Y-92917947D01*
X108759515Y-92957721D01*
X108776368Y-92957721D01*
X108768931Y-92995109D01*
X108768931Y-93198987D01*
X108808705Y-93398946D01*
X108886726Y-93587304D01*
X108999994Y-93756822D01*
X109144157Y-93900985D01*
X109313675Y-94014253D01*
X109502033Y-94092274D01*
X109590303Y-94109832D01*
X109556793Y-94278299D01*
X109556793Y-94482177D01*
X109596567Y-94682136D01*
X109674588Y-94870494D01*
X109787856Y-95040012D01*
X109932019Y-95184175D01*
X110101537Y-95297443D01*
X110254416Y-95360768D01*
X110217390Y-95450157D01*
X110177616Y-95650116D01*
X110177616Y-95853994D01*
X110217390Y-96053953D01*
X110295411Y-96242311D01*
X110408679Y-96411829D01*
X110552842Y-96555992D01*
X110722360Y-96669260D01*
X110752116Y-96681585D01*
X110739405Y-96700609D01*
X110661384Y-96888967D01*
X110621610Y-97088926D01*
X110621610Y-97292804D01*
X110661384Y-97492763D01*
X110739405Y-97681121D01*
X110852673Y-97850639D01*
X110996836Y-97994802D01*
X111085993Y-98054374D01*
X110999567Y-98183720D01*
X110921546Y-98372078D01*
X110881772Y-98572037D01*
X110881772Y-98775915D01*
X110921546Y-98975874D01*
X110999567Y-99164232D01*
X111112835Y-99333750D01*
X111241187Y-99462102D01*
X111185063Y-99518226D01*
X111071795Y-99687744D01*
X110993774Y-99876102D01*
X110954000Y-100076061D01*
X110954000Y-100279939D01*
X110993774Y-100479898D01*
X111071795Y-100668256D01*
X111185063Y-100837774D01*
X111218488Y-100871199D01*
X111212380Y-100875280D01*
X111068217Y-101019443D01*
X110954949Y-101188961D01*
X110876928Y-101377319D01*
X110837154Y-101577278D01*
X110837154Y-101781156D01*
X110876928Y-101981115D01*
X110954949Y-102169473D01*
X111023950Y-102272741D01*
X110908303Y-102350014D01*
X110764140Y-102494177D01*
X110650872Y-102663695D01*
X110572851Y-102852053D01*
X110533077Y-103052012D01*
X110533077Y-103255890D01*
X110572851Y-103455849D01*
X110648348Y-103638113D01*
X110591308Y-103661740D01*
X110421790Y-103775008D01*
X110277627Y-103919171D01*
X110164359Y-104088689D01*
X110086338Y-104277047D01*
X110046564Y-104477006D01*
X110046564Y-104680884D01*
X110086338Y-104880843D01*
X110110710Y-104939682D01*
X109930033Y-105014522D01*
X109760515Y-105127790D01*
X109616352Y-105271953D01*
X109503084Y-105441471D01*
X109425063Y-105629829D01*
X109385289Y-105829788D01*
X109385289Y-106033666D01*
X109412779Y-106171867D01*
X109292781Y-106195736D01*
X109104423Y-106273757D01*
X108934905Y-106387025D01*
X108790742Y-106531188D01*
X108677474Y-106700706D01*
X108599453Y-106889064D01*
X108559679Y-107089023D01*
X108559679Y-107265818D01*
X108525650Y-107301792D01*
X108515816Y-107301792D01*
X108315857Y-107341566D01*
X108127499Y-107419587D01*
X107957981Y-107532855D01*
X107813818Y-107677018D01*
X107700550Y-107846536D01*
X107622529Y-108034894D01*
X107582755Y-108234853D01*
X107582755Y-108298567D01*
X107566127Y-108316145D01*
X107402986Y-108316145D01*
X107203027Y-108355919D01*
X107014669Y-108433940D01*
X106845151Y-108547208D01*
X106700988Y-108691371D01*
X106587720Y-108860889D01*
X106509699Y-109049247D01*
X106479001Y-109203577D01*
X106375676Y-109183025D01*
X106171798Y-109183025D01*
X105971839Y-109222799D01*
X105783481Y-109300820D01*
X105613963Y-109414088D01*
X105469800Y-109558251D01*
X105356532Y-109727769D01*
X105278511Y-109916127D01*
X105273719Y-109940220D01*
X105245507Y-109928534D01*
X105045548Y-109888760D01*
X104841670Y-109888760D01*
X104641711Y-109928534D01*
X104453353Y-110006555D01*
X104283835Y-110119823D01*
X104139672Y-110263986D01*
X104026404Y-110433504D01*
X103988653Y-110524641D01*
X103837415Y-110461996D01*
X103637456Y-110422222D01*
X103433578Y-110422222D01*
X103233619Y-110461996D01*
X103045261Y-110540017D01*
X102875743Y-110653285D01*
X102731580Y-110797448D01*
X102635171Y-110941734D01*
X102561923Y-110892791D01*
X102373565Y-110814770D01*
X102173606Y-110774996D01*
X101969728Y-110774996D01*
X101769769Y-110814770D01*
X101581411Y-110892791D01*
X101411893Y-111006059D01*
X101267730Y-111150222D01*
X101245632Y-111183293D01*
X101234921Y-111172582D01*
X101065403Y-111059314D01*
X100877045Y-110981293D01*
X100677086Y-110941519D01*
X100473208Y-110941519D01*
X100273249Y-110981293D01*
X100084891Y-111059314D01*
X99915373Y-111172582D01*
X99833528Y-111254427D01*
X99729330Y-111150229D01*
X99559812Y-111036961D01*
X99371454Y-110958940D01*
X99171495Y-110919166D01*
X98967617Y-110919166D01*
X98767658Y-110958940D01*
X98579300Y-111036961D01*
X98421791Y-111142205D01*
X98382575Y-111083514D01*
X98238412Y-110939351D01*
X98068894Y-110826083D01*
X97880536Y-110748062D01*
X97680577Y-110708288D01*
X97476699Y-110708288D01*
X97276740Y-110748062D01*
X97088382Y-110826083D01*
X97042823Y-110856524D01*
X96929844Y-110687438D01*
X96785681Y-110543275D01*
X96616163Y-110430007D01*
X96427805Y-110351986D01*
X96227846Y-110312212D01*
X96023968Y-110312212D01*
X95824009Y-110351986D01*
X95701515Y-110402725D01*
X95651478Y-110281927D01*
X95538210Y-110112409D01*
X95394047Y-109968246D01*
X95224529Y-109854978D01*
X95036171Y-109776957D01*
X94836212Y-109737183D01*
X94632334Y-109737183D01*
X94432375Y-109776957D01*
X94431261Y-109777419D01*
X94420908Y-109725372D01*
X94342887Y-109537014D01*
X94229619Y-109367496D01*
X94085456Y-109223333D01*
X93915938Y-109110065D01*
X93727580Y-109032044D01*
X93527621Y-108992270D01*
X93323743Y-108992270D01*
X93252616Y-109006418D01*
X93215998Y-108822324D01*
X93137977Y-108633966D01*
X93024709Y-108464448D01*
X92880546Y-108320285D01*
X92711028Y-108207017D01*
X92522670Y-108128996D01*
X92322711Y-108089222D01*
X92173546Y-108089222D01*
X92173546Y-107975340D01*
X92133772Y-107775381D01*
X92055751Y-107587023D01*
X91942483Y-107417505D01*
X91798320Y-107273342D01*
X91628802Y-107160074D01*
X91440444Y-107082053D01*
X91240485Y-107042279D01*
X91223632Y-107042279D01*
X91231069Y-107004891D01*
X91231069Y-106801013D01*
X91191295Y-106601054D01*
X91113274Y-106412696D01*
X91000006Y-106243178D01*
X90855843Y-106099015D01*
X90686325Y-105985747D01*
X90497967Y-105907726D01*
X90409697Y-105890168D01*
X90443207Y-105721701D01*
X90443207Y-105517823D01*
X90403433Y-105317864D01*
X90325412Y-105129506D01*
X90212144Y-104959988D01*
X90067981Y-104815825D01*
X89898463Y-104702557D01*
X89745584Y-104639232D01*
X89782610Y-104549843D01*
X89822384Y-104349884D01*
X89822384Y-104146006D01*
X89782610Y-103946047D01*
X89704589Y-103757689D01*
X89591321Y-103588171D01*
X89447158Y-103444008D01*
X89277640Y-103330740D01*
X89247884Y-103318415D01*
X89260595Y-103299391D01*
X89338616Y-103111033D01*
X89378390Y-102911074D01*
X89378390Y-102707196D01*
X89338616Y-102507237D01*
X89260595Y-102318879D01*
X89147327Y-102149361D01*
X89003164Y-102005198D01*
X88914007Y-101945626D01*
X89000433Y-101816280D01*
X89078454Y-101627922D01*
X89118228Y-101427963D01*
X89118228Y-101224085D01*
X89078454Y-101024126D01*
X89000433Y-100835768D01*
X88887165Y-100666250D01*
X88758813Y-100537898D01*
X88814937Y-100481774D01*
X88928205Y-100312256D01*
X89006226Y-100123898D01*
X89046000Y-99923939D01*
X89046000Y-99720061D01*
X89042607Y-99703000D01*
X91552928Y-99703000D01*
X91552928Y-100703000D01*
X91565188Y-100827482D01*
X91601498Y-100947180D01*
X91660463Y-101057494D01*
X91739815Y-101154185D01*
X91836506Y-101233537D01*
X91946820Y-101292502D01*
X92066518Y-101328812D01*
X92191000Y-101341072D01*
X93991000Y-101341072D01*
X94115482Y-101328812D01*
X94235180Y-101292502D01*
X94330890Y-101241343D01*
X94254774Y-101425102D01*
X94215000Y-101625061D01*
X94215000Y-101828939D01*
X94254774Y-102028898D01*
X94332795Y-102217256D01*
X94446063Y-102386774D01*
X94590226Y-102530937D01*
X94759744Y-102644205D01*
X94948102Y-102722226D01*
X95148061Y-102762000D01*
X95341601Y-102762000D01*
X95323023Y-102823243D01*
X95307928Y-102976500D01*
X95307928Y-103271500D01*
X95323023Y-103424757D01*
X95367726Y-103572125D01*
X95387436Y-103609000D01*
X95367726Y-103645875D01*
X95323023Y-103793243D01*
X95307928Y-103946500D01*
X95307928Y-104241500D01*
X95323023Y-104394757D01*
X95367726Y-104542125D01*
X95440321Y-104677940D01*
X95538017Y-104796983D01*
X95657060Y-104894679D01*
X95792875Y-104967274D01*
X95940243Y-105011977D01*
X96093500Y-105027072D01*
X96438500Y-105027072D01*
X96591757Y-105011977D01*
X96739125Y-104967274D01*
X96759399Y-104956438D01*
X96720023Y-105086243D01*
X96704928Y-105239500D01*
X96704928Y-105534500D01*
X96720023Y-105687757D01*
X96764726Y-105835125D01*
X96837321Y-105970940D01*
X96935017Y-106089983D01*
X97054060Y-106187679D01*
X97189875Y-106260274D01*
X97337243Y-106304977D01*
X97490500Y-106320072D01*
X97521271Y-106320072D01*
X98011201Y-106810003D01*
X98034999Y-106839001D01*
X98150724Y-106933974D01*
X98176560Y-106947784D01*
X98205498Y-107043180D01*
X98264463Y-107153494D01*
X98343815Y-107250185D01*
X98440506Y-107329537D01*
X98550820Y-107388502D01*
X98670518Y-107424812D01*
X98795000Y-107437072D01*
X100595000Y-107437072D01*
X100719482Y-107424812D01*
X100839180Y-107388502D01*
X100949494Y-107329537D01*
X101046185Y-107250185D01*
X101125537Y-107153494D01*
X101184502Y-107043180D01*
X101220812Y-106923482D01*
X101233072Y-106799000D01*
X101233072Y-105799000D01*
X101220812Y-105674518D01*
X101198214Y-105600022D01*
X101217820Y-105610502D01*
X101337518Y-105646812D01*
X101462000Y-105659072D01*
X103262000Y-105659072D01*
X103386482Y-105646812D01*
X103506180Y-105610502D01*
X103616494Y-105551537D01*
X103713185Y-105472185D01*
X103792537Y-105375494D01*
X103851502Y-105265180D01*
X103887812Y-105145482D01*
X103900072Y-105021000D01*
X103900072Y-104021000D01*
X103887812Y-103896518D01*
X103851502Y-103776820D01*
X103792537Y-103666506D01*
X103713185Y-103569815D01*
X103616494Y-103490463D01*
X103506180Y-103431498D01*
X103386482Y-103395188D01*
X103262000Y-103382928D01*
X102506980Y-103382928D01*
X102517472Y-103276400D01*
X102517472Y-101295200D01*
X102505212Y-101170718D01*
X102468902Y-101051020D01*
X102409937Y-100940706D01*
X102330585Y-100844015D01*
X102233894Y-100764663D01*
X102123580Y-100705698D01*
X102003882Y-100669388D01*
X101879400Y-100657128D01*
X101578728Y-100657128D01*
X99883189Y-98961590D01*
X99926118Y-98974612D01*
X100050600Y-98986872D01*
X100609400Y-98986872D01*
X100733882Y-98974612D01*
X100853580Y-98938302D01*
X100963894Y-98879337D01*
X100965000Y-98878429D01*
X100966106Y-98879337D01*
X101076420Y-98938302D01*
X101196118Y-98974612D01*
X101320600Y-98986872D01*
X101879400Y-98986872D01*
X102003882Y-98974612D01*
X102123580Y-98938302D01*
X102233894Y-98879337D01*
X102330585Y-98799985D01*
X102409937Y-98703294D01*
X102468902Y-98592980D01*
X102505212Y-98473282D01*
X102517472Y-98348800D01*
X102517472Y-96367600D01*
X102505212Y-96243118D01*
X102468902Y-96123420D01*
X102409937Y-96013106D01*
X102330585Y-95916415D01*
X102233894Y-95837063D01*
X102123580Y-95778098D01*
X102003882Y-95741788D01*
X101879400Y-95729528D01*
X101320600Y-95729528D01*
X101196118Y-95741788D01*
X101090000Y-95773979D01*
X101090000Y-95626072D01*
X101230000Y-95626072D01*
X101354482Y-95613812D01*
X101474180Y-95577502D01*
X101584494Y-95518537D01*
X101681185Y-95439185D01*
X101760537Y-95342494D01*
X101819502Y-95232180D01*
X101855812Y-95112482D01*
X101868072Y-94988000D01*
X101868072Y-93988000D01*
X101855812Y-93863518D01*
X101819502Y-93743820D01*
X101760537Y-93633506D01*
X101681185Y-93536815D01*
X101584494Y-93457463D01*
X101474180Y-93398498D01*
X101354482Y-93362188D01*
X101230000Y-93349928D01*
X99430000Y-93349928D01*
X99305518Y-93362188D01*
X99185820Y-93398498D01*
X99075506Y-93457463D01*
X98978815Y-93536815D01*
X98899463Y-93633506D01*
X98840498Y-93743820D01*
X98804188Y-93863518D01*
X98791928Y-93988000D01*
X98791928Y-94988000D01*
X98804188Y-95112482D01*
X98840498Y-95232180D01*
X98899463Y-95342494D01*
X98978815Y-95439185D01*
X99075506Y-95518537D01*
X99185820Y-95577502D01*
X99305518Y-95613812D01*
X99430000Y-95626072D01*
X99570000Y-95626072D01*
X99570000Y-95773979D01*
X99463882Y-95741788D01*
X99339400Y-95729528D01*
X98780600Y-95729528D01*
X98656118Y-95741788D01*
X98536420Y-95778098D01*
X98426106Y-95837063D01*
X98425000Y-95837971D01*
X98423894Y-95837063D01*
X98313580Y-95778098D01*
X98193882Y-95741788D01*
X98069400Y-95729528D01*
X97510600Y-95729528D01*
X97386118Y-95741788D01*
X97266420Y-95778098D01*
X97156106Y-95837063D01*
X97059415Y-95916415D01*
X96980063Y-96013106D01*
X96921098Y-96123420D01*
X96884788Y-96243118D01*
X96872528Y-96367600D01*
X96872528Y-96598200D01*
X95753946Y-96598200D01*
X95723125Y-96581726D01*
X95575757Y-96537023D01*
X95422500Y-96521928D01*
X95077500Y-96521928D01*
X94924243Y-96537023D01*
X94776875Y-96581726D01*
X94641060Y-96654321D01*
X94522017Y-96752017D01*
X94424321Y-96871060D01*
X94351726Y-97006875D01*
X94307023Y-97154243D01*
X94291928Y-97307500D01*
X94291928Y-97602500D01*
X94307023Y-97755757D01*
X94351726Y-97903125D01*
X94371436Y-97940000D01*
X94351726Y-97976875D01*
X94307023Y-98124243D01*
X94291928Y-98277500D01*
X94291928Y-98572500D01*
X94307023Y-98725757D01*
X94351726Y-98873125D01*
X94424321Y-99008940D01*
X94522017Y-99127983D01*
X94641060Y-99225679D01*
X94776875Y-99298274D01*
X94924243Y-99342977D01*
X95077500Y-99358072D01*
X95422500Y-99358072D01*
X95575757Y-99342977D01*
X95723125Y-99298274D01*
X95858940Y-99225679D01*
X95977983Y-99127983D01*
X96075679Y-99008940D01*
X96148274Y-98873125D01*
X96192977Y-98725757D01*
X96208072Y-98572500D01*
X96208072Y-98277500D01*
X96192977Y-98124243D01*
X96191144Y-98118200D01*
X96872528Y-98118200D01*
X96872528Y-98348800D01*
X96884788Y-98473282D01*
X96921098Y-98592980D01*
X96980063Y-98703294D01*
X97059415Y-98799985D01*
X97156106Y-98879337D01*
X97266420Y-98938302D01*
X97386118Y-98974612D01*
X97510600Y-98986872D01*
X97632670Y-98986872D01*
X97755600Y-99109802D01*
X97779399Y-99138801D01*
X97895124Y-99233774D01*
X98027153Y-99304346D01*
X98097761Y-99325764D01*
X98214997Y-99443000D01*
X94572046Y-99443000D01*
X94521537Y-99348506D01*
X94442185Y-99251815D01*
X94345494Y-99172463D01*
X94235180Y-99113498D01*
X94115482Y-99077188D01*
X93991000Y-99064928D01*
X92191000Y-99064928D01*
X92066518Y-99077188D01*
X91946820Y-99113498D01*
X91836506Y-99172463D01*
X91739815Y-99251815D01*
X91660463Y-99348506D01*
X91601498Y-99458820D01*
X91565188Y-99578518D01*
X91552928Y-99703000D01*
X89042607Y-99703000D01*
X89006226Y-99520102D01*
X88928205Y-99331744D01*
X88814937Y-99162226D01*
X88781512Y-99128801D01*
X88787620Y-99124720D01*
X88931783Y-98980557D01*
X89045051Y-98811039D01*
X89123072Y-98622681D01*
X89162846Y-98422722D01*
X89162846Y-98218844D01*
X89123072Y-98018885D01*
X89045051Y-97830527D01*
X88976050Y-97727259D01*
X89091697Y-97649986D01*
X89235860Y-97505823D01*
X89349128Y-97336305D01*
X89427149Y-97147947D01*
X89466923Y-96947988D01*
X89466923Y-96744110D01*
X89427149Y-96544151D01*
X89351652Y-96361887D01*
X89408692Y-96338260D01*
X89578210Y-96224992D01*
X89722373Y-96080829D01*
X89835641Y-95911311D01*
X89913662Y-95722953D01*
X89953436Y-95522994D01*
X89953436Y-95319116D01*
X89913662Y-95119157D01*
X89889290Y-95060318D01*
X90069967Y-94985478D01*
X90239485Y-94872210D01*
X90383648Y-94728047D01*
X90496916Y-94558529D01*
X90574937Y-94370171D01*
X90614711Y-94170212D01*
X90614711Y-93966334D01*
X90587221Y-93828133D01*
X90707219Y-93804264D01*
X90895577Y-93726243D01*
X91065095Y-93612975D01*
X91209258Y-93468812D01*
X91322526Y-93299294D01*
X91400547Y-93110936D01*
X91440321Y-92910977D01*
X91440321Y-92707099D01*
X91438552Y-92698208D01*
X91484184Y-92698208D01*
X91684143Y-92658434D01*
X91872501Y-92580413D01*
X92042019Y-92467145D01*
X92186182Y-92322982D01*
X92299450Y-92153464D01*
X92377471Y-91965106D01*
X92417245Y-91765147D01*
X92417245Y-91683855D01*
X92597014Y-91683855D01*
X92796973Y-91644081D01*
X92985331Y-91566060D01*
X93154849Y-91452792D01*
X93299012Y-91308629D01*
X93412280Y-91139111D01*
X93490301Y-90950753D01*
X93520999Y-90796423D01*
X93624324Y-90816975D01*
X93828202Y-90816975D01*
X94028161Y-90777201D01*
X94216519Y-90699180D01*
X94386037Y-90585912D01*
X94530200Y-90441749D01*
X94643468Y-90272231D01*
X94721489Y-90083873D01*
X94726281Y-90059780D01*
X94754493Y-90071466D01*
X94954452Y-90111240D01*
X95158330Y-90111240D01*
X95358289Y-90071466D01*
X95546647Y-89993445D01*
X95716165Y-89880177D01*
X95860328Y-89736014D01*
X95973596Y-89566496D01*
X96011347Y-89475359D01*
X96162585Y-89538004D01*
X96362544Y-89577778D01*
X96566422Y-89577778D01*
X96766381Y-89538004D01*
X96954739Y-89459983D01*
X97124257Y-89346715D01*
X97268420Y-89202552D01*
X97364829Y-89058266D01*
X97438077Y-89107209D01*
X97626435Y-89185230D01*
X97826394Y-89225004D01*
X98030272Y-89225004D01*
X98230231Y-89185230D01*
X98418589Y-89107209D01*
X98588107Y-88993941D01*
X98732270Y-88849778D01*
X98754368Y-88816707D01*
X98765079Y-88827418D01*
X98934597Y-88940686D01*
X99122955Y-89018707D01*
X99322914Y-89058481D01*
X99526792Y-89058481D01*
X99726751Y-89018707D01*
X99915109Y-88940686D01*
X100084627Y-88827418D01*
X100166472Y-88745573D01*
X100270670Y-88849771D01*
X100270670Y-88849771D01*
G37*
X100270670Y-88849771D02*
X100440188Y-88963039D01*
X100628546Y-89041060D01*
X100828505Y-89080834D01*
X101032383Y-89080834D01*
X101232342Y-89041060D01*
X101420700Y-88963039D01*
X101578209Y-88857795D01*
X101617425Y-88916486D01*
X101761588Y-89060649D01*
X101931106Y-89173917D01*
X102119464Y-89251938D01*
X102319423Y-89291712D01*
X102523301Y-89291712D01*
X102723260Y-89251938D01*
X102911618Y-89173917D01*
X102957177Y-89143476D01*
X103070156Y-89312562D01*
X103214319Y-89456725D01*
X103383837Y-89569993D01*
X103572195Y-89648014D01*
X103772154Y-89687788D01*
X103976032Y-89687788D01*
X104175991Y-89648014D01*
X104298485Y-89597275D01*
X104348522Y-89718073D01*
X104461790Y-89887591D01*
X104605953Y-90031754D01*
X104775471Y-90145022D01*
X104963829Y-90223043D01*
X105163788Y-90262817D01*
X105367666Y-90262817D01*
X105567625Y-90223043D01*
X105568739Y-90222581D01*
X105579092Y-90274628D01*
X105657113Y-90462986D01*
X105770381Y-90632504D01*
X105914544Y-90776667D01*
X106084062Y-90889935D01*
X106272420Y-90967956D01*
X106472379Y-91007730D01*
X106676257Y-91007730D01*
X106747384Y-90993582D01*
X106784002Y-91177676D01*
X106862023Y-91366034D01*
X106975291Y-91535552D01*
X107119454Y-91679715D01*
X107288972Y-91792983D01*
X107477330Y-91871004D01*
X107677289Y-91910778D01*
X107826454Y-91910778D01*
X107826454Y-92024660D01*
X107866228Y-92224619D01*
X107944249Y-92412977D01*
X108057517Y-92582495D01*
X108201680Y-92726658D01*
X108371198Y-92839926D01*
X108559556Y-92917947D01*
X108759515Y-92957721D01*
X108776368Y-92957721D01*
X108768931Y-92995109D01*
X108768931Y-93198987D01*
X108808705Y-93398946D01*
X108886726Y-93587304D01*
X108999994Y-93756822D01*
X109144157Y-93900985D01*
X109313675Y-94014253D01*
X109502033Y-94092274D01*
X109590303Y-94109832D01*
X109556793Y-94278299D01*
X109556793Y-94482177D01*
X109596567Y-94682136D01*
X109674588Y-94870494D01*
X109787856Y-95040012D01*
X109932019Y-95184175D01*
X110101537Y-95297443D01*
X110254416Y-95360768D01*
X110217390Y-95450157D01*
X110177616Y-95650116D01*
X110177616Y-95853994D01*
X110217390Y-96053953D01*
X110295411Y-96242311D01*
X110408679Y-96411829D01*
X110552842Y-96555992D01*
X110722360Y-96669260D01*
X110752116Y-96681585D01*
X110739405Y-96700609D01*
X110661384Y-96888967D01*
X110621610Y-97088926D01*
X110621610Y-97292804D01*
X110661384Y-97492763D01*
X110739405Y-97681121D01*
X110852673Y-97850639D01*
X110996836Y-97994802D01*
X111085993Y-98054374D01*
X110999567Y-98183720D01*
X110921546Y-98372078D01*
X110881772Y-98572037D01*
X110881772Y-98775915D01*
X110921546Y-98975874D01*
X110999567Y-99164232D01*
X111112835Y-99333750D01*
X111241187Y-99462102D01*
X111185063Y-99518226D01*
X111071795Y-99687744D01*
X110993774Y-99876102D01*
X110954000Y-100076061D01*
X110954000Y-100279939D01*
X110993774Y-100479898D01*
X111071795Y-100668256D01*
X111185063Y-100837774D01*
X111218488Y-100871199D01*
X111212380Y-100875280D01*
X111068217Y-101019443D01*
X110954949Y-101188961D01*
X110876928Y-101377319D01*
X110837154Y-101577278D01*
X110837154Y-101781156D01*
X110876928Y-101981115D01*
X110954949Y-102169473D01*
X111023950Y-102272741D01*
X110908303Y-102350014D01*
X110764140Y-102494177D01*
X110650872Y-102663695D01*
X110572851Y-102852053D01*
X110533077Y-103052012D01*
X110533077Y-103255890D01*
X110572851Y-103455849D01*
X110648348Y-103638113D01*
X110591308Y-103661740D01*
X110421790Y-103775008D01*
X110277627Y-103919171D01*
X110164359Y-104088689D01*
X110086338Y-104277047D01*
X110046564Y-104477006D01*
X110046564Y-104680884D01*
X110086338Y-104880843D01*
X110110710Y-104939682D01*
X109930033Y-105014522D01*
X109760515Y-105127790D01*
X109616352Y-105271953D01*
X109503084Y-105441471D01*
X109425063Y-105629829D01*
X109385289Y-105829788D01*
X109385289Y-106033666D01*
X109412779Y-106171867D01*
X109292781Y-106195736D01*
X109104423Y-106273757D01*
X108934905Y-106387025D01*
X108790742Y-106531188D01*
X108677474Y-106700706D01*
X108599453Y-106889064D01*
X108559679Y-107089023D01*
X108559679Y-107265818D01*
X108525650Y-107301792D01*
X108515816Y-107301792D01*
X108315857Y-107341566D01*
X108127499Y-107419587D01*
X107957981Y-107532855D01*
X107813818Y-107677018D01*
X107700550Y-107846536D01*
X107622529Y-108034894D01*
X107582755Y-108234853D01*
X107582755Y-108298567D01*
X107566127Y-108316145D01*
X107402986Y-108316145D01*
X107203027Y-108355919D01*
X107014669Y-108433940D01*
X106845151Y-108547208D01*
X106700988Y-108691371D01*
X106587720Y-108860889D01*
X106509699Y-109049247D01*
X106479001Y-109203577D01*
X106375676Y-109183025D01*
X106171798Y-109183025D01*
X105971839Y-109222799D01*
X105783481Y-109300820D01*
X105613963Y-109414088D01*
X105469800Y-109558251D01*
X105356532Y-109727769D01*
X105278511Y-109916127D01*
X105273719Y-109940220D01*
X105245507Y-109928534D01*
X105045548Y-109888760D01*
X104841670Y-109888760D01*
X104641711Y-109928534D01*
X104453353Y-110006555D01*
X104283835Y-110119823D01*
X104139672Y-110263986D01*
X104026404Y-110433504D01*
X103988653Y-110524641D01*
X103837415Y-110461996D01*
X103637456Y-110422222D01*
X103433578Y-110422222D01*
X103233619Y-110461996D01*
X103045261Y-110540017D01*
X102875743Y-110653285D01*
X102731580Y-110797448D01*
X102635171Y-110941734D01*
X102561923Y-110892791D01*
X102373565Y-110814770D01*
X102173606Y-110774996D01*
X101969728Y-110774996D01*
X101769769Y-110814770D01*
X101581411Y-110892791D01*
X101411893Y-111006059D01*
X101267730Y-111150222D01*
X101245632Y-111183293D01*
X101234921Y-111172582D01*
X101065403Y-111059314D01*
X100877045Y-110981293D01*
X100677086Y-110941519D01*
X100473208Y-110941519D01*
X100273249Y-110981293D01*
X100084891Y-111059314D01*
X99915373Y-111172582D01*
X99833528Y-111254427D01*
X99729330Y-111150229D01*
X99559812Y-111036961D01*
X99371454Y-110958940D01*
X99171495Y-110919166D01*
X98967617Y-110919166D01*
X98767658Y-110958940D01*
X98579300Y-111036961D01*
X98421791Y-111142205D01*
X98382575Y-111083514D01*
X98238412Y-110939351D01*
X98068894Y-110826083D01*
X97880536Y-110748062D01*
X97680577Y-110708288D01*
X97476699Y-110708288D01*
X97276740Y-110748062D01*
X97088382Y-110826083D01*
X97042823Y-110856524D01*
X96929844Y-110687438D01*
X96785681Y-110543275D01*
X96616163Y-110430007D01*
X96427805Y-110351986D01*
X96227846Y-110312212D01*
X96023968Y-110312212D01*
X95824009Y-110351986D01*
X95701515Y-110402725D01*
X95651478Y-110281927D01*
X95538210Y-110112409D01*
X95394047Y-109968246D01*
X95224529Y-109854978D01*
X95036171Y-109776957D01*
X94836212Y-109737183D01*
X94632334Y-109737183D01*
X94432375Y-109776957D01*
X94431261Y-109777419D01*
X94420908Y-109725372D01*
X94342887Y-109537014D01*
X94229619Y-109367496D01*
X94085456Y-109223333D01*
X93915938Y-109110065D01*
X93727580Y-109032044D01*
X93527621Y-108992270D01*
X93323743Y-108992270D01*
X93252616Y-109006418D01*
X93215998Y-108822324D01*
X93137977Y-108633966D01*
X93024709Y-108464448D01*
X92880546Y-108320285D01*
X92711028Y-108207017D01*
X92522670Y-108128996D01*
X92322711Y-108089222D01*
X92173546Y-108089222D01*
X92173546Y-107975340D01*
X92133772Y-107775381D01*
X92055751Y-107587023D01*
X91942483Y-107417505D01*
X91798320Y-107273342D01*
X91628802Y-107160074D01*
X91440444Y-107082053D01*
X91240485Y-107042279D01*
X91223632Y-107042279D01*
X91231069Y-107004891D01*
X91231069Y-106801013D01*
X91191295Y-106601054D01*
X91113274Y-106412696D01*
X91000006Y-106243178D01*
X90855843Y-106099015D01*
X90686325Y-105985747D01*
X90497967Y-105907726D01*
X90409697Y-105890168D01*
X90443207Y-105721701D01*
X90443207Y-105517823D01*
X90403433Y-105317864D01*
X90325412Y-105129506D01*
X90212144Y-104959988D01*
X90067981Y-104815825D01*
X89898463Y-104702557D01*
X89745584Y-104639232D01*
X89782610Y-104549843D01*
X89822384Y-104349884D01*
X89822384Y-104146006D01*
X89782610Y-103946047D01*
X89704589Y-103757689D01*
X89591321Y-103588171D01*
X89447158Y-103444008D01*
X89277640Y-103330740D01*
X89247884Y-103318415D01*
X89260595Y-103299391D01*
X89338616Y-103111033D01*
X89378390Y-102911074D01*
X89378390Y-102707196D01*
X89338616Y-102507237D01*
X89260595Y-102318879D01*
X89147327Y-102149361D01*
X89003164Y-102005198D01*
X88914007Y-101945626D01*
X89000433Y-101816280D01*
X89078454Y-101627922D01*
X89118228Y-101427963D01*
X89118228Y-101224085D01*
X89078454Y-101024126D01*
X89000433Y-100835768D01*
X88887165Y-100666250D01*
X88758813Y-100537898D01*
X88814937Y-100481774D01*
X88928205Y-100312256D01*
X89006226Y-100123898D01*
X89046000Y-99923939D01*
X89046000Y-99720061D01*
X89042607Y-99703000D01*
X91552928Y-99703000D01*
X91552928Y-100703000D01*
X91565188Y-100827482D01*
X91601498Y-100947180D01*
X91660463Y-101057494D01*
X91739815Y-101154185D01*
X91836506Y-101233537D01*
X91946820Y-101292502D01*
X92066518Y-101328812D01*
X92191000Y-101341072D01*
X93991000Y-101341072D01*
X94115482Y-101328812D01*
X94235180Y-101292502D01*
X94330890Y-101241343D01*
X94254774Y-101425102D01*
X94215000Y-101625061D01*
X94215000Y-101828939D01*
X94254774Y-102028898D01*
X94332795Y-102217256D01*
X94446063Y-102386774D01*
X94590226Y-102530937D01*
X94759744Y-102644205D01*
X94948102Y-102722226D01*
X95148061Y-102762000D01*
X95341601Y-102762000D01*
X95323023Y-102823243D01*
X95307928Y-102976500D01*
X95307928Y-103271500D01*
X95323023Y-103424757D01*
X95367726Y-103572125D01*
X95387436Y-103609000D01*
X95367726Y-103645875D01*
X95323023Y-103793243D01*
X95307928Y-103946500D01*
X95307928Y-104241500D01*
X95323023Y-104394757D01*
X95367726Y-104542125D01*
X95440321Y-104677940D01*
X95538017Y-104796983D01*
X95657060Y-104894679D01*
X95792875Y-104967274D01*
X95940243Y-105011977D01*
X96093500Y-105027072D01*
X96438500Y-105027072D01*
X96591757Y-105011977D01*
X96739125Y-104967274D01*
X96759399Y-104956438D01*
X96720023Y-105086243D01*
X96704928Y-105239500D01*
X96704928Y-105534500D01*
X96720023Y-105687757D01*
X96764726Y-105835125D01*
X96837321Y-105970940D01*
X96935017Y-106089983D01*
X97054060Y-106187679D01*
X97189875Y-106260274D01*
X97337243Y-106304977D01*
X97490500Y-106320072D01*
X97521271Y-106320072D01*
X98011201Y-106810003D01*
X98034999Y-106839001D01*
X98150724Y-106933974D01*
X98176560Y-106947784D01*
X98205498Y-107043180D01*
X98264463Y-107153494D01*
X98343815Y-107250185D01*
X98440506Y-107329537D01*
X98550820Y-107388502D01*
X98670518Y-107424812D01*
X98795000Y-107437072D01*
X100595000Y-107437072D01*
X100719482Y-107424812D01*
X100839180Y-107388502D01*
X100949494Y-107329537D01*
X101046185Y-107250185D01*
X101125537Y-107153494D01*
X101184502Y-107043180D01*
X101220812Y-106923482D01*
X101233072Y-106799000D01*
X101233072Y-105799000D01*
X101220812Y-105674518D01*
X101198214Y-105600022D01*
X101217820Y-105610502D01*
X101337518Y-105646812D01*
X101462000Y-105659072D01*
X103262000Y-105659072D01*
X103386482Y-105646812D01*
X103506180Y-105610502D01*
X103616494Y-105551537D01*
X103713185Y-105472185D01*
X103792537Y-105375494D01*
X103851502Y-105265180D01*
X103887812Y-105145482D01*
X103900072Y-105021000D01*
X103900072Y-104021000D01*
X103887812Y-103896518D01*
X103851502Y-103776820D01*
X103792537Y-103666506D01*
X103713185Y-103569815D01*
X103616494Y-103490463D01*
X103506180Y-103431498D01*
X103386482Y-103395188D01*
X103262000Y-103382928D01*
X102506980Y-103382928D01*
X102517472Y-103276400D01*
X102517472Y-101295200D01*
X102505212Y-101170718D01*
X102468902Y-101051020D01*
X102409937Y-100940706D01*
X102330585Y-100844015D01*
X102233894Y-100764663D01*
X102123580Y-100705698D01*
X102003882Y-100669388D01*
X101879400Y-100657128D01*
X101578728Y-100657128D01*
X99883189Y-98961590D01*
X99926118Y-98974612D01*
X100050600Y-98986872D01*
X100609400Y-98986872D01*
X100733882Y-98974612D01*
X100853580Y-98938302D01*
X100963894Y-98879337D01*
X100965000Y-98878429D01*
X100966106Y-98879337D01*
X101076420Y-98938302D01*
X101196118Y-98974612D01*
X101320600Y-98986872D01*
X101879400Y-98986872D01*
X102003882Y-98974612D01*
X102123580Y-98938302D01*
X102233894Y-98879337D01*
X102330585Y-98799985D01*
X102409937Y-98703294D01*
X102468902Y-98592980D01*
X102505212Y-98473282D01*
X102517472Y-98348800D01*
X102517472Y-96367600D01*
X102505212Y-96243118D01*
X102468902Y-96123420D01*
X102409937Y-96013106D01*
X102330585Y-95916415D01*
X102233894Y-95837063D01*
X102123580Y-95778098D01*
X102003882Y-95741788D01*
X101879400Y-95729528D01*
X101320600Y-95729528D01*
X101196118Y-95741788D01*
X101090000Y-95773979D01*
X101090000Y-95626072D01*
X101230000Y-95626072D01*
X101354482Y-95613812D01*
X101474180Y-95577502D01*
X101584494Y-95518537D01*
X101681185Y-95439185D01*
X101760537Y-95342494D01*
X101819502Y-95232180D01*
X101855812Y-95112482D01*
X101868072Y-94988000D01*
X101868072Y-93988000D01*
X101855812Y-93863518D01*
X101819502Y-93743820D01*
X101760537Y-93633506D01*
X101681185Y-93536815D01*
X101584494Y-93457463D01*
X101474180Y-93398498D01*
X101354482Y-93362188D01*
X101230000Y-93349928D01*
X99430000Y-93349928D01*
X99305518Y-93362188D01*
X99185820Y-93398498D01*
X99075506Y-93457463D01*
X98978815Y-93536815D01*
X98899463Y-93633506D01*
X98840498Y-93743820D01*
X98804188Y-93863518D01*
X98791928Y-93988000D01*
X98791928Y-94988000D01*
X98804188Y-95112482D01*
X98840498Y-95232180D01*
X98899463Y-95342494D01*
X98978815Y-95439185D01*
X99075506Y-95518537D01*
X99185820Y-95577502D01*
X99305518Y-95613812D01*
X99430000Y-95626072D01*
X99570000Y-95626072D01*
X99570000Y-95773979D01*
X99463882Y-95741788D01*
X99339400Y-95729528D01*
X98780600Y-95729528D01*
X98656118Y-95741788D01*
X98536420Y-95778098D01*
X98426106Y-95837063D01*
X98425000Y-95837971D01*
X98423894Y-95837063D01*
X98313580Y-95778098D01*
X98193882Y-95741788D01*
X98069400Y-95729528D01*
X97510600Y-95729528D01*
X97386118Y-95741788D01*
X97266420Y-95778098D01*
X97156106Y-95837063D01*
X97059415Y-95916415D01*
X96980063Y-96013106D01*
X96921098Y-96123420D01*
X96884788Y-96243118D01*
X96872528Y-96367600D01*
X96872528Y-96598200D01*
X95753946Y-96598200D01*
X95723125Y-96581726D01*
X95575757Y-96537023D01*
X95422500Y-96521928D01*
X95077500Y-96521928D01*
X94924243Y-96537023D01*
X94776875Y-96581726D01*
X94641060Y-96654321D01*
X94522017Y-96752017D01*
X94424321Y-96871060D01*
X94351726Y-97006875D01*
X94307023Y-97154243D01*
X94291928Y-97307500D01*
X94291928Y-97602500D01*
X94307023Y-97755757D01*
X94351726Y-97903125D01*
X94371436Y-97940000D01*
X94351726Y-97976875D01*
X94307023Y-98124243D01*
X94291928Y-98277500D01*
X94291928Y-98572500D01*
X94307023Y-98725757D01*
X94351726Y-98873125D01*
X94424321Y-99008940D01*
X94522017Y-99127983D01*
X94641060Y-99225679D01*
X94776875Y-99298274D01*
X94924243Y-99342977D01*
X95077500Y-99358072D01*
X95422500Y-99358072D01*
X95575757Y-99342977D01*
X95723125Y-99298274D01*
X95858940Y-99225679D01*
X95977983Y-99127983D01*
X96075679Y-99008940D01*
X96148274Y-98873125D01*
X96192977Y-98725757D01*
X96208072Y-98572500D01*
X96208072Y-98277500D01*
X96192977Y-98124243D01*
X96191144Y-98118200D01*
X96872528Y-98118200D01*
X96872528Y-98348800D01*
X96884788Y-98473282D01*
X96921098Y-98592980D01*
X96980063Y-98703294D01*
X97059415Y-98799985D01*
X97156106Y-98879337D01*
X97266420Y-98938302D01*
X97386118Y-98974612D01*
X97510600Y-98986872D01*
X97632670Y-98986872D01*
X97755600Y-99109802D01*
X97779399Y-99138801D01*
X97895124Y-99233774D01*
X98027153Y-99304346D01*
X98097761Y-99325764D01*
X98214997Y-99443000D01*
X94572046Y-99443000D01*
X94521537Y-99348506D01*
X94442185Y-99251815D01*
X94345494Y-99172463D01*
X94235180Y-99113498D01*
X94115482Y-99077188D01*
X93991000Y-99064928D01*
X92191000Y-99064928D01*
X92066518Y-99077188D01*
X91946820Y-99113498D01*
X91836506Y-99172463D01*
X91739815Y-99251815D01*
X91660463Y-99348506D01*
X91601498Y-99458820D01*
X91565188Y-99578518D01*
X91552928Y-99703000D01*
X89042607Y-99703000D01*
X89006226Y-99520102D01*
X88928205Y-99331744D01*
X88814937Y-99162226D01*
X88781512Y-99128801D01*
X88787620Y-99124720D01*
X88931783Y-98980557D01*
X89045051Y-98811039D01*
X89123072Y-98622681D01*
X89162846Y-98422722D01*
X89162846Y-98218844D01*
X89123072Y-98018885D01*
X89045051Y-97830527D01*
X88976050Y-97727259D01*
X89091697Y-97649986D01*
X89235860Y-97505823D01*
X89349128Y-97336305D01*
X89427149Y-97147947D01*
X89466923Y-96947988D01*
X89466923Y-96744110D01*
X89427149Y-96544151D01*
X89351652Y-96361887D01*
X89408692Y-96338260D01*
X89578210Y-96224992D01*
X89722373Y-96080829D01*
X89835641Y-95911311D01*
X89913662Y-95722953D01*
X89953436Y-95522994D01*
X89953436Y-95319116D01*
X89913662Y-95119157D01*
X89889290Y-95060318D01*
X90069967Y-94985478D01*
X90239485Y-94872210D01*
X90383648Y-94728047D01*
X90496916Y-94558529D01*
X90574937Y-94370171D01*
X90614711Y-94170212D01*
X90614711Y-93966334D01*
X90587221Y-93828133D01*
X90707219Y-93804264D01*
X90895577Y-93726243D01*
X91065095Y-93612975D01*
X91209258Y-93468812D01*
X91322526Y-93299294D01*
X91400547Y-93110936D01*
X91440321Y-92910977D01*
X91440321Y-92707099D01*
X91438552Y-92698208D01*
X91484184Y-92698208D01*
X91684143Y-92658434D01*
X91872501Y-92580413D01*
X92042019Y-92467145D01*
X92186182Y-92322982D01*
X92299450Y-92153464D01*
X92377471Y-91965106D01*
X92417245Y-91765147D01*
X92417245Y-91683855D01*
X92597014Y-91683855D01*
X92796973Y-91644081D01*
X92985331Y-91566060D01*
X93154849Y-91452792D01*
X93299012Y-91308629D01*
X93412280Y-91139111D01*
X93490301Y-90950753D01*
X93520999Y-90796423D01*
X93624324Y-90816975D01*
X93828202Y-90816975D01*
X94028161Y-90777201D01*
X94216519Y-90699180D01*
X94386037Y-90585912D01*
X94530200Y-90441749D01*
X94643468Y-90272231D01*
X94721489Y-90083873D01*
X94726281Y-90059780D01*
X94754493Y-90071466D01*
X94954452Y-90111240D01*
X95158330Y-90111240D01*
X95358289Y-90071466D01*
X95546647Y-89993445D01*
X95716165Y-89880177D01*
X95860328Y-89736014D01*
X95973596Y-89566496D01*
X96011347Y-89475359D01*
X96162585Y-89538004D01*
X96362544Y-89577778D01*
X96566422Y-89577778D01*
X96766381Y-89538004D01*
X96954739Y-89459983D01*
X97124257Y-89346715D01*
X97268420Y-89202552D01*
X97364829Y-89058266D01*
X97438077Y-89107209D01*
X97626435Y-89185230D01*
X97826394Y-89225004D01*
X98030272Y-89225004D01*
X98230231Y-89185230D01*
X98418589Y-89107209D01*
X98588107Y-88993941D01*
X98732270Y-88849778D01*
X98754368Y-88816707D01*
X98765079Y-88827418D01*
X98934597Y-88940686D01*
X99122955Y-89018707D01*
X99322914Y-89058481D01*
X99526792Y-89058481D01*
X99726751Y-89018707D01*
X99915109Y-88940686D01*
X100084627Y-88827418D01*
X100166472Y-88745573D01*
X100270670Y-88849771D01*
G36*
X96938675Y-101018137D02*
G01*
X96922983Y-100999017D01*
X96879096Y-100963000D01*
X96968146Y-100963000D01*
X96938675Y-101018137D01*
X96938675Y-101018137D01*
G37*
X96938675Y-101018137D02*
X96922983Y-100999017D01*
X96879096Y-100963000D01*
X96968146Y-100963000D01*
X96938675Y-101018137D01*
M02*
