G04 #@! TF.GenerationSoftware,KiCad,Pcbnew,(5.1.2)-2*
G04 #@! TF.CreationDate,2019-08-09T01:23:26-07:00*
G04 #@! TF.ProjectId,noncontact_electrode,6e6f6e63-6f6e-4746-9163-745f656c6563,rev?*
G04 #@! TF.SameCoordinates,Original*
G04 #@! TF.FileFunction,Copper,L2,Inr*
G04 #@! TF.FilePolarity,Positive*
%FSLAX46Y46*%
G04 Gerber Fmt 4.6, Leading zero omitted, Abs format (unit mm)*
G04 Created by KiCad (PCBNEW (5.1.2)-2) date 2019-08-09 01:23:26*
%MOMM*%
%LPD*%
G04 APERTURE LIST*
%ADD10C,0.100000*%
%ADD11C,4.000000*%
%ADD12C,4.120000*%
%ADD13C,0.800000*%
G04 APERTURE END LIST*
D10*
G36*
X106807000Y-91567000D02*
G01*
X111252000Y-100076000D01*
X104775000Y-110744000D01*
X97282000Y-110617000D01*
X90932000Y-105664000D01*
X92710000Y-103378000D01*
X96774000Y-102489000D01*
X94742000Y-99949000D01*
X88900000Y-101727000D01*
X90932000Y-93345000D01*
X97917000Y-89154000D01*
X106807000Y-91567000D01*
G37*
X106807000Y-91567000D02*
X111252000Y-100076000D01*
X104775000Y-110744000D01*
X97282000Y-110617000D01*
X90932000Y-105664000D01*
X92710000Y-103378000D01*
X96774000Y-102489000D01*
X94742000Y-99949000D01*
X88900000Y-101727000D01*
X90932000Y-93345000D01*
X97917000Y-89154000D01*
X106807000Y-91567000D01*
D11*
X111000000Y-100000000D02*
G75*
G03X111000000Y-100000000I-11000000J0D01*
G01*
D12*
X97788815Y-101727000D02*
G75*
G03X97788815Y-101727000I-2538815J0D01*
G01*
D13*
X95250000Y-98425000D03*
X95250000Y-101727000D03*
X88011000Y-99822000D03*
X88083228Y-101326024D03*
X88343390Y-102809135D03*
X88787384Y-104247945D03*
X89408207Y-105619762D03*
X90196069Y-106902952D03*
X91138546Y-108077279D03*
X92220772Y-109124222D03*
X93425682Y-110027270D03*
X94734273Y-110772183D03*
X96125907Y-111347212D03*
X97578638Y-111743288D03*
X99069556Y-111954166D03*
X100575147Y-111976519D03*
X102071667Y-111809996D03*
X103535517Y-111457222D03*
X104943609Y-110923760D03*
X106273737Y-110218025D03*
X107504925Y-109351145D03*
X108617755Y-108336792D03*
X109594679Y-107190962D03*
X110420289Y-105931727D03*
X111081564Y-104578945D03*
X111568077Y-103153951D03*
X111872154Y-101679217D03*
X111989000Y-100178000D03*
X111916772Y-98673976D03*
X111656610Y-97190865D03*
X111212616Y-95752055D03*
X110591793Y-94380238D03*
X109803931Y-93097048D03*
X108861454Y-91922721D03*
X107779228Y-90875778D03*
X106574318Y-89972730D03*
X105265727Y-89227817D03*
X103874093Y-88652788D03*
X102421362Y-88256712D03*
X100930444Y-88045834D03*
X99424853Y-88023481D03*
X97928333Y-88190004D03*
X96464483Y-88542778D03*
X95056391Y-89076240D03*
X93726263Y-89781975D03*
X92495075Y-90648855D03*
X91382245Y-91663208D03*
X90405321Y-92809038D03*
X89579711Y-94068273D03*
X88918436Y-95421055D03*
X88431923Y-96846049D03*
X88127846Y-98320783D03*
M02*
