G04 #@! TF.GenerationSoftware,KiCad,Pcbnew,(5.1.2)-2*
G04 #@! TF.CreationDate,2019-08-09T02:38:32-07:00*
G04 #@! TF.ProjectId,noncontact_electrode,6e6f6e63-6f6e-4746-9163-745f656c6563,rev?*
G04 #@! TF.SameCoordinates,Original*
G04 #@! TF.FileFunction,Copper,L1,Top*
G04 #@! TF.FilePolarity,Positive*
%FSLAX46Y46*%
G04 Gerber Fmt 4.6, Leading zero omitted, Abs format (unit mm)*
G04 Created by KiCad (PCBNEW (5.1.2)-2) date 2019-08-09 02:38:32*
%MOMM*%
%LPD*%
G04 APERTURE LIST*
%ADD10R,1.800000X1.000000*%
%ADD11R,1.981200X0.558800*%
%ADD12C,0.100000*%
%ADD13C,0.590000*%
%ADD14C,0.800000*%
%ADD15C,0.250000*%
G04 APERTURE END LIST*
D10*
X97536000Y-103505000D03*
X101219000Y-96774000D03*
D11*
X102412800Y-98171000D03*
X102412800Y-99441000D03*
X102412800Y-100711000D03*
X102412800Y-101981000D03*
X97485200Y-101981000D03*
X97485200Y-100711000D03*
X97485200Y-99441000D03*
X97485200Y-98171000D03*
D12*
G36*
X104453958Y-99123710D02*
G01*
X104468276Y-99125834D01*
X104482317Y-99129351D01*
X104495946Y-99134228D01*
X104509031Y-99140417D01*
X104521447Y-99147858D01*
X104533073Y-99156481D01*
X104543798Y-99166202D01*
X104553519Y-99176927D01*
X104562142Y-99188553D01*
X104569583Y-99200969D01*
X104575772Y-99214054D01*
X104580649Y-99227683D01*
X104584166Y-99241724D01*
X104586290Y-99256042D01*
X104587000Y-99270500D01*
X104587000Y-99565500D01*
X104586290Y-99579958D01*
X104584166Y-99594276D01*
X104580649Y-99608317D01*
X104575772Y-99621946D01*
X104569583Y-99635031D01*
X104562142Y-99647447D01*
X104553519Y-99659073D01*
X104543798Y-99669798D01*
X104533073Y-99679519D01*
X104521447Y-99688142D01*
X104509031Y-99695583D01*
X104495946Y-99701772D01*
X104482317Y-99706649D01*
X104468276Y-99710166D01*
X104453958Y-99712290D01*
X104439500Y-99713000D01*
X104094500Y-99713000D01*
X104080042Y-99712290D01*
X104065724Y-99710166D01*
X104051683Y-99706649D01*
X104038054Y-99701772D01*
X104024969Y-99695583D01*
X104012553Y-99688142D01*
X104000927Y-99679519D01*
X103990202Y-99669798D01*
X103980481Y-99659073D01*
X103971858Y-99647447D01*
X103964417Y-99635031D01*
X103958228Y-99621946D01*
X103953351Y-99608317D01*
X103949834Y-99594276D01*
X103947710Y-99579958D01*
X103947000Y-99565500D01*
X103947000Y-99270500D01*
X103947710Y-99256042D01*
X103949834Y-99241724D01*
X103953351Y-99227683D01*
X103958228Y-99214054D01*
X103964417Y-99200969D01*
X103971858Y-99188553D01*
X103980481Y-99176927D01*
X103990202Y-99166202D01*
X104000927Y-99156481D01*
X104012553Y-99147858D01*
X104024969Y-99140417D01*
X104038054Y-99134228D01*
X104051683Y-99129351D01*
X104065724Y-99125834D01*
X104080042Y-99123710D01*
X104094500Y-99123000D01*
X104439500Y-99123000D01*
X104453958Y-99123710D01*
X104453958Y-99123710D01*
G37*
D13*
X104267000Y-99418000D03*
D12*
G36*
X104453958Y-98153710D02*
G01*
X104468276Y-98155834D01*
X104482317Y-98159351D01*
X104495946Y-98164228D01*
X104509031Y-98170417D01*
X104521447Y-98177858D01*
X104533073Y-98186481D01*
X104543798Y-98196202D01*
X104553519Y-98206927D01*
X104562142Y-98218553D01*
X104569583Y-98230969D01*
X104575772Y-98244054D01*
X104580649Y-98257683D01*
X104584166Y-98271724D01*
X104586290Y-98286042D01*
X104587000Y-98300500D01*
X104587000Y-98595500D01*
X104586290Y-98609958D01*
X104584166Y-98624276D01*
X104580649Y-98638317D01*
X104575772Y-98651946D01*
X104569583Y-98665031D01*
X104562142Y-98677447D01*
X104553519Y-98689073D01*
X104543798Y-98699798D01*
X104533073Y-98709519D01*
X104521447Y-98718142D01*
X104509031Y-98725583D01*
X104495946Y-98731772D01*
X104482317Y-98736649D01*
X104468276Y-98740166D01*
X104453958Y-98742290D01*
X104439500Y-98743000D01*
X104094500Y-98743000D01*
X104080042Y-98742290D01*
X104065724Y-98740166D01*
X104051683Y-98736649D01*
X104038054Y-98731772D01*
X104024969Y-98725583D01*
X104012553Y-98718142D01*
X104000927Y-98709519D01*
X103990202Y-98699798D01*
X103980481Y-98689073D01*
X103971858Y-98677447D01*
X103964417Y-98665031D01*
X103958228Y-98651946D01*
X103953351Y-98638317D01*
X103949834Y-98624276D01*
X103947710Y-98609958D01*
X103947000Y-98595500D01*
X103947000Y-98300500D01*
X103947710Y-98286042D01*
X103949834Y-98271724D01*
X103953351Y-98257683D01*
X103958228Y-98244054D01*
X103964417Y-98230969D01*
X103971858Y-98218553D01*
X103980481Y-98206927D01*
X103990202Y-98196202D01*
X104000927Y-98186481D01*
X104012553Y-98177858D01*
X104024969Y-98170417D01*
X104038054Y-98164228D01*
X104051683Y-98159351D01*
X104065724Y-98155834D01*
X104080042Y-98153710D01*
X104094500Y-98153000D01*
X104439500Y-98153000D01*
X104453958Y-98153710D01*
X104453958Y-98153710D01*
G37*
D13*
X104267000Y-98448000D03*
D12*
G36*
X104453958Y-102679710D02*
G01*
X104468276Y-102681834D01*
X104482317Y-102685351D01*
X104495946Y-102690228D01*
X104509031Y-102696417D01*
X104521447Y-102703858D01*
X104533073Y-102712481D01*
X104543798Y-102722202D01*
X104553519Y-102732927D01*
X104562142Y-102744553D01*
X104569583Y-102756969D01*
X104575772Y-102770054D01*
X104580649Y-102783683D01*
X104584166Y-102797724D01*
X104586290Y-102812042D01*
X104587000Y-102826500D01*
X104587000Y-103121500D01*
X104586290Y-103135958D01*
X104584166Y-103150276D01*
X104580649Y-103164317D01*
X104575772Y-103177946D01*
X104569583Y-103191031D01*
X104562142Y-103203447D01*
X104553519Y-103215073D01*
X104543798Y-103225798D01*
X104533073Y-103235519D01*
X104521447Y-103244142D01*
X104509031Y-103251583D01*
X104495946Y-103257772D01*
X104482317Y-103262649D01*
X104468276Y-103266166D01*
X104453958Y-103268290D01*
X104439500Y-103269000D01*
X104094500Y-103269000D01*
X104080042Y-103268290D01*
X104065724Y-103266166D01*
X104051683Y-103262649D01*
X104038054Y-103257772D01*
X104024969Y-103251583D01*
X104012553Y-103244142D01*
X104000927Y-103235519D01*
X103990202Y-103225798D01*
X103980481Y-103215073D01*
X103971858Y-103203447D01*
X103964417Y-103191031D01*
X103958228Y-103177946D01*
X103953351Y-103164317D01*
X103949834Y-103150276D01*
X103947710Y-103135958D01*
X103947000Y-103121500D01*
X103947000Y-102826500D01*
X103947710Y-102812042D01*
X103949834Y-102797724D01*
X103953351Y-102783683D01*
X103958228Y-102770054D01*
X103964417Y-102756969D01*
X103971858Y-102744553D01*
X103980481Y-102732927D01*
X103990202Y-102722202D01*
X104000927Y-102712481D01*
X104012553Y-102703858D01*
X104024969Y-102696417D01*
X104038054Y-102690228D01*
X104051683Y-102685351D01*
X104065724Y-102681834D01*
X104080042Y-102679710D01*
X104094500Y-102679000D01*
X104439500Y-102679000D01*
X104453958Y-102679710D01*
X104453958Y-102679710D01*
G37*
D13*
X104267000Y-102974000D03*
D12*
G36*
X104453958Y-101709710D02*
G01*
X104468276Y-101711834D01*
X104482317Y-101715351D01*
X104495946Y-101720228D01*
X104509031Y-101726417D01*
X104521447Y-101733858D01*
X104533073Y-101742481D01*
X104543798Y-101752202D01*
X104553519Y-101762927D01*
X104562142Y-101774553D01*
X104569583Y-101786969D01*
X104575772Y-101800054D01*
X104580649Y-101813683D01*
X104584166Y-101827724D01*
X104586290Y-101842042D01*
X104587000Y-101856500D01*
X104587000Y-102151500D01*
X104586290Y-102165958D01*
X104584166Y-102180276D01*
X104580649Y-102194317D01*
X104575772Y-102207946D01*
X104569583Y-102221031D01*
X104562142Y-102233447D01*
X104553519Y-102245073D01*
X104543798Y-102255798D01*
X104533073Y-102265519D01*
X104521447Y-102274142D01*
X104509031Y-102281583D01*
X104495946Y-102287772D01*
X104482317Y-102292649D01*
X104468276Y-102296166D01*
X104453958Y-102298290D01*
X104439500Y-102299000D01*
X104094500Y-102299000D01*
X104080042Y-102298290D01*
X104065724Y-102296166D01*
X104051683Y-102292649D01*
X104038054Y-102287772D01*
X104024969Y-102281583D01*
X104012553Y-102274142D01*
X104000927Y-102265519D01*
X103990202Y-102255798D01*
X103980481Y-102245073D01*
X103971858Y-102233447D01*
X103964417Y-102221031D01*
X103958228Y-102207946D01*
X103953351Y-102194317D01*
X103949834Y-102180276D01*
X103947710Y-102165958D01*
X103947000Y-102151500D01*
X103947000Y-101856500D01*
X103947710Y-101842042D01*
X103949834Y-101827724D01*
X103953351Y-101813683D01*
X103958228Y-101800054D01*
X103964417Y-101786969D01*
X103971858Y-101774553D01*
X103980481Y-101762927D01*
X103990202Y-101752202D01*
X104000927Y-101742481D01*
X104012553Y-101733858D01*
X104024969Y-101726417D01*
X104038054Y-101720228D01*
X104051683Y-101715351D01*
X104065724Y-101711834D01*
X104080042Y-101709710D01*
X104094500Y-101709000D01*
X104439500Y-101709000D01*
X104453958Y-101709710D01*
X104453958Y-101709710D01*
G37*
D13*
X104267000Y-102004000D03*
D12*
G36*
X95436958Y-98176710D02*
G01*
X95451276Y-98178834D01*
X95465317Y-98182351D01*
X95478946Y-98187228D01*
X95492031Y-98193417D01*
X95504447Y-98200858D01*
X95516073Y-98209481D01*
X95526798Y-98219202D01*
X95536519Y-98229927D01*
X95545142Y-98241553D01*
X95552583Y-98253969D01*
X95558772Y-98267054D01*
X95563649Y-98280683D01*
X95567166Y-98294724D01*
X95569290Y-98309042D01*
X95570000Y-98323500D01*
X95570000Y-98618500D01*
X95569290Y-98632958D01*
X95567166Y-98647276D01*
X95563649Y-98661317D01*
X95558772Y-98674946D01*
X95552583Y-98688031D01*
X95545142Y-98700447D01*
X95536519Y-98712073D01*
X95526798Y-98722798D01*
X95516073Y-98732519D01*
X95504447Y-98741142D01*
X95492031Y-98748583D01*
X95478946Y-98754772D01*
X95465317Y-98759649D01*
X95451276Y-98763166D01*
X95436958Y-98765290D01*
X95422500Y-98766000D01*
X95077500Y-98766000D01*
X95063042Y-98765290D01*
X95048724Y-98763166D01*
X95034683Y-98759649D01*
X95021054Y-98754772D01*
X95007969Y-98748583D01*
X94995553Y-98741142D01*
X94983927Y-98732519D01*
X94973202Y-98722798D01*
X94963481Y-98712073D01*
X94954858Y-98700447D01*
X94947417Y-98688031D01*
X94941228Y-98674946D01*
X94936351Y-98661317D01*
X94932834Y-98647276D01*
X94930710Y-98632958D01*
X94930000Y-98618500D01*
X94930000Y-98323500D01*
X94930710Y-98309042D01*
X94932834Y-98294724D01*
X94936351Y-98280683D01*
X94941228Y-98267054D01*
X94947417Y-98253969D01*
X94954858Y-98241553D01*
X94963481Y-98229927D01*
X94973202Y-98219202D01*
X94983927Y-98209481D01*
X94995553Y-98200858D01*
X95007969Y-98193417D01*
X95021054Y-98187228D01*
X95034683Y-98182351D01*
X95048724Y-98178834D01*
X95063042Y-98176710D01*
X95077500Y-98176000D01*
X95422500Y-98176000D01*
X95436958Y-98176710D01*
X95436958Y-98176710D01*
G37*
D13*
X95250000Y-98471000D03*
D12*
G36*
X95436958Y-99146710D02*
G01*
X95451276Y-99148834D01*
X95465317Y-99152351D01*
X95478946Y-99157228D01*
X95492031Y-99163417D01*
X95504447Y-99170858D01*
X95516073Y-99179481D01*
X95526798Y-99189202D01*
X95536519Y-99199927D01*
X95545142Y-99211553D01*
X95552583Y-99223969D01*
X95558772Y-99237054D01*
X95563649Y-99250683D01*
X95567166Y-99264724D01*
X95569290Y-99279042D01*
X95570000Y-99293500D01*
X95570000Y-99588500D01*
X95569290Y-99602958D01*
X95567166Y-99617276D01*
X95563649Y-99631317D01*
X95558772Y-99644946D01*
X95552583Y-99658031D01*
X95545142Y-99670447D01*
X95536519Y-99682073D01*
X95526798Y-99692798D01*
X95516073Y-99702519D01*
X95504447Y-99711142D01*
X95492031Y-99718583D01*
X95478946Y-99724772D01*
X95465317Y-99729649D01*
X95451276Y-99733166D01*
X95436958Y-99735290D01*
X95422500Y-99736000D01*
X95077500Y-99736000D01*
X95063042Y-99735290D01*
X95048724Y-99733166D01*
X95034683Y-99729649D01*
X95021054Y-99724772D01*
X95007969Y-99718583D01*
X94995553Y-99711142D01*
X94983927Y-99702519D01*
X94973202Y-99692798D01*
X94963481Y-99682073D01*
X94954858Y-99670447D01*
X94947417Y-99658031D01*
X94941228Y-99644946D01*
X94936351Y-99631317D01*
X94932834Y-99617276D01*
X94930710Y-99602958D01*
X94930000Y-99588500D01*
X94930000Y-99293500D01*
X94930710Y-99279042D01*
X94932834Y-99264724D01*
X94936351Y-99250683D01*
X94941228Y-99237054D01*
X94947417Y-99223969D01*
X94954858Y-99211553D01*
X94963481Y-99199927D01*
X94973202Y-99189202D01*
X94983927Y-99179481D01*
X94995553Y-99170858D01*
X95007969Y-99163417D01*
X95021054Y-99157228D01*
X95034683Y-99152351D01*
X95048724Y-99148834D01*
X95063042Y-99146710D01*
X95077500Y-99146000D01*
X95422500Y-99146000D01*
X95436958Y-99146710D01*
X95436958Y-99146710D01*
G37*
D13*
X95250000Y-99441000D03*
D10*
X103759000Y-96774000D03*
X102489000Y-103505000D03*
D12*
G36*
X98505958Y-96200710D02*
G01*
X98520276Y-96202834D01*
X98534317Y-96206351D01*
X98547946Y-96211228D01*
X98561031Y-96217417D01*
X98573447Y-96224858D01*
X98585073Y-96233481D01*
X98595798Y-96243202D01*
X98605519Y-96253927D01*
X98614142Y-96265553D01*
X98621583Y-96277969D01*
X98627772Y-96291054D01*
X98632649Y-96304683D01*
X98636166Y-96318724D01*
X98638290Y-96333042D01*
X98639000Y-96347500D01*
X98639000Y-96692500D01*
X98638290Y-96706958D01*
X98636166Y-96721276D01*
X98632649Y-96735317D01*
X98627772Y-96748946D01*
X98621583Y-96762031D01*
X98614142Y-96774447D01*
X98605519Y-96786073D01*
X98595798Y-96796798D01*
X98585073Y-96806519D01*
X98573447Y-96815142D01*
X98561031Y-96822583D01*
X98547946Y-96828772D01*
X98534317Y-96833649D01*
X98520276Y-96837166D01*
X98505958Y-96839290D01*
X98491500Y-96840000D01*
X98196500Y-96840000D01*
X98182042Y-96839290D01*
X98167724Y-96837166D01*
X98153683Y-96833649D01*
X98140054Y-96828772D01*
X98126969Y-96822583D01*
X98114553Y-96815142D01*
X98102927Y-96806519D01*
X98092202Y-96796798D01*
X98082481Y-96786073D01*
X98073858Y-96774447D01*
X98066417Y-96762031D01*
X98060228Y-96748946D01*
X98055351Y-96735317D01*
X98051834Y-96721276D01*
X98049710Y-96706958D01*
X98049000Y-96692500D01*
X98049000Y-96347500D01*
X98049710Y-96333042D01*
X98051834Y-96318724D01*
X98055351Y-96304683D01*
X98060228Y-96291054D01*
X98066417Y-96277969D01*
X98073858Y-96265553D01*
X98082481Y-96253927D01*
X98092202Y-96243202D01*
X98102927Y-96233481D01*
X98114553Y-96224858D01*
X98126969Y-96217417D01*
X98140054Y-96211228D01*
X98153683Y-96206351D01*
X98167724Y-96202834D01*
X98182042Y-96200710D01*
X98196500Y-96200000D01*
X98491500Y-96200000D01*
X98505958Y-96200710D01*
X98505958Y-96200710D01*
G37*
D13*
X98344000Y-96520000D03*
D12*
G36*
X99475958Y-96200710D02*
G01*
X99490276Y-96202834D01*
X99504317Y-96206351D01*
X99517946Y-96211228D01*
X99531031Y-96217417D01*
X99543447Y-96224858D01*
X99555073Y-96233481D01*
X99565798Y-96243202D01*
X99575519Y-96253927D01*
X99584142Y-96265553D01*
X99591583Y-96277969D01*
X99597772Y-96291054D01*
X99602649Y-96304683D01*
X99606166Y-96318724D01*
X99608290Y-96333042D01*
X99609000Y-96347500D01*
X99609000Y-96692500D01*
X99608290Y-96706958D01*
X99606166Y-96721276D01*
X99602649Y-96735317D01*
X99597772Y-96748946D01*
X99591583Y-96762031D01*
X99584142Y-96774447D01*
X99575519Y-96786073D01*
X99565798Y-96796798D01*
X99555073Y-96806519D01*
X99543447Y-96815142D01*
X99531031Y-96822583D01*
X99517946Y-96828772D01*
X99504317Y-96833649D01*
X99490276Y-96837166D01*
X99475958Y-96839290D01*
X99461500Y-96840000D01*
X99166500Y-96840000D01*
X99152042Y-96839290D01*
X99137724Y-96837166D01*
X99123683Y-96833649D01*
X99110054Y-96828772D01*
X99096969Y-96822583D01*
X99084553Y-96815142D01*
X99072927Y-96806519D01*
X99062202Y-96796798D01*
X99052481Y-96786073D01*
X99043858Y-96774447D01*
X99036417Y-96762031D01*
X99030228Y-96748946D01*
X99025351Y-96735317D01*
X99021834Y-96721276D01*
X99019710Y-96706958D01*
X99019000Y-96692500D01*
X99019000Y-96347500D01*
X99019710Y-96333042D01*
X99021834Y-96318724D01*
X99025351Y-96304683D01*
X99030228Y-96291054D01*
X99036417Y-96277969D01*
X99043858Y-96265553D01*
X99052481Y-96253927D01*
X99062202Y-96243202D01*
X99072927Y-96233481D01*
X99084553Y-96224858D01*
X99096969Y-96217417D01*
X99110054Y-96211228D01*
X99123683Y-96206351D01*
X99137724Y-96202834D01*
X99152042Y-96200710D01*
X99166500Y-96200000D01*
X99461500Y-96200000D01*
X99475958Y-96200710D01*
X99475958Y-96200710D01*
G37*
D13*
X99314000Y-96520000D03*
D12*
G36*
X95436958Y-101409710D02*
G01*
X95451276Y-101411834D01*
X95465317Y-101415351D01*
X95478946Y-101420228D01*
X95492031Y-101426417D01*
X95504447Y-101433858D01*
X95516073Y-101442481D01*
X95526798Y-101452202D01*
X95536519Y-101462927D01*
X95545142Y-101474553D01*
X95552583Y-101486969D01*
X95558772Y-101500054D01*
X95563649Y-101513683D01*
X95567166Y-101527724D01*
X95569290Y-101542042D01*
X95570000Y-101556500D01*
X95570000Y-101851500D01*
X95569290Y-101865958D01*
X95567166Y-101880276D01*
X95563649Y-101894317D01*
X95558772Y-101907946D01*
X95552583Y-101921031D01*
X95545142Y-101933447D01*
X95536519Y-101945073D01*
X95526798Y-101955798D01*
X95516073Y-101965519D01*
X95504447Y-101974142D01*
X95492031Y-101981583D01*
X95478946Y-101987772D01*
X95465317Y-101992649D01*
X95451276Y-101996166D01*
X95436958Y-101998290D01*
X95422500Y-101999000D01*
X95077500Y-101999000D01*
X95063042Y-101998290D01*
X95048724Y-101996166D01*
X95034683Y-101992649D01*
X95021054Y-101987772D01*
X95007969Y-101981583D01*
X94995553Y-101974142D01*
X94983927Y-101965519D01*
X94973202Y-101955798D01*
X94963481Y-101945073D01*
X94954858Y-101933447D01*
X94947417Y-101921031D01*
X94941228Y-101907946D01*
X94936351Y-101894317D01*
X94932834Y-101880276D01*
X94930710Y-101865958D01*
X94930000Y-101851500D01*
X94930000Y-101556500D01*
X94930710Y-101542042D01*
X94932834Y-101527724D01*
X94936351Y-101513683D01*
X94941228Y-101500054D01*
X94947417Y-101486969D01*
X94954858Y-101474553D01*
X94963481Y-101462927D01*
X94973202Y-101452202D01*
X94983927Y-101442481D01*
X94995553Y-101433858D01*
X95007969Y-101426417D01*
X95021054Y-101420228D01*
X95034683Y-101415351D01*
X95048724Y-101411834D01*
X95063042Y-101409710D01*
X95077500Y-101409000D01*
X95422500Y-101409000D01*
X95436958Y-101409710D01*
X95436958Y-101409710D01*
G37*
D13*
X95250000Y-101704000D03*
D12*
G36*
X95436958Y-100439710D02*
G01*
X95451276Y-100441834D01*
X95465317Y-100445351D01*
X95478946Y-100450228D01*
X95492031Y-100456417D01*
X95504447Y-100463858D01*
X95516073Y-100472481D01*
X95526798Y-100482202D01*
X95536519Y-100492927D01*
X95545142Y-100504553D01*
X95552583Y-100516969D01*
X95558772Y-100530054D01*
X95563649Y-100543683D01*
X95567166Y-100557724D01*
X95569290Y-100572042D01*
X95570000Y-100586500D01*
X95570000Y-100881500D01*
X95569290Y-100895958D01*
X95567166Y-100910276D01*
X95563649Y-100924317D01*
X95558772Y-100937946D01*
X95552583Y-100951031D01*
X95545142Y-100963447D01*
X95536519Y-100975073D01*
X95526798Y-100985798D01*
X95516073Y-100995519D01*
X95504447Y-101004142D01*
X95492031Y-101011583D01*
X95478946Y-101017772D01*
X95465317Y-101022649D01*
X95451276Y-101026166D01*
X95436958Y-101028290D01*
X95422500Y-101029000D01*
X95077500Y-101029000D01*
X95063042Y-101028290D01*
X95048724Y-101026166D01*
X95034683Y-101022649D01*
X95021054Y-101017772D01*
X95007969Y-101011583D01*
X94995553Y-101004142D01*
X94983927Y-100995519D01*
X94973202Y-100985798D01*
X94963481Y-100975073D01*
X94954858Y-100963447D01*
X94947417Y-100951031D01*
X94941228Y-100937946D01*
X94936351Y-100924317D01*
X94932834Y-100910276D01*
X94930710Y-100895958D01*
X94930000Y-100881500D01*
X94930000Y-100586500D01*
X94930710Y-100572042D01*
X94932834Y-100557724D01*
X94936351Y-100543683D01*
X94941228Y-100530054D01*
X94947417Y-100516969D01*
X94954858Y-100504553D01*
X94963481Y-100492927D01*
X94973202Y-100482202D01*
X94983927Y-100472481D01*
X94995553Y-100463858D01*
X95007969Y-100456417D01*
X95021054Y-100450228D01*
X95034683Y-100445351D01*
X95048724Y-100441834D01*
X95063042Y-100439710D01*
X95077500Y-100439000D01*
X95422500Y-100439000D01*
X95436958Y-100439710D01*
X95436958Y-100439710D01*
G37*
D13*
X95250000Y-100734000D03*
D14*
X95250000Y-98425000D03*
X95250000Y-101727000D03*
X88011000Y-99822000D03*
X88083228Y-101326024D03*
X88343390Y-102809135D03*
X88787384Y-104247945D03*
X89408207Y-105619762D03*
X90196069Y-106902952D03*
X91138546Y-108077279D03*
X92220772Y-109124222D03*
X93425682Y-110027270D03*
X94734273Y-110772183D03*
X96125907Y-111347212D03*
X97578638Y-111743288D03*
X99069556Y-111954166D03*
X100575147Y-111976519D03*
X102071667Y-111809996D03*
X103535517Y-111457222D03*
X104943609Y-110923760D03*
X106273737Y-110218025D03*
X107504925Y-109351145D03*
X108617755Y-108336792D03*
X109594679Y-107190962D03*
X110420289Y-105931727D03*
X111081564Y-104578945D03*
X111568077Y-103153951D03*
X111872154Y-101679217D03*
X111989000Y-100178000D03*
X111916772Y-98673976D03*
X111656610Y-97190865D03*
X111212616Y-95752055D03*
X110591793Y-94380238D03*
X109803931Y-93097048D03*
X108861454Y-91922721D03*
X107779228Y-90875778D03*
X106574318Y-89972730D03*
X105265727Y-89227817D03*
X103874093Y-88652788D03*
X102421362Y-88256712D03*
X100930444Y-88045834D03*
X99424853Y-88023481D03*
X97928333Y-88190004D03*
X96464483Y-88542778D03*
X95056391Y-89076240D03*
X93726263Y-89781975D03*
X92495075Y-90648855D03*
X91382245Y-91663208D03*
X90405321Y-92809038D03*
X89579711Y-94068273D03*
X88918436Y-95421055D03*
X88431923Y-96846049D03*
X88127846Y-98320783D03*
D15*
X95273000Y-100711000D02*
X95250000Y-100734000D01*
X97485200Y-100711000D02*
X95273000Y-100711000D01*
X95250000Y-99441000D02*
X97485200Y-99441000D01*
X97485200Y-98171000D02*
X97485200Y-99441000D01*
X97485200Y-97378800D02*
X98344000Y-96520000D01*
X97485200Y-98171000D02*
X97485200Y-97378800D01*
X101701600Y-101981000D02*
X102412800Y-101981000D01*
X99314000Y-99593400D02*
X101701600Y-101981000D01*
X99314000Y-96520000D02*
X99314000Y-99593400D01*
X104244000Y-101981000D02*
X104267000Y-102004000D01*
X102412800Y-101981000D02*
X104244000Y-101981000D01*
X103020000Y-102974000D02*
X102489000Y-103505000D01*
X104267000Y-102974000D02*
X103020000Y-102974000D01*
X103759000Y-96774000D02*
X103759000Y-96901000D01*
X103759000Y-96901000D02*
X104267000Y-97409000D01*
X104267000Y-97409000D02*
X104267000Y-98448000D01*
X104244000Y-99441000D02*
X104267000Y-99418000D01*
X102412800Y-99441000D02*
X104244000Y-99441000D01*
X102412800Y-100711000D02*
X102412800Y-99441000D01*
X101219000Y-96977200D02*
X102412800Y-98171000D01*
X101219000Y-96774000D02*
X101219000Y-96977200D01*
X97485200Y-103454200D02*
X97536000Y-103505000D01*
X97485200Y-101981000D02*
X97485200Y-103454200D01*
M02*
