G04 #@! TF.GenerationSoftware,KiCad,Pcbnew,(5.1.2)-2*
G04 #@! TF.CreationDate,2019-08-09T02:38:33-07:00*
G04 #@! TF.ProjectId,noncontact_electrode,6e6f6e63-6f6e-4746-9163-745f656c6563,rev?*
G04 #@! TF.SameCoordinates,Original*
G04 #@! TF.FileFunction,Legend,Top*
G04 #@! TF.FilePolarity,Positive*
%FSLAX46Y46*%
G04 Gerber Fmt 4.6, Leading zero omitted, Abs format (unit mm)*
G04 Created by KiCad (PCBNEW (5.1.2)-2) date 2019-08-09 02:38:33*
%MOMM*%
%LPD*%
G04 APERTURE LIST*
%ADD10C,0.100000*%
%ADD11C,0.152400*%
%ADD12C,0.150000*%
%ADD13C,0.050000*%
G04 APERTURE END LIST*
D10*
X98486000Y-102955000D02*
X98236000Y-102955000D01*
X98486000Y-102955000D02*
X98486000Y-103205000D01*
X96586000Y-102955000D02*
X96836000Y-102955000D01*
X96586000Y-102955000D02*
X96586000Y-103205000D01*
X96586000Y-104055000D02*
X96586000Y-103805000D01*
X96586000Y-104055000D02*
X96836000Y-104055000D01*
X98486000Y-104055000D02*
X98236000Y-104055000D01*
X98486000Y-104055000D02*
X98486000Y-103805000D01*
X102169000Y-96224000D02*
X101919000Y-96224000D01*
X102169000Y-96224000D02*
X102169000Y-96474000D01*
X100269000Y-96224000D02*
X100519000Y-96224000D01*
X100269000Y-96224000D02*
X100269000Y-96474000D01*
X100269000Y-97324000D02*
X100269000Y-97074000D01*
X100269000Y-97324000D02*
X100519000Y-97324000D01*
X102169000Y-97324000D02*
X101919000Y-97324000D01*
X102169000Y-97324000D02*
X102169000Y-97074000D01*
X100253800Y-97561400D02*
G75*
G02X99644200Y-97586800I-304800J-12700D01*
G01*
D11*
X99644200Y-97586800D02*
X98577400Y-97586800D01*
X101320600Y-97586800D02*
X99644200Y-97586800D01*
X98577400Y-102565200D02*
X101320600Y-102565200D01*
D10*
X104709000Y-96224000D02*
X104459000Y-96224000D01*
X104709000Y-96224000D02*
X104709000Y-96474000D01*
X102809000Y-96224000D02*
X103059000Y-96224000D01*
X102809000Y-96224000D02*
X102809000Y-96474000D01*
X102809000Y-97324000D02*
X102809000Y-97074000D01*
X102809000Y-97324000D02*
X103059000Y-97324000D01*
X104709000Y-97324000D02*
X104459000Y-97324000D01*
X104709000Y-97324000D02*
X104709000Y-97074000D01*
X103439000Y-102955000D02*
X103189000Y-102955000D01*
X103439000Y-102955000D02*
X103439000Y-103205000D01*
X101539000Y-102955000D02*
X101789000Y-102955000D01*
X101539000Y-102955000D02*
X101539000Y-103205000D01*
X101539000Y-104055000D02*
X101539000Y-103805000D01*
X101539000Y-104055000D02*
X101789000Y-104055000D01*
X103439000Y-104055000D02*
X103189000Y-104055000D01*
X103439000Y-104055000D02*
X103439000Y-103805000D01*
D12*
X96416952Y-104529000D02*
X96321714Y-104481380D01*
X96178857Y-104481380D01*
X96036000Y-104529000D01*
X95940761Y-104624238D01*
X95893142Y-104719476D01*
X95845523Y-104909952D01*
X95845523Y-105052809D01*
X95893142Y-105243285D01*
X95940761Y-105338523D01*
X96036000Y-105433761D01*
X96178857Y-105481380D01*
X96274095Y-105481380D01*
X96416952Y-105433761D01*
X96464571Y-105386142D01*
X96464571Y-105052809D01*
X96274095Y-105052809D01*
X96893142Y-104814714D02*
X96893142Y-105481380D01*
X96893142Y-104909952D02*
X96940761Y-104862333D01*
X97036000Y-104814714D01*
X97178857Y-104814714D01*
X97274095Y-104862333D01*
X97321714Y-104957571D01*
X97321714Y-105481380D01*
X98226476Y-105481380D02*
X98226476Y-104481380D01*
X98226476Y-105433761D02*
X98131238Y-105481380D01*
X97940761Y-105481380D01*
X97845523Y-105433761D01*
X97797904Y-105386142D01*
X97750285Y-105290904D01*
X97750285Y-105005190D01*
X97797904Y-104909952D01*
X97845523Y-104862333D01*
X97940761Y-104814714D01*
X98131238Y-104814714D01*
X98226476Y-104862333D01*
X99226476Y-105481380D02*
X98655047Y-105481380D01*
X98940761Y-105481380D02*
X98940761Y-104481380D01*
X98845523Y-104624238D01*
X98750285Y-104719476D01*
X98655047Y-104767095D01*
X99552333Y-94626380D02*
X99885666Y-95626380D01*
X100219000Y-94626380D01*
X100980904Y-95578761D02*
X100885666Y-95626380D01*
X100695190Y-95626380D01*
X100599952Y-95578761D01*
X100552333Y-95531142D01*
X100504714Y-95435904D01*
X100504714Y-95150190D01*
X100552333Y-95054952D01*
X100599952Y-95007333D01*
X100695190Y-94959714D01*
X100885666Y-94959714D01*
X100980904Y-95007333D01*
X101838047Y-95578761D02*
X101742809Y-95626380D01*
X101552333Y-95626380D01*
X101457095Y-95578761D01*
X101409476Y-95531142D01*
X101361857Y-95435904D01*
X101361857Y-95150190D01*
X101409476Y-95054952D01*
X101457095Y-95007333D01*
X101552333Y-94959714D01*
X101742809Y-94959714D01*
X101838047Y-95007333D01*
X102790428Y-95626380D02*
X102219000Y-95626380D01*
X102504714Y-95626380D02*
X102504714Y-94626380D01*
X102409476Y-94769238D01*
X102314238Y-94864476D01*
X102219000Y-94912095D01*
D13*
X94761790Y-95748411D02*
X94761790Y-97076759D01*
X94839928Y-97233035D01*
X94918066Y-97311173D01*
X95074342Y-97389311D01*
X95386895Y-97389311D01*
X95543171Y-97311173D01*
X95621309Y-97233035D01*
X95699447Y-97076759D01*
X95699447Y-95748411D01*
X97340347Y-97389311D02*
X96402690Y-97389311D01*
X96871519Y-97389311D02*
X96871519Y-95748411D01*
X96715242Y-95982826D01*
X96558966Y-96139102D01*
X96402690Y-96217240D01*
X93822628Y-107803587D02*
X93040957Y-107803587D01*
X93040957Y-106162077D01*
X94369798Y-107803587D02*
X94369798Y-106162077D01*
X94916968Y-107334585D01*
X95464138Y-106162077D01*
X95464138Y-107803587D01*
X96245810Y-107803587D02*
X96245810Y-106162077D01*
X96871147Y-106162077D01*
X97027481Y-106240245D01*
X97105648Y-106318412D01*
X97183815Y-106474746D01*
X97183815Y-106709247D01*
X97105648Y-106865582D01*
X97027481Y-106943749D01*
X96871147Y-107021916D01*
X96245810Y-107021916D01*
X97730985Y-106162077D02*
X98825325Y-106162077D01*
X98121821Y-107803587D01*
X99294328Y-106162077D02*
X100388668Y-106162077D01*
X99685164Y-107803587D01*
X101326674Y-106162077D02*
X101483008Y-106162077D01*
X101639342Y-106240245D01*
X101717510Y-106318412D01*
X101795677Y-106474746D01*
X101873844Y-106787415D01*
X101873844Y-107178250D01*
X101795677Y-107490919D01*
X101717510Y-107647253D01*
X101639342Y-107725420D01*
X101483008Y-107803587D01*
X101326674Y-107803587D01*
X101170340Y-107725420D01*
X101092172Y-107647253D01*
X101014005Y-107490919D01*
X100935838Y-107178250D01*
X100935838Y-106787415D01*
X101014005Y-106474746D01*
X101092172Y-106318412D01*
X101170340Y-106240245D01*
X101326674Y-106162077D01*
X102499181Y-106318412D02*
X102577348Y-106240245D01*
X102733682Y-106162077D01*
X103124518Y-106162077D01*
X103280852Y-106240245D01*
X103359020Y-106318412D01*
X103437187Y-106474746D01*
X103437187Y-106631080D01*
X103359020Y-106865582D01*
X102421014Y-107803587D01*
X103437187Y-107803587D01*
X104140691Y-107803587D02*
X104140691Y-106162077D01*
X104687861Y-107334585D01*
X105235031Y-106162077D01*
X105235031Y-107803587D01*
X106016702Y-107803587D02*
X106016702Y-106162077D01*
X106563872Y-107334585D01*
X107111042Y-106162077D01*
X107111042Y-107803587D01*
D12*
X105889380Y-99099666D02*
X105413190Y-99433000D01*
X105889380Y-99671095D02*
X104889380Y-99671095D01*
X104889380Y-99290142D01*
X104937000Y-99194904D01*
X104984619Y-99147285D01*
X105079857Y-99099666D01*
X105222714Y-99099666D01*
X105317952Y-99147285D01*
X105365571Y-99194904D01*
X105413190Y-99290142D01*
X105413190Y-99671095D01*
X104889380Y-98766333D02*
X104889380Y-98147285D01*
X105270333Y-98480619D01*
X105270333Y-98337761D01*
X105317952Y-98242523D01*
X105365571Y-98194904D01*
X105460809Y-98147285D01*
X105698904Y-98147285D01*
X105794142Y-98194904D01*
X105841761Y-98242523D01*
X105889380Y-98337761D01*
X105889380Y-98623476D01*
X105841761Y-98718714D01*
X105794142Y-98766333D01*
X105889380Y-102655666D02*
X105413190Y-102989000D01*
X105889380Y-103227095D02*
X104889380Y-103227095D01*
X104889380Y-102846142D01*
X104937000Y-102750904D01*
X104984619Y-102703285D01*
X105079857Y-102655666D01*
X105222714Y-102655666D01*
X105317952Y-102703285D01*
X105365571Y-102750904D01*
X105413190Y-102846142D01*
X105413190Y-103227095D01*
X104984619Y-102274714D02*
X104937000Y-102227095D01*
X104889380Y-102131857D01*
X104889380Y-101893761D01*
X104937000Y-101798523D01*
X104984619Y-101750904D01*
X105079857Y-101703285D01*
X105175095Y-101703285D01*
X105317952Y-101750904D01*
X105889380Y-102322333D01*
X105889380Y-101703285D01*
X94532380Y-99122666D02*
X94056190Y-99456000D01*
X94532380Y-99694095D02*
X93532380Y-99694095D01*
X93532380Y-99313142D01*
X93580000Y-99217904D01*
X93627619Y-99170285D01*
X93722857Y-99122666D01*
X93865714Y-99122666D01*
X93960952Y-99170285D01*
X94008571Y-99217904D01*
X94056190Y-99313142D01*
X94056190Y-99694095D01*
X94532380Y-98170285D02*
X94532380Y-98741714D01*
X94532380Y-98456000D02*
X93532380Y-98456000D01*
X93675238Y-98551238D01*
X93770476Y-98646476D01*
X93818095Y-98741714D01*
X105370476Y-96226380D02*
X105560952Y-96226380D01*
X105656190Y-96274000D01*
X105751428Y-96369238D01*
X105799047Y-96559714D01*
X105799047Y-96893047D01*
X105751428Y-97083523D01*
X105656190Y-97178761D01*
X105560952Y-97226380D01*
X105370476Y-97226380D01*
X105275238Y-97178761D01*
X105180000Y-97083523D01*
X105132380Y-96893047D01*
X105132380Y-96559714D01*
X105180000Y-96369238D01*
X105275238Y-96274000D01*
X105370476Y-96226380D01*
X106656190Y-96559714D02*
X106656190Y-97226380D01*
X106227619Y-96559714D02*
X106227619Y-97083523D01*
X106275238Y-97178761D01*
X106370476Y-97226380D01*
X106513333Y-97226380D01*
X106608571Y-97178761D01*
X106656190Y-97131142D01*
X106989523Y-96559714D02*
X107370476Y-96559714D01*
X107132380Y-96226380D02*
X107132380Y-97083523D01*
X107180000Y-97178761D01*
X107275238Y-97226380D01*
X107370476Y-97226380D01*
X108227619Y-97226380D02*
X107656190Y-97226380D01*
X107941904Y-97226380D02*
X107941904Y-96226380D01*
X107846666Y-96369238D01*
X107751428Y-96464476D01*
X107656190Y-96512095D01*
X100782666Y-104481380D02*
X101116000Y-105481380D01*
X101449333Y-104481380D01*
X101782666Y-105481380D02*
X101782666Y-104814714D01*
X101782666Y-105005190D02*
X101830285Y-104909952D01*
X101877904Y-104862333D01*
X101973142Y-104814714D01*
X102068380Y-104814714D01*
X102782666Y-105433761D02*
X102687428Y-105481380D01*
X102496952Y-105481380D01*
X102401714Y-105433761D01*
X102354095Y-105338523D01*
X102354095Y-104957571D01*
X102401714Y-104862333D01*
X102496952Y-104814714D01*
X102687428Y-104814714D01*
X102782666Y-104862333D01*
X102830285Y-104957571D01*
X102830285Y-105052809D01*
X102354095Y-105148047D01*
X103116000Y-104814714D02*
X103496952Y-104814714D01*
X103258857Y-105481380D02*
X103258857Y-104624238D01*
X103306476Y-104529000D01*
X103401714Y-104481380D01*
X103496952Y-104481380D01*
X104354095Y-105481380D02*
X103782666Y-105481380D01*
X104068380Y-105481380D02*
X104068380Y-104481380D01*
X103973142Y-104624238D01*
X103877904Y-104719476D01*
X103782666Y-104767095D01*
X98004333Y-95607142D02*
X97956714Y-95654761D01*
X97813857Y-95702380D01*
X97718619Y-95702380D01*
X97575761Y-95654761D01*
X97480523Y-95559523D01*
X97432904Y-95464285D01*
X97385285Y-95273809D01*
X97385285Y-95130952D01*
X97432904Y-94940476D01*
X97480523Y-94845238D01*
X97575761Y-94750000D01*
X97718619Y-94702380D01*
X97813857Y-94702380D01*
X97956714Y-94750000D01*
X98004333Y-94797619D01*
X98385285Y-94797619D02*
X98432904Y-94750000D01*
X98528142Y-94702380D01*
X98766238Y-94702380D01*
X98861476Y-94750000D01*
X98909095Y-94797619D01*
X98956714Y-94892857D01*
X98956714Y-94988095D01*
X98909095Y-95130952D01*
X98337666Y-95702380D01*
X98956714Y-95702380D01*
X94337142Y-101385666D02*
X94384761Y-101433285D01*
X94432380Y-101576142D01*
X94432380Y-101671380D01*
X94384761Y-101814238D01*
X94289523Y-101909476D01*
X94194285Y-101957095D01*
X94003809Y-102004714D01*
X93860952Y-102004714D01*
X93670476Y-101957095D01*
X93575238Y-101909476D01*
X93480000Y-101814238D01*
X93432380Y-101671380D01*
X93432380Y-101576142D01*
X93480000Y-101433285D01*
X93527619Y-101385666D01*
X94432380Y-100433285D02*
X94432380Y-101004714D01*
X94432380Y-100719000D02*
X93432380Y-100719000D01*
X93575238Y-100814238D01*
X93670476Y-100909476D01*
X93718095Y-101004714D01*
M02*
