%MOIN*%
%OFA0B0*%
%FSLAX46Y46*%
%IPPOS*%
%LPD*%
%ADD10C,0.031496062992125991*%
%ADD21C,0.031496062992125991*%
%ADD22C,0.031496062992125991*%
%ADD23C,0.031496062992125991*%
%ADD24C,0.031496062992125991*%
%ADD25C,0.031496062992125991*%
%ADD26C,0.031496062992125991*%
%ADD27C,0.031496062992125991*%
%ADD28C,0.031496062992125991*%
D10*
X-0003425263Y0004448802D02*
X0000324736Y0000573802D03*
X0000039736Y0000518802D03*
X0000042580Y0000459588D03*
X0000052822Y0000401198D03*
X0000070303Y0000344552D03*
X0000094744Y0000290544D03*
X0000125763Y0000240024D03*
X0000162868Y0000193791D03*
X0000205475Y0000152573D03*
X0000252913Y0000117020D03*
X0000304432Y0000087692D03*
X0000359221Y0000065053D03*
X0000416415Y0000049460D03*
X0000475112Y0000041158D03*
X0000534388Y0000040277D03*
X0000593306Y0000046834D03*
X0000650938Y0000060722D03*
X0000706374Y0000081725D03*
X0000758742Y0000109510D03*
X0000807214Y0000143639D03*
X0000851026Y0000183574D03*
X0000889487Y0000228685D03*
X0000921992Y0000278261D03*
X0000948026Y0000331521D03*
X0000967180Y0000387623D03*
X0000979152Y0000445683D03*
X0000983752Y0000504786D03*
X0000980908Y0000564000D03*
X0000970666Y0000622390D03*
X0000953186Y0000679036D03*
X0000928744Y0000733044D03*
X0000897726Y0000783564D03*
X0000860620Y0000829797D03*
X0000818013Y0000871015D03*
X0000770576Y0000906568D03*
X0000719056Y0000935896D03*
X0000664267Y0000958535D03*
X0000607073Y0000974128D03*
X0000548376Y0000982430D03*
X0000489101Y0000983310D03*
X0000430182Y0000976754D03*
X0000372551Y0000962866D03*
X0000317114Y0000941863D03*
X0000264747Y0000914078D03*
X0000216275Y0000879949D03*
X0000172462Y0000840014D03*
X0000134001Y0000794903D03*
X0000101497Y0000745327D03*
X0000075462Y0000692067D03*
X0000056308Y0000635965D03*
X0000044336Y0000577905D03*
X0000324736Y0000443802D03*
G04 next file*
G04 #@! TF.GenerationSoftware,KiCad,Pcbnew,(5.1.2)-2*
G04 #@! TF.CreationDate,2019-08-09T02:38:32-07:00*
G04 #@! TF.ProjectId,noncontact_electrode,6e6f6e63-6f6e-4746-9163-745f656c6563,rev?*
G04 #@! TF.SameCoordinates,Original*
G04 #@! TF.FileFunction,Copper,L3,Inr*
G04 #@! TF.FilePolarity,Positive*
G04 Gerber Fmt 4.6, Leading zero omitted, Abs format (unit mm)*
G04 Created by KiCad (PCBNEW (5.1.2)-2) date 2019-08-09 02:38:32*
G04 APERTURE LIST*
G04 APERTURE END LIST*
D21*
X-0003425263Y0005551131D02*
X0000324736Y0001676131D03*
X0000324736Y0001546131D03*
X0000039736Y0001621131D03*
X0000042580Y0001561917D03*
X0000052822Y0001503527D03*
X0000070303Y0001446881D03*
X0000094744Y0001392872D03*
X0000125763Y0001342353D03*
X0000162868Y0001296120D03*
X0000205475Y0001254902D03*
X0000252913Y0001219348D03*
X0000304432Y0001190021D03*
X0000359221Y0001167382D03*
X0000416415Y0001151789D03*
X0000475112Y0001143486D03*
X0000534388Y0001142606D03*
X0000593306Y0001149162D03*
X0000650938Y0001163051D03*
X0000706374Y0001184054D03*
X0000758742Y0001211838D03*
X0000807214Y0001245968D03*
X0000851026Y0001285903D03*
X0000889487Y0001331014D03*
X0000921992Y0001380590D03*
X0000948026Y0001433849D03*
X0000967180Y0001489952D03*
X0000979152Y0001548012D03*
X0000983752Y0001607115D03*
X0000980908Y0001666329D03*
X0000970666Y0001724719D03*
X0000953186Y0001781365D03*
X0000928744Y0001835373D03*
X0000897726Y0001885893D03*
X0000860620Y0001932126D03*
X0000818013Y0001973344D03*
X0000770576Y0002008897D03*
X0000719056Y0002038225D03*
X0000664267Y0002060863D03*
X0000607073Y0002076457D03*
X0000548376Y0002084759D03*
X0000489101Y0002085639D03*
X0000430182Y0002079083D03*
X0000372551Y0002065195D03*
X0000317114Y0002044192D03*
X0000264747Y0002016407D03*
X0000216275Y0001982278D03*
X0000172462Y0001942343D03*
X0000134001Y0001897232D03*
X0000101497Y0001847655D03*
X0000075462Y0001794396D03*
X0000056308Y0001738294D03*
X0000044336Y0001680234D03*
G04 next file*
G04 #@! TF.GenerationSoftware,KiCad,Pcbnew,(5.1.2)-2*
G04 #@! TF.CreationDate,2019-08-09T02:41:04-07:00*
G04 #@! TF.ProjectId,noncontact_electrode,6e6f6e63-6f6e-4746-9163-745f656c6563,rev?*
G04 #@! TF.SameCoordinates,Original*
G04 #@! TF.FileFunction,Copper,L3,Inr*
G04 #@! TF.FilePolarity,Positive*
G04 Gerber Fmt 4.6, Leading zero omitted, Abs format (unit mm)*
G04 Created by KiCad (PCBNEW (5.1.2)-2) date 2019-08-09 02:41:04*
G04 APERTURE LIST*
G04 APERTURE END LIST*
D22*
X-0003425263Y0006653460D02*
X0000324736Y0002778460D03*
X0000039736Y0002723460D03*
X0000042580Y0002664246D03*
X0000052822Y0002605856D03*
X0000070303Y0002549210D03*
X0000094744Y0002495202D03*
X0000125763Y0002444682D03*
X0000162868Y0002398449D03*
X0000205475Y0002357231D03*
X0000252913Y0002321678D03*
X0000304432Y0002292350D03*
X0000359221Y0002269711D03*
X0000416415Y0002254118D03*
X0000475112Y0002245816D03*
X0000534388Y0002244936D03*
X0000593306Y0002251492D03*
X0000650938Y0002265380D03*
X0000706374Y0002286383D03*
X0000758742Y0002314168D03*
X0000807214Y0002348297D03*
X0000851026Y0002388232D03*
X0000889487Y0002433343D03*
X0000921992Y0002482919D03*
X0000948026Y0002536179D03*
X0000967180Y0002592281D03*
X0000979152Y0002650341D03*
X0000983752Y0002709444D03*
X0000980908Y0002768658D03*
X0000970666Y0002827048D03*
X0000953186Y0002883694D03*
X0000928744Y0002937702D03*
X0000897726Y0002988222D03*
X0000860620Y0003034455D03*
X0000818013Y0003075673D03*
X0000770576Y0003111226D03*
X0000719056Y0003140554D03*
X0000664267Y0003163193D03*
X0000607073Y0003178786D03*
X0000548376Y0003187088D03*
X0000489101Y0003187969D03*
X0000430182Y0003181412D03*
X0000372551Y0003167524D03*
X0000317114Y0003146521D03*
X0000264747Y0003118736D03*
X0000216275Y0003084607D03*
X0000172462Y0003044672D03*
X0000134001Y0002999561D03*
X0000101497Y0002949985D03*
X0000075462Y0002896725D03*
X0000056308Y0002840623D03*
X0000044336Y0002782563D03*
X0000324736Y0002648460D03*
G04 next file*
G04 #@! TF.GenerationSoftware,KiCad,Pcbnew,(5.1.2)-2*
G04 #@! TF.CreationDate,2019-08-09T03:14:28-07:00*
G04 #@! TF.ProjectId,noncontact_electrode,6e6f6e63-6f6e-4746-9163-745f656c6563,rev?*
G04 #@! TF.SameCoordinates,Original*
G04 #@! TF.FileFunction,Copper,L3,Inr*
G04 #@! TF.FilePolarity,Positive*
G04 Gerber Fmt 4.6, Leading zero omitted, Abs format (unit mm)*
G04 Created by KiCad (PCBNEW (5.1.2)-2) date 2019-08-09 03:14:28*
G04 APERTURE LIST*
G04 APERTURE END LIST*
D23*
X-0002322967Y0004448802D02*
X0001427032Y0000573802D03*
X0001142032Y0000518802D03*
X0001144876Y0000459588D03*
X0001155118Y0000401198D03*
X0001172598Y0000344552D03*
X0001197040Y0000290544D03*
X0001228058Y0000240024D03*
X0001265164Y0000193791D03*
X0001307771Y0000152573D03*
X0001355208Y0000117020D03*
X0001406728Y0000087692D03*
X0001461516Y0000065053D03*
X0001518711Y0000049460D03*
X0001577408Y0000041158D03*
X0001636683Y0000040277D03*
X0001695601Y0000046834D03*
X0001753233Y0000060722D03*
X0001808670Y0000081725D03*
X0001861037Y0000109510D03*
X0001909509Y0000143639D03*
X0001953321Y0000183574D03*
X0001991783Y0000228685D03*
X0002024287Y0000278261D03*
X0002050322Y0000331521D03*
X0002069476Y0000387623D03*
X0002081447Y0000445683D03*
X0002086048Y0000504786D03*
X0002083204Y0000564000D03*
X0002072961Y0000622390D03*
X0002055481Y0000679036D03*
X0002031040Y0000733044D03*
X0002000021Y0000783564D03*
X0001962916Y0000829797D03*
X0001920309Y0000871015D03*
X0001872871Y0000906568D03*
X0001821352Y0000935896D03*
X0001766563Y0000958535D03*
X0001709369Y0000974128D03*
X0001650671Y0000982430D03*
X0001591396Y0000983310D03*
X0001532478Y0000976754D03*
X0001474846Y0000962866D03*
X0001419410Y0000941863D03*
X0001367042Y0000914078D03*
X0001318570Y0000879949D03*
X0001274758Y0000840014D03*
X0001236297Y0000794903D03*
X0001203792Y0000745327D03*
X0001177758Y0000692067D03*
X0001158604Y0000635965D03*
X0001146632Y0000577905D03*
X0001427032Y0000443802D03*
G04 next file*
G04 #@! TF.GenerationSoftware,KiCad,Pcbnew,(5.1.2)-2*
G04 #@! TF.CreationDate,2019-08-09T03:14:28-07:00*
G04 #@! TF.ProjectId,noncontact_electrode,6e6f6e63-6f6e-4746-9163-745f656c6563,rev?*
G04 #@! TF.SameCoordinates,Original*
G04 #@! TF.FileFunction,Copper,L3,Inr*
G04 #@! TF.FilePolarity,Positive*
G04 Gerber Fmt 4.6, Leading zero omitted, Abs format (unit mm)*
G04 Created by KiCad (PCBNEW (5.1.2)-2) date 2019-08-09 03:14:28*
G04 APERTURE LIST*
G04 APERTURE END LIST*
D24*
X-0001220671Y0004448802D02*
X0002529328Y0000573802D03*
X0002244328Y0000518802D03*
X0002247171Y0000459588D03*
X0002257414Y0000401198D03*
X0002274894Y0000344552D03*
X0002299336Y0000290544D03*
X0002330354Y0000240024D03*
X0002367459Y0000193791D03*
X0002410067Y0000152573D03*
X0002457504Y0000117020D03*
X0002509024Y0000087692D03*
X0002563812Y0000065053D03*
X0002621006Y0000049460D03*
X0002679704Y0000041158D03*
X0002738979Y0000040277D03*
X0002797897Y0000046834D03*
X0002855529Y0000060722D03*
X0002910966Y0000081725D03*
X0002963333Y0000109510D03*
X0003011805Y0000143639D03*
X0003055617Y0000183574D03*
X0003094079Y0000228685D03*
X0003126583Y0000278261D03*
X0003152618Y0000331521D03*
X0003171772Y0000387623D03*
X0003183743Y0000445683D03*
X0003188343Y0000504786D03*
X0003185500Y0000564000D03*
X0003175257Y0000622390D03*
X0003157777Y0000679036D03*
X0003133335Y0000733044D03*
X0003102317Y0000783564D03*
X0003065212Y0000829797D03*
X0003022604Y0000871015D03*
X0002975167Y0000906568D03*
X0002923648Y0000935896D03*
X0002868859Y0000958535D03*
X0002811665Y0000974128D03*
X0002752967Y0000982430D03*
X0002693692Y0000983310D03*
X0002634774Y0000976754D03*
X0002577142Y0000962866D03*
X0002521705Y0000941863D03*
X0002469338Y0000914078D03*
X0002420866Y0000879949D03*
X0002377054Y0000840014D03*
X0002338592Y0000794903D03*
X0002306088Y0000745327D03*
X0002280054Y0000692067D03*
X0002260900Y0000635965D03*
X0002248928Y0000577905D03*
X0002529328Y0000443802D03*
G04 next file*
G04 #@! TF.GenerationSoftware,KiCad,Pcbnew,(5.1.2)-2*
G04 #@! TF.CreationDate,2019-08-09T02:38:32-07:00*
G04 #@! TF.ProjectId,noncontact_electrode,6e6f6e63-6f6e-4746-9163-745f656c6563,rev?*
G04 #@! TF.SameCoordinates,Original*
G04 #@! TF.FileFunction,Copper,L3,Inr*
G04 #@! TF.FilePolarity,Positive*
G04 Gerber Fmt 4.6, Leading zero omitted, Abs format (unit mm)*
G04 Created by KiCad (PCBNEW (5.1.2)-2) date 2019-08-09 02:38:32*
G04 APERTURE LIST*
G04 APERTURE END LIST*
D25*
X-0002322967Y0005551131D02*
X0001427032Y0001676131D03*
X0001427032Y0001546131D03*
X0001142032Y0001621131D03*
X0001144876Y0001561917D03*
X0001155118Y0001503527D03*
X0001172598Y0001446881D03*
X0001197040Y0001392872D03*
X0001228058Y0001342353D03*
X0001265164Y0001296120D03*
X0001307771Y0001254902D03*
X0001355208Y0001219348D03*
X0001406728Y0001190021D03*
X0001461516Y0001167382D03*
X0001518711Y0001151789D03*
X0001577408Y0001143486D03*
X0001636683Y0001142606D03*
X0001695601Y0001149162D03*
X0001753233Y0001163051D03*
X0001808670Y0001184054D03*
X0001861037Y0001211838D03*
X0001909509Y0001245968D03*
X0001953321Y0001285903D03*
X0001991783Y0001331014D03*
X0002024287Y0001380590D03*
X0002050322Y0001433849D03*
X0002069476Y0001489952D03*
X0002081447Y0001548012D03*
X0002086048Y0001607115D03*
X0002083204Y0001666329D03*
X0002072961Y0001724719D03*
X0002055481Y0001781365D03*
X0002031040Y0001835373D03*
X0002000021Y0001885893D03*
X0001962916Y0001932126D03*
X0001920309Y0001973344D03*
X0001872871Y0002008897D03*
X0001821352Y0002038225D03*
X0001766563Y0002060863D03*
X0001709369Y0002076457D03*
X0001650671Y0002084759D03*
X0001591396Y0002085639D03*
X0001532478Y0002079083D03*
X0001474846Y0002065195D03*
X0001419410Y0002044192D03*
X0001367042Y0002016407D03*
X0001318570Y0001982278D03*
X0001274758Y0001942343D03*
X0001236297Y0001897232D03*
X0001203792Y0001847655D03*
X0001177758Y0001794396D03*
X0001158604Y0001738294D03*
X0001146632Y0001680234D03*
G04 next file*
G04 #@! TF.GenerationSoftware,KiCad,Pcbnew,(5.1.2)-2*
G04 #@! TF.CreationDate,2019-08-09T02:38:32-07:00*
G04 #@! TF.ProjectId,noncontact_electrode,6e6f6e63-6f6e-4746-9163-745f656c6563,rev?*
G04 #@! TF.SameCoordinates,Original*
G04 #@! TF.FileFunction,Copper,L3,Inr*
G04 #@! TF.FilePolarity,Positive*
G04 Gerber Fmt 4.6, Leading zero omitted, Abs format (unit mm)*
G04 Created by KiCad (PCBNEW (5.1.2)-2) date 2019-08-09 02:38:32*
G04 APERTURE LIST*
G04 APERTURE END LIST*
D26*
X-0002322967Y0006653460D02*
X0001427032Y0002778460D03*
X0001427032Y0002648460D03*
X0001142032Y0002723460D03*
X0001144876Y0002664246D03*
X0001155118Y0002605856D03*
X0001172598Y0002549210D03*
X0001197040Y0002495202D03*
X0001228058Y0002444682D03*
X0001265164Y0002398449D03*
X0001307771Y0002357231D03*
X0001355208Y0002321678D03*
X0001406728Y0002292350D03*
X0001461516Y0002269711D03*
X0001518711Y0002254118D03*
X0001577408Y0002245816D03*
X0001636683Y0002244936D03*
X0001695601Y0002251492D03*
X0001753233Y0002265380D03*
X0001808670Y0002286383D03*
X0001861037Y0002314168D03*
X0001909509Y0002348297D03*
X0001953321Y0002388232D03*
X0001991783Y0002433343D03*
X0002024287Y0002482919D03*
X0002050322Y0002536179D03*
X0002069476Y0002592281D03*
X0002081447Y0002650341D03*
X0002086048Y0002709444D03*
X0002083204Y0002768658D03*
X0002072961Y0002827048D03*
X0002055481Y0002883694D03*
X0002031040Y0002937702D03*
X0002000021Y0002988222D03*
X0001962916Y0003034455D03*
X0001920309Y0003075673D03*
X0001872871Y0003111226D03*
X0001821352Y0003140554D03*
X0001766563Y0003163193D03*
X0001709369Y0003178786D03*
X0001650671Y0003187088D03*
X0001591396Y0003187969D03*
X0001532478Y0003181412D03*
X0001474846Y0003167524D03*
X0001419410Y0003146521D03*
X0001367042Y0003118736D03*
X0001318570Y0003084607D03*
X0001274758Y0003044672D03*
X0001236297Y0002999561D03*
X0001203792Y0002949985D03*
X0001177758Y0002896725D03*
X0001158604Y0002840623D03*
X0001146632Y0002782563D03*
G04 next file*
G04 #@! TF.GenerationSoftware,KiCad,Pcbnew,(5.1.2)-2*
G04 #@! TF.CreationDate,2019-08-09T02:41:04-07:00*
G04 #@! TF.ProjectId,noncontact_electrode,6e6f6e63-6f6e-4746-9163-745f656c6563,rev?*
G04 #@! TF.SameCoordinates,Original*
G04 #@! TF.FileFunction,Copper,L3,Inr*
G04 #@! TF.FilePolarity,Positive*
G04 Gerber Fmt 4.6, Leading zero omitted, Abs format (unit mm)*
G04 Created by KiCad (PCBNEW (5.1.2)-2) date 2019-08-09 02:41:04*
G04 APERTURE LIST*
G04 APERTURE END LIST*
D27*
X-0001220671Y0005551131D02*
X0002529328Y0001676131D03*
X0002244328Y0001621131D03*
X0002247171Y0001561917D03*
X0002257414Y0001503527D03*
X0002274894Y0001446881D03*
X0002299336Y0001392872D03*
X0002330354Y0001342353D03*
X0002367459Y0001296120D03*
X0002410067Y0001254902D03*
X0002457504Y0001219348D03*
X0002509024Y0001190021D03*
X0002563812Y0001167382D03*
X0002621006Y0001151789D03*
X0002679704Y0001143486D03*
X0002738979Y0001142606D03*
X0002797897Y0001149162D03*
X0002855529Y0001163051D03*
X0002910966Y0001184054D03*
X0002963333Y0001211838D03*
X0003011805Y0001245968D03*
X0003055617Y0001285903D03*
X0003094079Y0001331014D03*
X0003126583Y0001380590D03*
X0003152618Y0001433849D03*
X0003171772Y0001489952D03*
X0003183743Y0001548012D03*
X0003188343Y0001607115D03*
X0003185500Y0001666329D03*
X0003175257Y0001724719D03*
X0003157777Y0001781365D03*
X0003133335Y0001835373D03*
X0003102317Y0001885893D03*
X0003065212Y0001932126D03*
X0003022604Y0001973344D03*
X0002975167Y0002008897D03*
X0002923648Y0002038225D03*
X0002868859Y0002060863D03*
X0002811665Y0002076457D03*
X0002752967Y0002084759D03*
X0002693692Y0002085639D03*
X0002634774Y0002079083D03*
X0002577142Y0002065195D03*
X0002521705Y0002044192D03*
X0002469338Y0002016407D03*
X0002420866Y0001982278D03*
X0002377054Y0001942343D03*
X0002338592Y0001897232D03*
X0002306088Y0001847655D03*
X0002280054Y0001794396D03*
X0002260900Y0001738294D03*
X0002248928Y0001680234D03*
X0002529328Y0001546131D03*
G04 next file*
G04 #@! TF.GenerationSoftware,KiCad,Pcbnew,(5.1.2)-2*
G04 #@! TF.CreationDate,2019-08-09T02:41:04-07:00*
G04 #@! TF.ProjectId,noncontact_electrode,6e6f6e63-6f6e-4746-9163-745f656c6563,rev?*
G04 #@! TF.SameCoordinates,Original*
G04 #@! TF.FileFunction,Copper,L3,Inr*
G04 #@! TF.FilePolarity,Positive*
G04 Gerber Fmt 4.6, Leading zero omitted, Abs format (unit mm)*
G04 Created by KiCad (PCBNEW (5.1.2)-2) date 2019-08-09 02:41:04*
G04 APERTURE LIST*
G04 APERTURE END LIST*
D28*
X-0001220671Y0006653460D02*
X0002529328Y0002778460D03*
X0002244328Y0002723460D03*
X0002247171Y0002664246D03*
X0002257414Y0002605856D03*
X0002274894Y0002549210D03*
X0002299336Y0002495202D03*
X0002330354Y0002444682D03*
X0002367459Y0002398449D03*
X0002410067Y0002357231D03*
X0002457504Y0002321678D03*
X0002509024Y0002292350D03*
X0002563812Y0002269711D03*
X0002621006Y0002254118D03*
X0002679704Y0002245816D03*
X0002738979Y0002244936D03*
X0002797897Y0002251492D03*
X0002855529Y0002265380D03*
X0002910966Y0002286383D03*
X0002963333Y0002314168D03*
X0003011805Y0002348297D03*
X0003055617Y0002388232D03*
X0003094079Y0002433343D03*
X0003126583Y0002482919D03*
X0003152618Y0002536179D03*
X0003171772Y0002592281D03*
X0003183743Y0002650341D03*
X0003188343Y0002709444D03*
X0003185500Y0002768658D03*
X0003175257Y0002827048D03*
X0003157777Y0002883694D03*
X0003133335Y0002937702D03*
X0003102317Y0002988222D03*
X0003065212Y0003034455D03*
X0003022604Y0003075673D03*
X0002975167Y0003111226D03*
X0002923648Y0003140554D03*
X0002868859Y0003163193D03*
X0002811665Y0003178786D03*
X0002752967Y0003187088D03*
X0002693692Y0003187969D03*
X0002634774Y0003181412D03*
X0002577142Y0003167524D03*
X0002521705Y0003146521D03*
X0002469338Y0003118736D03*
X0002420866Y0003084607D03*
X0002377054Y0003044672D03*
X0002338592Y0002999561D03*
X0002306088Y0002949985D03*
X0002280054Y0002896725D03*
X0002260900Y0002840623D03*
X0002248928Y0002782563D03*
X0002529328Y0002648460D03*
M02*