%
M48
METRIC,000.000
T01C0.50
%
T01
X015705Y053967
X014720Y054134
X013724Y054228
X012725Y054244
X011727Y054186
X010736Y054053
X013894Y055779
X014889Y055884
X010659Y055957
X011649Y055817
X012647Y055754
X015705Y025968
X014720Y026135
X013724Y026229
X012725Y026245
X011727Y026187
X010736Y026054
X013894Y027780
X014889Y027885
X010659Y027958
X011649Y027818
X012647Y027755
X025928Y010108
X026108Y011091
X026215Y012085
X026246Y013084
X026202Y014083
X026083Y015076
X027990Y015523
X027836Y014535
X027758Y013538
X027756Y012538
X027827Y011541
X027975Y010553
X015705Y025968
X014720Y026135
X013724Y026229
X012725Y026245
X011727Y026187
X010736Y026054
X013894Y027780
X014889Y027885
X015872Y028064
X010659Y027958
X011649Y027818
X012647Y027755
X015705Y053967
X014720Y054134
X013724Y054228
X012725Y054244
X011727Y054186
X010736Y054053
X013894Y055779
X014889Y055884
X015872Y056063
X010659Y055957
X011649Y055817
X012647Y055754
X025928Y038107
X026108Y039090
X026215Y040084
X026246Y041083
X026202Y042082
X026083Y043075
X027990Y043522
X027836Y042534
X027758Y041537
X027756Y040538
X027827Y039540
X027975Y038552
X043704Y025968
X042718Y026135
X041723Y026229
X040723Y026245
X039725Y026187
X038734Y026054
X041893Y027780
X042887Y027885
X043870Y028064
X038657Y027958
X039647Y027818
X040645Y027755
X071702Y025968
X070716Y026135
X069721Y026229
X068721Y026245
X067723Y026187
X066733Y026054
X069891Y027780
X070885Y027885
X071869Y028064
X066656Y027958
X067645Y027818
X068643Y027755
X053926Y038107
X054106Y039090
X054214Y040084
X054245Y041083
X054200Y042082
X054082Y043075
X055989Y043522
X055834Y042534
X055757Y041537
X055754Y040538
X055825Y039540
X055974Y038552
X053926Y010108
X054106Y011091
X054214Y012085
X054245Y013084
X054200Y014083
X054082Y015076
X055989Y015523
X055834Y014535
X055757Y013538
X055754Y012538
X055825Y011541
X055974Y010553
X071702Y053967
X070716Y054134
X069721Y054228
X068721Y054244
X067723Y054186
X066733Y054053
X069891Y055779
X070885Y055884
X071869Y056063
X066656Y055957
X067645Y055817
X068643Y055754
X053926Y066106
X054106Y067089
X054214Y068083
X054245Y069083
X054200Y070081
X054082Y071074
X055989Y071521
X055834Y070533
X055757Y069536
X055754Y068537
X055825Y067539
X055974Y066551
X043704Y053967
X042718Y054134
X041723Y054228
X040723Y054244
X039725Y054186
X038734Y054053
X041893Y055779
X042887Y055884
X043870Y056063
X038657Y055957
X039647Y055817
X040645Y055754
X025928Y066106
X026108Y067089
X026215Y068083
X026246Y069083
X026202Y070081
X026083Y071074
X027990Y071521
X027836Y070533
X027758Y069536
X027756Y068537
X027827Y067539
X027975Y066551
M30