%
M48
METRIC,000.000
T10C0.40
%
T10
X001008Y013177
X001080Y011673
X001126Y014678
X001342Y010190
X001430Y016154
X001786Y008752
X001916Y017579
X002406Y007378
X002579Y018930
X003193Y006096
X003404Y020190
X004136Y004922
X004379Y021336
X005218Y003876
X005492Y022349
X006424Y002971
X006724Y023218
X007732Y002227
X008055Y023924
X008248Y014574
X008248Y011272
X009124Y001653
X009462Y024457
X010577Y001257
X010925Y024810
X012068Y001046
X012424Y024975
X013574Y001022
X013927Y024953
X015070Y001188
X015418Y024742
X016533Y001541
X016871Y024345
X017940Y002075
X018263Y023771
X019271Y002781
X019571Y023027
X020503Y003647
X020778Y022123
X021616Y004663
X021860Y021076
X022594Y005809
X022802Y019903
X023419Y007068
X023589Y018618
X024080Y008420
X024209Y017246
X024565Y009845
X024654Y015809
X024870Y011320
X024915Y014325
X024986Y012821
X001008Y041176
X001080Y039673
X001126Y042677
X001342Y038189
X001430Y044153
X001786Y036752
X001916Y045578
X002406Y035377
X002579Y046929
X003193Y034095
X003404Y048189
X004136Y032921
X004379Y049335
X005218Y031875
X005492Y050348
X006424Y030971
X006724Y051217
X007732Y030226
X008055Y051923
X008248Y042573
X008248Y039271
X009124Y029652
X009462Y052456
X010577Y029256
X010925Y052809
X012068Y029045
X012424Y052975
X013574Y029022
X013927Y052952
X015070Y029187
X015418Y052741
X016533Y029540
X016871Y052345
X017940Y030074
X018263Y051771
X019271Y030780
X019571Y051026
X020503Y031646
X020778Y050122
X021616Y032662
X021860Y049076
X022594Y033808
X022802Y047902
X023419Y035068
X023589Y046617
X024080Y036419
X024209Y045245
X024565Y037844
X024654Y043808
X024870Y039319
X024915Y042324
X024986Y040821
X001008Y069175
X001080Y067672
X001126Y070677
X001342Y066188
X001430Y072152
X001786Y064751
X001916Y073577
X002406Y063377
X002579Y074928
X003193Y062094
X003404Y076188
X004136Y060920
X004379Y077334
X005218Y059874
X005492Y078347
X006424Y058970
X006724Y079216
X007732Y058225
X008055Y079922
X008248Y070572
X008248Y067270
X009124Y057651
X009462Y080456
X010577Y057255
X010925Y080809
X012068Y057044
X012424Y080974
X013574Y057021
X013927Y080951
X015070Y057187
X015418Y080740
X016533Y057540
X016871Y080344
X017940Y058073
X018263Y079770
X019271Y058779
X019571Y079026
X020503Y059645
X020778Y078121
X021616Y060661
X021860Y077075
X022594Y061807
X022802Y075901
X023419Y063067
X023589Y074616
X024080Y064418
X024209Y073244
X024565Y065843
X024654Y071807
X024870Y067319
X024915Y070323
X024986Y068820
X029007Y013177
X029078Y011673
X029124Y014678
X029340Y010190
X029429Y016154
X029784Y008752
X029914Y017579
X030404Y007378
X030577Y018930
X031192Y006096
X031402Y020190
X032134Y004922
X032378Y021336
X033216Y003876
X033490Y022349
X034422Y002971
X034722Y023218
X035731Y002227
X036053Y023924
X036246Y014574
X036246Y011272
X037122Y001653
X037460Y024457
X038575Y001257
X038923Y024810
X040066Y001046
X040422Y024975
X041573Y001022
X041926Y024953
X043069Y001188
X043417Y024742
X044532Y001541
X044869Y024345
X045939Y002075
X046261Y023771
X047270Y002781
X047569Y023027
X048502Y003647
X048776Y022123
X049614Y004663
X049858Y021076
X050592Y005809
X050800Y019903
X051418Y007068
X051588Y018618
X052078Y008420
X052207Y017246
X052563Y009845
X052652Y015809
X052868Y011320
X052914Y014325
X052985Y012821
X057005Y013177
X057077Y011673
X057122Y014678
X057338Y010190
X057427Y016154
X057783Y008752
X057912Y017579
X058402Y007378
X058575Y018930
X059190Y006096
X059401Y020190
X060132Y004922
X060376Y021336
X061214Y003876
X061489Y022349
X062421Y002971
X062720Y023218
X063729Y002227
X064051Y023924
X064244Y014574
X064244Y011272
X065120Y001653
X065459Y024457
X066574Y001257
X066922Y024810
X068065Y001046
X068420Y024975
X069571Y001022
X069924Y024953
X071067Y001188
X071415Y024742
X072530Y001541
X072868Y024345
X073937Y002075
X074260Y023771
X075268Y002781
X075568Y023027
X076500Y003647
X076774Y022123
X077612Y004663
X077856Y021076
X078590Y005809
X078799Y019903
X079416Y007068
X079586Y018618
X080076Y008420
X080206Y017246
X080561Y009845
X080650Y015809
X080866Y011320
X080912Y014325
X080983Y012821
X029007Y041176
X029078Y039673
X029124Y042677
X029340Y038189
X029429Y044153
X029784Y036752
X029914Y045578
X030404Y035377
X030577Y046929
X031192Y034095
X031402Y048189
X032134Y032921
X032378Y049335
X033216Y031875
X033490Y050348
X034422Y030971
X034722Y051217
X035731Y030226
X036053Y051923
X036246Y042573
X036246Y039271
X037122Y029652
X037460Y052456
X038575Y029256
X038923Y052809
X040066Y029045
X040422Y052975
X041573Y029022
X041926Y052952
X043069Y029187
X043417Y052741
X044532Y029540
X044869Y052345
X045939Y030074
X046261Y051771
X047270Y030780
X047569Y051026
X048502Y031646
X048776Y050122
X049614Y032662
X049858Y049076
X050592Y033808
X050800Y047902
X051418Y035068
X051588Y046617
X052078Y036419
X052207Y045245
X052563Y037844
X052652Y043808
X052868Y039319
X052914Y042324
X052985Y040821
X029007Y069175
X029078Y067672
X029124Y070677
X029340Y066188
X029429Y072152
X029784Y064751
X029914Y073577
X030404Y063377
X030577Y074928
X031192Y062094
X031402Y076188
X032134Y060920
X032378Y077334
X033216Y059874
X033490Y078347
X034422Y058970
X034722Y079216
X035731Y058225
X036053Y079922
X036246Y070572
X036246Y067270
X037122Y057651
X037460Y080456
X038575Y057255
X038923Y080809
X040066Y057044
X040422Y080974
X041573Y057021
X041926Y080951
X043069Y057187
X043417Y080740
X044532Y057540
X044869Y080344
X045939Y058073
X046261Y079770
X047270Y058779
X047569Y079026
X048502Y059645
X048776Y078121
X049614Y060661
X049858Y077075
X050592Y061807
X050800Y075901
X051418Y063067
X051588Y074616
X052078Y064418
X052207Y073244
X052563Y065843
X052652Y071807
X052868Y067319
X052914Y070323
X052985Y068820
X057005Y041176
X057077Y039673
X057122Y042677
X057338Y038189
X057427Y044153
X057783Y036752
X057912Y045578
X058402Y035377
X058575Y046929
X059190Y034095
X059401Y048189
X060132Y032921
X060376Y049335
X061214Y031875
X061489Y050348
X062421Y030971
X062720Y051217
X063729Y030226
X064051Y051923
X064244Y042573
X064244Y039271
X065120Y029652
X065459Y052456
X066574Y029256
X066922Y052809
X068065Y029045
X068420Y052975
X069571Y029022
X069924Y052952
X071067Y029187
X071415Y052741
X072530Y029540
X072868Y052345
X073937Y030074
X074260Y051771
X075268Y030780
X075568Y051026
X076500Y031646
X076774Y050122
X077612Y032662
X077856Y049076
X078590Y033808
X078799Y047902
X079416Y035068
X079586Y046617
X080076Y036419
X080206Y045245
X080561Y037844
X080650Y043808
X080866Y039319
X080912Y042324
X080983Y040821
X057005Y069175
X057077Y067672
X057122Y070677
X057338Y066188
X057427Y072152
X057783Y064751
X057912Y073577
X058402Y063377
X058575Y074928
X059190Y062094
X059401Y076188
X060132Y060920
X060376Y077334
X061214Y059874
X061489Y078347
X062421Y058970
X062720Y079216
X063729Y058225
X064051Y079922
X064244Y070572
X064244Y067270
X065120Y057651
X065459Y080456
X066574Y057255
X066922Y080809
X068065Y057044
X068420Y080974
X069571Y057021
X069924Y080951
X071067Y057187
X071415Y080740
X072530Y057540
X072868Y080344
X073937Y058073
X074260Y079770
X075268Y058779
X075568Y079026
X076500Y059645
X076774Y078121
X077612Y060661
X077856Y077075
X078590Y061807
X078799Y075901
X079416Y063067
X079586Y074616
X080076Y064418
X080206Y073244
X080561Y065843
X080650Y071807
X080866Y067319
X080912Y070323
X080983Y068820
M30