G04 #@! TF.GenerationSoftware,KiCad,Pcbnew,(5.1.2)-2*
G04 #@! TF.CreationDate,2019-08-09T02:41:05-07:00*
G04 #@! TF.ProjectId,noncontact_electrode,6e6f6e63-6f6e-4746-9163-745f656c6563,rev?*
G04 #@! TF.SameCoordinates,Original*
G04 #@! TF.FileFunction,Soldermask,Top*
G04 #@! TF.FilePolarity,Negative*
%FSLAX46Y46*%
G04 Gerber Fmt 4.6, Leading zero omitted, Abs format (unit mm)*
G04 Created by KiCad (PCBNEW (5.1.2)-2) date 2019-08-09 02:41:05*
%MOMM*%
%LPD*%
G04 APERTURE LIST*
%ADD10C,0.100000*%
G04 APERTURE END LIST*
D10*
G36*
X100540938Y-104025716D02*
G01*
X100561557Y-104031971D01*
X100580553Y-104042124D01*
X100597208Y-104055792D01*
X100610876Y-104072447D01*
X100621029Y-104091443D01*
X100627284Y-104112062D01*
X100630000Y-104139640D01*
X100630000Y-104648360D01*
X100627284Y-104675938D01*
X100621029Y-104696557D01*
X100610876Y-104715553D01*
X100597208Y-104732208D01*
X100580553Y-104745876D01*
X100561557Y-104756029D01*
X100540938Y-104762284D01*
X100513360Y-104765000D01*
X100054640Y-104765000D01*
X100027062Y-104762284D01*
X100006443Y-104756029D01*
X99987447Y-104745876D01*
X99970792Y-104732208D01*
X99957124Y-104715553D01*
X99946971Y-104696557D01*
X99940716Y-104675938D01*
X99938000Y-104648360D01*
X99938000Y-104139640D01*
X99940716Y-104112062D01*
X99946971Y-104091443D01*
X99957124Y-104072447D01*
X99970792Y-104055792D01*
X99987447Y-104042124D01*
X100006443Y-104031971D01*
X100027062Y-104025716D01*
X100054640Y-104023000D01*
X100513360Y-104023000D01*
X100540938Y-104025716D01*
X100540938Y-104025716D01*
G37*
G36*
X99570938Y-104025716D02*
G01*
X99591557Y-104031971D01*
X99610553Y-104042124D01*
X99627208Y-104055792D01*
X99640876Y-104072447D01*
X99651029Y-104091443D01*
X99657284Y-104112062D01*
X99660000Y-104139640D01*
X99660000Y-104648360D01*
X99657284Y-104675938D01*
X99651029Y-104696557D01*
X99640876Y-104715553D01*
X99627208Y-104732208D01*
X99610553Y-104745876D01*
X99591557Y-104756029D01*
X99570938Y-104762284D01*
X99543360Y-104765000D01*
X99084640Y-104765000D01*
X99057062Y-104762284D01*
X99036443Y-104756029D01*
X99017447Y-104745876D01*
X99000792Y-104732208D01*
X98987124Y-104715553D01*
X98976971Y-104696557D01*
X98970716Y-104675938D01*
X98968000Y-104648360D01*
X98968000Y-104139640D01*
X98970716Y-104112062D01*
X98976971Y-104091443D01*
X98987124Y-104072447D01*
X99000792Y-104055792D01*
X99017447Y-104042124D01*
X99036443Y-104031971D01*
X99057062Y-104025716D01*
X99084640Y-104023000D01*
X99543360Y-104023000D01*
X99570938Y-104025716D01*
X99570938Y-104025716D01*
G37*
G36*
X102389938Y-103877716D02*
G01*
X102410557Y-103883971D01*
X102429553Y-103894124D01*
X102446208Y-103907792D01*
X102459876Y-103924447D01*
X102470029Y-103943443D01*
X102476284Y-103964062D01*
X102479000Y-103991640D01*
X102479000Y-104450360D01*
X102476284Y-104477938D01*
X102470029Y-104498557D01*
X102459876Y-104517553D01*
X102446208Y-104534208D01*
X102429553Y-104547876D01*
X102410557Y-104558029D01*
X102389938Y-104564284D01*
X102362360Y-104567000D01*
X101853640Y-104567000D01*
X101826062Y-104564284D01*
X101805443Y-104558029D01*
X101786447Y-104547876D01*
X101769792Y-104534208D01*
X101756124Y-104517553D01*
X101745971Y-104498557D01*
X101739716Y-104477938D01*
X101737000Y-104450360D01*
X101737000Y-103991640D01*
X101739716Y-103964062D01*
X101745971Y-103943443D01*
X101756124Y-103924447D01*
X101769792Y-103907792D01*
X101786447Y-103894124D01*
X101805443Y-103883971D01*
X101826062Y-103877716D01*
X101853640Y-103875000D01*
X102362360Y-103875000D01*
X102389938Y-103877716D01*
X102389938Y-103877716D01*
G37*
G36*
X98071938Y-103877716D02*
G01*
X98092557Y-103883971D01*
X98111553Y-103894124D01*
X98128208Y-103907792D01*
X98141876Y-103924447D01*
X98152029Y-103943443D01*
X98158284Y-103964062D01*
X98161000Y-103991640D01*
X98161000Y-104450360D01*
X98158284Y-104477938D01*
X98152029Y-104498557D01*
X98141876Y-104517553D01*
X98128208Y-104534208D01*
X98111553Y-104547876D01*
X98092557Y-104558029D01*
X98071938Y-104564284D01*
X98044360Y-104567000D01*
X97535640Y-104567000D01*
X97508062Y-104564284D01*
X97487443Y-104558029D01*
X97468447Y-104547876D01*
X97451792Y-104534208D01*
X97438124Y-104517553D01*
X97427971Y-104498557D01*
X97421716Y-104477938D01*
X97419000Y-104450360D01*
X97419000Y-103991640D01*
X97421716Y-103964062D01*
X97427971Y-103943443D01*
X97438124Y-103924447D01*
X97451792Y-103907792D01*
X97468447Y-103894124D01*
X97487443Y-103883971D01*
X97508062Y-103877716D01*
X97535640Y-103875000D01*
X98044360Y-103875000D01*
X98071938Y-103877716D01*
X98071938Y-103877716D01*
G37*
G36*
X100459938Y-102882716D02*
G01*
X100480557Y-102888971D01*
X100499553Y-102899124D01*
X100516208Y-102912792D01*
X100529876Y-102929447D01*
X100540029Y-102948443D01*
X100546284Y-102969062D01*
X100549000Y-102996640D01*
X100549000Y-103505360D01*
X100546284Y-103532938D01*
X100540029Y-103553557D01*
X100529876Y-103572553D01*
X100516208Y-103589208D01*
X100499553Y-103602876D01*
X100480557Y-103613029D01*
X100459938Y-103619284D01*
X100432360Y-103622000D01*
X99973640Y-103622000D01*
X99946062Y-103619284D01*
X99925443Y-103613029D01*
X99906447Y-103602876D01*
X99889792Y-103589208D01*
X99876124Y-103572553D01*
X99865971Y-103553557D01*
X99859716Y-103532938D01*
X99857000Y-103505360D01*
X99857000Y-102996640D01*
X99859716Y-102969062D01*
X99865971Y-102948443D01*
X99876124Y-102929447D01*
X99889792Y-102912792D01*
X99906447Y-102899124D01*
X99925443Y-102888971D01*
X99946062Y-102882716D01*
X99973640Y-102880000D01*
X100432360Y-102880000D01*
X100459938Y-102882716D01*
X100459938Y-102882716D01*
G37*
G36*
X99489938Y-102882716D02*
G01*
X99510557Y-102888971D01*
X99529553Y-102899124D01*
X99546208Y-102912792D01*
X99559876Y-102929447D01*
X99570029Y-102948443D01*
X99576284Y-102969062D01*
X99579000Y-102996640D01*
X99579000Y-103505360D01*
X99576284Y-103532938D01*
X99570029Y-103553557D01*
X99559876Y-103572553D01*
X99546208Y-103589208D01*
X99529553Y-103602876D01*
X99510557Y-103613029D01*
X99489938Y-103619284D01*
X99462360Y-103622000D01*
X99003640Y-103622000D01*
X98976062Y-103619284D01*
X98955443Y-103613029D01*
X98936447Y-103602876D01*
X98919792Y-103589208D01*
X98906124Y-103572553D01*
X98895971Y-103553557D01*
X98889716Y-103532938D01*
X98887000Y-103505360D01*
X98887000Y-102996640D01*
X98889716Y-102969062D01*
X98895971Y-102948443D01*
X98906124Y-102929447D01*
X98919792Y-102912792D01*
X98936447Y-102899124D01*
X98955443Y-102888971D01*
X98976062Y-102882716D01*
X99003640Y-102880000D01*
X99462360Y-102880000D01*
X99489938Y-102882716D01*
X99489938Y-102882716D01*
G37*
G36*
X98071938Y-102907716D02*
G01*
X98092557Y-102913971D01*
X98111553Y-102924124D01*
X98128208Y-102937792D01*
X98141876Y-102954447D01*
X98152029Y-102973443D01*
X98158284Y-102994062D01*
X98161000Y-103021640D01*
X98161000Y-103480360D01*
X98158284Y-103507938D01*
X98152029Y-103528557D01*
X98141876Y-103547553D01*
X98128208Y-103564208D01*
X98111553Y-103577876D01*
X98092557Y-103588029D01*
X98071938Y-103594284D01*
X98044360Y-103597000D01*
X97535640Y-103597000D01*
X97508062Y-103594284D01*
X97487443Y-103588029D01*
X97468447Y-103577876D01*
X97451792Y-103564208D01*
X97438124Y-103547553D01*
X97427971Y-103528557D01*
X97421716Y-103507938D01*
X97419000Y-103480360D01*
X97419000Y-103021640D01*
X97421716Y-102994062D01*
X97427971Y-102973443D01*
X97438124Y-102954447D01*
X97451792Y-102937792D01*
X97468447Y-102924124D01*
X97487443Y-102913971D01*
X97508062Y-102907716D01*
X97535640Y-102905000D01*
X98044360Y-102905000D01*
X98071938Y-102907716D01*
X98071938Y-102907716D01*
G37*
G36*
X102389938Y-102907716D02*
G01*
X102410557Y-102913971D01*
X102429553Y-102924124D01*
X102446208Y-102937792D01*
X102459876Y-102954447D01*
X102470029Y-102973443D01*
X102476284Y-102994062D01*
X102479000Y-103021640D01*
X102479000Y-103480360D01*
X102476284Y-103507938D01*
X102470029Y-103528557D01*
X102459876Y-103547553D01*
X102446208Y-103564208D01*
X102429553Y-103577876D01*
X102410557Y-103588029D01*
X102389938Y-103594284D01*
X102362360Y-103597000D01*
X101853640Y-103597000D01*
X101826062Y-103594284D01*
X101805443Y-103588029D01*
X101786447Y-103577876D01*
X101769792Y-103564208D01*
X101756124Y-103547553D01*
X101745971Y-103528557D01*
X101739716Y-103507938D01*
X101737000Y-103480360D01*
X101737000Y-103021640D01*
X101739716Y-102994062D01*
X101745971Y-102973443D01*
X101756124Y-102954447D01*
X101769792Y-102937792D01*
X101786447Y-102924124D01*
X101805443Y-102913971D01*
X101826062Y-102907716D01*
X101853640Y-102905000D01*
X102362360Y-102905000D01*
X102389938Y-102907716D01*
X102389938Y-102907716D01*
G37*
G36*
X106234000Y-102278000D02*
G01*
X104332000Y-102278000D01*
X104332000Y-101176000D01*
X106234000Y-101176000D01*
X106234000Y-102278000D01*
X106234000Y-102278000D01*
G37*
G36*
X98272800Y-102057400D02*
G01*
X96189600Y-102057400D01*
X96189600Y-101396600D01*
X98272800Y-101396600D01*
X98272800Y-102057400D01*
X98272800Y-102057400D01*
G37*
G36*
X103200400Y-102057400D02*
G01*
X101117200Y-102057400D01*
X101117200Y-101396600D01*
X103200400Y-101396600D01*
X103200400Y-102057400D01*
X103200400Y-102057400D01*
G37*
G36*
X103200400Y-100787400D02*
G01*
X101117200Y-100787400D01*
X101117200Y-100126600D01*
X103200400Y-100126600D01*
X103200400Y-100787400D01*
X103200400Y-100787400D01*
G37*
G36*
X98272800Y-100787400D02*
G01*
X96189600Y-100787400D01*
X96189600Y-100126600D01*
X98272800Y-100126600D01*
X98272800Y-100787400D01*
X98272800Y-100787400D01*
G37*
G36*
X95312000Y-100627000D02*
G01*
X93410000Y-100627000D01*
X93410000Y-99525000D01*
X95312000Y-99525000D01*
X95312000Y-100627000D01*
X95312000Y-100627000D01*
G37*
G36*
X106234000Y-99738000D02*
G01*
X104332000Y-99738000D01*
X104332000Y-98636000D01*
X106234000Y-98636000D01*
X106234000Y-99738000D01*
X106234000Y-99738000D01*
G37*
G36*
X103200400Y-99517400D02*
G01*
X101117200Y-99517400D01*
X101117200Y-98856600D01*
X103200400Y-98856600D01*
X103200400Y-99517400D01*
X103200400Y-99517400D01*
G37*
G36*
X98272800Y-99517400D02*
G01*
X96189600Y-99517400D01*
X96189600Y-98856600D01*
X98272800Y-98856600D01*
X98272800Y-99517400D01*
X98272800Y-99517400D01*
G37*
G36*
X98272800Y-98247400D02*
G01*
X96189600Y-98247400D01*
X96189600Y-97586600D01*
X98272800Y-97586600D01*
X98272800Y-98247400D01*
X98272800Y-98247400D01*
G37*
G36*
X103200400Y-98247400D02*
G01*
X101117200Y-98247400D01*
X101117200Y-97586600D01*
X103200400Y-97586600D01*
X103200400Y-98247400D01*
X103200400Y-98247400D01*
G37*
G36*
X106234000Y-97960000D02*
G01*
X104332000Y-97960000D01*
X104332000Y-96858000D01*
X106234000Y-96858000D01*
X106234000Y-97960000D01*
X106234000Y-97960000D01*
G37*
G36*
X100413938Y-95897716D02*
G01*
X100434557Y-95903971D01*
X100453553Y-95914124D01*
X100470208Y-95927792D01*
X100483876Y-95944447D01*
X100494029Y-95963443D01*
X100500284Y-95984062D01*
X100503000Y-96011640D01*
X100503000Y-96520360D01*
X100500284Y-96547938D01*
X100494029Y-96568557D01*
X100483876Y-96587553D01*
X100470208Y-96604208D01*
X100453553Y-96617876D01*
X100434557Y-96628029D01*
X100413938Y-96634284D01*
X100386360Y-96637000D01*
X99927640Y-96637000D01*
X99900062Y-96634284D01*
X99879443Y-96628029D01*
X99860447Y-96617876D01*
X99843792Y-96604208D01*
X99830124Y-96587553D01*
X99819971Y-96568557D01*
X99813716Y-96547938D01*
X99811000Y-96520360D01*
X99811000Y-96011640D01*
X99813716Y-95984062D01*
X99819971Y-95963443D01*
X99830124Y-95944447D01*
X99843792Y-95927792D01*
X99860447Y-95914124D01*
X99879443Y-95903971D01*
X99900062Y-95897716D01*
X99927640Y-95895000D01*
X100386360Y-95895000D01*
X100413938Y-95897716D01*
X100413938Y-95897716D01*
G37*
G36*
X99443938Y-95897716D02*
G01*
X99464557Y-95903971D01*
X99483553Y-95914124D01*
X99500208Y-95927792D01*
X99513876Y-95944447D01*
X99524029Y-95963443D01*
X99530284Y-95984062D01*
X99533000Y-96011640D01*
X99533000Y-96520360D01*
X99530284Y-96547938D01*
X99524029Y-96568557D01*
X99513876Y-96587553D01*
X99500208Y-96604208D01*
X99483553Y-96617876D01*
X99464557Y-96628029D01*
X99443938Y-96634284D01*
X99416360Y-96637000D01*
X98957640Y-96637000D01*
X98930062Y-96634284D01*
X98909443Y-96628029D01*
X98890447Y-96617876D01*
X98873792Y-96604208D01*
X98860124Y-96587553D01*
X98849971Y-96568557D01*
X98843716Y-96547938D01*
X98841000Y-96520360D01*
X98841000Y-96011640D01*
X98843716Y-95984062D01*
X98849971Y-95963443D01*
X98860124Y-95944447D01*
X98873792Y-95927792D01*
X98890447Y-95914124D01*
X98909443Y-95903971D01*
X98930062Y-95897716D01*
X98957640Y-95895000D01*
X99416360Y-95895000D01*
X99443938Y-95897716D01*
X99443938Y-95897716D01*
G37*
M02*
