G04 #@! TF.GenerationSoftware,KiCad,Pcbnew,(5.1.2)-2*
G04 #@! TF.CreationDate,2019-08-09T02:41:04-07:00*
G04 #@! TF.ProjectId,noncontact_electrode,6e6f6e63-6f6e-4746-9163-745f656c6563,rev?*
G04 #@! TF.SameCoordinates,Original*
G04 #@! TF.FileFunction,Copper,L1,Top*
G04 #@! TF.FilePolarity,Positive*
%FSLAX46Y46*%
G04 Gerber Fmt 4.6, Leading zero omitted, Abs format (unit mm)*
G04 Created by KiCad (PCBNEW (5.1.2)-2) date 2019-08-09 02:41:04*
%MOMM*%
%LPD*%
G04 APERTURE LIST*
%ADD10R,1.981200X0.558800*%
%ADD11C,0.100000*%
%ADD12C,0.590000*%
%ADD13R,1.800000X1.000000*%
%ADD14C,0.800000*%
%ADD15C,0.250000*%
G04 APERTURE END LIST*
D10*
X97231200Y-101727000D03*
X97231200Y-100457000D03*
X97231200Y-99187000D03*
X97231200Y-97917000D03*
X102158800Y-97917000D03*
X102158800Y-99187000D03*
X102158800Y-100457000D03*
X102158800Y-101727000D03*
D11*
G36*
X102294958Y-102956710D02*
G01*
X102309276Y-102958834D01*
X102323317Y-102962351D01*
X102336946Y-102967228D01*
X102350031Y-102973417D01*
X102362447Y-102980858D01*
X102374073Y-102989481D01*
X102384798Y-102999202D01*
X102394519Y-103009927D01*
X102403142Y-103021553D01*
X102410583Y-103033969D01*
X102416772Y-103047054D01*
X102421649Y-103060683D01*
X102425166Y-103074724D01*
X102427290Y-103089042D01*
X102428000Y-103103500D01*
X102428000Y-103398500D01*
X102427290Y-103412958D01*
X102425166Y-103427276D01*
X102421649Y-103441317D01*
X102416772Y-103454946D01*
X102410583Y-103468031D01*
X102403142Y-103480447D01*
X102394519Y-103492073D01*
X102384798Y-103502798D01*
X102374073Y-103512519D01*
X102362447Y-103521142D01*
X102350031Y-103528583D01*
X102336946Y-103534772D01*
X102323317Y-103539649D01*
X102309276Y-103543166D01*
X102294958Y-103545290D01*
X102280500Y-103546000D01*
X101935500Y-103546000D01*
X101921042Y-103545290D01*
X101906724Y-103543166D01*
X101892683Y-103539649D01*
X101879054Y-103534772D01*
X101865969Y-103528583D01*
X101853553Y-103521142D01*
X101841927Y-103512519D01*
X101831202Y-103502798D01*
X101821481Y-103492073D01*
X101812858Y-103480447D01*
X101805417Y-103468031D01*
X101799228Y-103454946D01*
X101794351Y-103441317D01*
X101790834Y-103427276D01*
X101788710Y-103412958D01*
X101788000Y-103398500D01*
X101788000Y-103103500D01*
X101788710Y-103089042D01*
X101790834Y-103074724D01*
X101794351Y-103060683D01*
X101799228Y-103047054D01*
X101805417Y-103033969D01*
X101812858Y-103021553D01*
X101821481Y-103009927D01*
X101831202Y-102999202D01*
X101841927Y-102989481D01*
X101853553Y-102980858D01*
X101865969Y-102973417D01*
X101879054Y-102967228D01*
X101892683Y-102962351D01*
X101906724Y-102958834D01*
X101921042Y-102956710D01*
X101935500Y-102956000D01*
X102280500Y-102956000D01*
X102294958Y-102956710D01*
X102294958Y-102956710D01*
G37*
D12*
X102108000Y-103251000D03*
D11*
G36*
X102294958Y-103926710D02*
G01*
X102309276Y-103928834D01*
X102323317Y-103932351D01*
X102336946Y-103937228D01*
X102350031Y-103943417D01*
X102362447Y-103950858D01*
X102374073Y-103959481D01*
X102384798Y-103969202D01*
X102394519Y-103979927D01*
X102403142Y-103991553D01*
X102410583Y-104003969D01*
X102416772Y-104017054D01*
X102421649Y-104030683D01*
X102425166Y-104044724D01*
X102427290Y-104059042D01*
X102428000Y-104073500D01*
X102428000Y-104368500D01*
X102427290Y-104382958D01*
X102425166Y-104397276D01*
X102421649Y-104411317D01*
X102416772Y-104424946D01*
X102410583Y-104438031D01*
X102403142Y-104450447D01*
X102394519Y-104462073D01*
X102384798Y-104472798D01*
X102374073Y-104482519D01*
X102362447Y-104491142D01*
X102350031Y-104498583D01*
X102336946Y-104504772D01*
X102323317Y-104509649D01*
X102309276Y-104513166D01*
X102294958Y-104515290D01*
X102280500Y-104516000D01*
X101935500Y-104516000D01*
X101921042Y-104515290D01*
X101906724Y-104513166D01*
X101892683Y-104509649D01*
X101879054Y-104504772D01*
X101865969Y-104498583D01*
X101853553Y-104491142D01*
X101841927Y-104482519D01*
X101831202Y-104472798D01*
X101821481Y-104462073D01*
X101812858Y-104450447D01*
X101805417Y-104438031D01*
X101799228Y-104424946D01*
X101794351Y-104411317D01*
X101790834Y-104397276D01*
X101788710Y-104382958D01*
X101788000Y-104368500D01*
X101788000Y-104073500D01*
X101788710Y-104059042D01*
X101790834Y-104044724D01*
X101794351Y-104030683D01*
X101799228Y-104017054D01*
X101805417Y-104003969D01*
X101812858Y-103991553D01*
X101821481Y-103979927D01*
X101831202Y-103969202D01*
X101841927Y-103959481D01*
X101853553Y-103950858D01*
X101865969Y-103943417D01*
X101879054Y-103937228D01*
X101892683Y-103932351D01*
X101906724Y-103928834D01*
X101921042Y-103926710D01*
X101935500Y-103926000D01*
X102280500Y-103926000D01*
X102294958Y-103926710D01*
X102294958Y-103926710D01*
G37*
D12*
X102108000Y-104221000D03*
D13*
X105283000Y-99187000D03*
X94361000Y-100076000D03*
D11*
G36*
X100445958Y-104074710D02*
G01*
X100460276Y-104076834D01*
X100474317Y-104080351D01*
X100487946Y-104085228D01*
X100501031Y-104091417D01*
X100513447Y-104098858D01*
X100525073Y-104107481D01*
X100535798Y-104117202D01*
X100545519Y-104127927D01*
X100554142Y-104139553D01*
X100561583Y-104151969D01*
X100567772Y-104165054D01*
X100572649Y-104178683D01*
X100576166Y-104192724D01*
X100578290Y-104207042D01*
X100579000Y-104221500D01*
X100579000Y-104566500D01*
X100578290Y-104580958D01*
X100576166Y-104595276D01*
X100572649Y-104609317D01*
X100567772Y-104622946D01*
X100561583Y-104636031D01*
X100554142Y-104648447D01*
X100545519Y-104660073D01*
X100535798Y-104670798D01*
X100525073Y-104680519D01*
X100513447Y-104689142D01*
X100501031Y-104696583D01*
X100487946Y-104702772D01*
X100474317Y-104707649D01*
X100460276Y-104711166D01*
X100445958Y-104713290D01*
X100431500Y-104714000D01*
X100136500Y-104714000D01*
X100122042Y-104713290D01*
X100107724Y-104711166D01*
X100093683Y-104707649D01*
X100080054Y-104702772D01*
X100066969Y-104696583D01*
X100054553Y-104689142D01*
X100042927Y-104680519D01*
X100032202Y-104670798D01*
X100022481Y-104660073D01*
X100013858Y-104648447D01*
X100006417Y-104636031D01*
X100000228Y-104622946D01*
X99995351Y-104609317D01*
X99991834Y-104595276D01*
X99989710Y-104580958D01*
X99989000Y-104566500D01*
X99989000Y-104221500D01*
X99989710Y-104207042D01*
X99991834Y-104192724D01*
X99995351Y-104178683D01*
X100000228Y-104165054D01*
X100006417Y-104151969D01*
X100013858Y-104139553D01*
X100022481Y-104127927D01*
X100032202Y-104117202D01*
X100042927Y-104107481D01*
X100054553Y-104098858D01*
X100066969Y-104091417D01*
X100080054Y-104085228D01*
X100093683Y-104080351D01*
X100107724Y-104076834D01*
X100122042Y-104074710D01*
X100136500Y-104074000D01*
X100431500Y-104074000D01*
X100445958Y-104074710D01*
X100445958Y-104074710D01*
G37*
D12*
X100284000Y-104394000D03*
D11*
G36*
X99475958Y-104074710D02*
G01*
X99490276Y-104076834D01*
X99504317Y-104080351D01*
X99517946Y-104085228D01*
X99531031Y-104091417D01*
X99543447Y-104098858D01*
X99555073Y-104107481D01*
X99565798Y-104117202D01*
X99575519Y-104127927D01*
X99584142Y-104139553D01*
X99591583Y-104151969D01*
X99597772Y-104165054D01*
X99602649Y-104178683D01*
X99606166Y-104192724D01*
X99608290Y-104207042D01*
X99609000Y-104221500D01*
X99609000Y-104566500D01*
X99608290Y-104580958D01*
X99606166Y-104595276D01*
X99602649Y-104609317D01*
X99597772Y-104622946D01*
X99591583Y-104636031D01*
X99584142Y-104648447D01*
X99575519Y-104660073D01*
X99565798Y-104670798D01*
X99555073Y-104680519D01*
X99543447Y-104689142D01*
X99531031Y-104696583D01*
X99517946Y-104702772D01*
X99504317Y-104707649D01*
X99490276Y-104711166D01*
X99475958Y-104713290D01*
X99461500Y-104714000D01*
X99166500Y-104714000D01*
X99152042Y-104713290D01*
X99137724Y-104711166D01*
X99123683Y-104707649D01*
X99110054Y-104702772D01*
X99096969Y-104696583D01*
X99084553Y-104689142D01*
X99072927Y-104680519D01*
X99062202Y-104670798D01*
X99052481Y-104660073D01*
X99043858Y-104648447D01*
X99036417Y-104636031D01*
X99030228Y-104622946D01*
X99025351Y-104609317D01*
X99021834Y-104595276D01*
X99019710Y-104580958D01*
X99019000Y-104566500D01*
X99019000Y-104221500D01*
X99019710Y-104207042D01*
X99021834Y-104192724D01*
X99025351Y-104178683D01*
X99030228Y-104165054D01*
X99036417Y-104151969D01*
X99043858Y-104139553D01*
X99052481Y-104127927D01*
X99062202Y-104117202D01*
X99072927Y-104107481D01*
X99084553Y-104098858D01*
X99096969Y-104091417D01*
X99110054Y-104085228D01*
X99123683Y-104080351D01*
X99137724Y-104076834D01*
X99152042Y-104074710D01*
X99166500Y-104074000D01*
X99461500Y-104074000D01*
X99475958Y-104074710D01*
X99475958Y-104074710D01*
G37*
D12*
X99314000Y-104394000D03*
D11*
G36*
X97976958Y-103926710D02*
G01*
X97991276Y-103928834D01*
X98005317Y-103932351D01*
X98018946Y-103937228D01*
X98032031Y-103943417D01*
X98044447Y-103950858D01*
X98056073Y-103959481D01*
X98066798Y-103969202D01*
X98076519Y-103979927D01*
X98085142Y-103991553D01*
X98092583Y-104003969D01*
X98098772Y-104017054D01*
X98103649Y-104030683D01*
X98107166Y-104044724D01*
X98109290Y-104059042D01*
X98110000Y-104073500D01*
X98110000Y-104368500D01*
X98109290Y-104382958D01*
X98107166Y-104397276D01*
X98103649Y-104411317D01*
X98098772Y-104424946D01*
X98092583Y-104438031D01*
X98085142Y-104450447D01*
X98076519Y-104462073D01*
X98066798Y-104472798D01*
X98056073Y-104482519D01*
X98044447Y-104491142D01*
X98032031Y-104498583D01*
X98018946Y-104504772D01*
X98005317Y-104509649D01*
X97991276Y-104513166D01*
X97976958Y-104515290D01*
X97962500Y-104516000D01*
X97617500Y-104516000D01*
X97603042Y-104515290D01*
X97588724Y-104513166D01*
X97574683Y-104509649D01*
X97561054Y-104504772D01*
X97547969Y-104498583D01*
X97535553Y-104491142D01*
X97523927Y-104482519D01*
X97513202Y-104472798D01*
X97503481Y-104462073D01*
X97494858Y-104450447D01*
X97487417Y-104438031D01*
X97481228Y-104424946D01*
X97476351Y-104411317D01*
X97472834Y-104397276D01*
X97470710Y-104382958D01*
X97470000Y-104368500D01*
X97470000Y-104073500D01*
X97470710Y-104059042D01*
X97472834Y-104044724D01*
X97476351Y-104030683D01*
X97481228Y-104017054D01*
X97487417Y-104003969D01*
X97494858Y-103991553D01*
X97503481Y-103979927D01*
X97513202Y-103969202D01*
X97523927Y-103959481D01*
X97535553Y-103950858D01*
X97547969Y-103943417D01*
X97561054Y-103937228D01*
X97574683Y-103932351D01*
X97588724Y-103928834D01*
X97603042Y-103926710D01*
X97617500Y-103926000D01*
X97962500Y-103926000D01*
X97976958Y-103926710D01*
X97976958Y-103926710D01*
G37*
D12*
X97790000Y-104221000D03*
D11*
G36*
X97976958Y-102956710D02*
G01*
X97991276Y-102958834D01*
X98005317Y-102962351D01*
X98018946Y-102967228D01*
X98032031Y-102973417D01*
X98044447Y-102980858D01*
X98056073Y-102989481D01*
X98066798Y-102999202D01*
X98076519Y-103009927D01*
X98085142Y-103021553D01*
X98092583Y-103033969D01*
X98098772Y-103047054D01*
X98103649Y-103060683D01*
X98107166Y-103074724D01*
X98109290Y-103089042D01*
X98110000Y-103103500D01*
X98110000Y-103398500D01*
X98109290Y-103412958D01*
X98107166Y-103427276D01*
X98103649Y-103441317D01*
X98098772Y-103454946D01*
X98092583Y-103468031D01*
X98085142Y-103480447D01*
X98076519Y-103492073D01*
X98066798Y-103502798D01*
X98056073Y-103512519D01*
X98044447Y-103521142D01*
X98032031Y-103528583D01*
X98018946Y-103534772D01*
X98005317Y-103539649D01*
X97991276Y-103543166D01*
X97976958Y-103545290D01*
X97962500Y-103546000D01*
X97617500Y-103546000D01*
X97603042Y-103545290D01*
X97588724Y-103543166D01*
X97574683Y-103539649D01*
X97561054Y-103534772D01*
X97547969Y-103528583D01*
X97535553Y-103521142D01*
X97523927Y-103512519D01*
X97513202Y-103502798D01*
X97503481Y-103492073D01*
X97494858Y-103480447D01*
X97487417Y-103468031D01*
X97481228Y-103454946D01*
X97476351Y-103441317D01*
X97472834Y-103427276D01*
X97470710Y-103412958D01*
X97470000Y-103398500D01*
X97470000Y-103103500D01*
X97470710Y-103089042D01*
X97472834Y-103074724D01*
X97476351Y-103060683D01*
X97481228Y-103047054D01*
X97487417Y-103033969D01*
X97494858Y-103021553D01*
X97503481Y-103009927D01*
X97513202Y-102999202D01*
X97523927Y-102989481D01*
X97535553Y-102980858D01*
X97547969Y-102973417D01*
X97561054Y-102967228D01*
X97574683Y-102962351D01*
X97588724Y-102958834D01*
X97603042Y-102956710D01*
X97617500Y-102956000D01*
X97962500Y-102956000D01*
X97976958Y-102956710D01*
X97976958Y-102956710D01*
G37*
D12*
X97790000Y-103251000D03*
D11*
G36*
X99348958Y-95946710D02*
G01*
X99363276Y-95948834D01*
X99377317Y-95952351D01*
X99390946Y-95957228D01*
X99404031Y-95963417D01*
X99416447Y-95970858D01*
X99428073Y-95979481D01*
X99438798Y-95989202D01*
X99448519Y-95999927D01*
X99457142Y-96011553D01*
X99464583Y-96023969D01*
X99470772Y-96037054D01*
X99475649Y-96050683D01*
X99479166Y-96064724D01*
X99481290Y-96079042D01*
X99482000Y-96093500D01*
X99482000Y-96438500D01*
X99481290Y-96452958D01*
X99479166Y-96467276D01*
X99475649Y-96481317D01*
X99470772Y-96494946D01*
X99464583Y-96508031D01*
X99457142Y-96520447D01*
X99448519Y-96532073D01*
X99438798Y-96542798D01*
X99428073Y-96552519D01*
X99416447Y-96561142D01*
X99404031Y-96568583D01*
X99390946Y-96574772D01*
X99377317Y-96579649D01*
X99363276Y-96583166D01*
X99348958Y-96585290D01*
X99334500Y-96586000D01*
X99039500Y-96586000D01*
X99025042Y-96585290D01*
X99010724Y-96583166D01*
X98996683Y-96579649D01*
X98983054Y-96574772D01*
X98969969Y-96568583D01*
X98957553Y-96561142D01*
X98945927Y-96552519D01*
X98935202Y-96542798D01*
X98925481Y-96532073D01*
X98916858Y-96520447D01*
X98909417Y-96508031D01*
X98903228Y-96494946D01*
X98898351Y-96481317D01*
X98894834Y-96467276D01*
X98892710Y-96452958D01*
X98892000Y-96438500D01*
X98892000Y-96093500D01*
X98892710Y-96079042D01*
X98894834Y-96064724D01*
X98898351Y-96050683D01*
X98903228Y-96037054D01*
X98909417Y-96023969D01*
X98916858Y-96011553D01*
X98925481Y-95999927D01*
X98935202Y-95989202D01*
X98945927Y-95979481D01*
X98957553Y-95970858D01*
X98969969Y-95963417D01*
X98983054Y-95957228D01*
X98996683Y-95952351D01*
X99010724Y-95948834D01*
X99025042Y-95946710D01*
X99039500Y-95946000D01*
X99334500Y-95946000D01*
X99348958Y-95946710D01*
X99348958Y-95946710D01*
G37*
D12*
X99187000Y-96266000D03*
D11*
G36*
X100318958Y-95946710D02*
G01*
X100333276Y-95948834D01*
X100347317Y-95952351D01*
X100360946Y-95957228D01*
X100374031Y-95963417D01*
X100386447Y-95970858D01*
X100398073Y-95979481D01*
X100408798Y-95989202D01*
X100418519Y-95999927D01*
X100427142Y-96011553D01*
X100434583Y-96023969D01*
X100440772Y-96037054D01*
X100445649Y-96050683D01*
X100449166Y-96064724D01*
X100451290Y-96079042D01*
X100452000Y-96093500D01*
X100452000Y-96438500D01*
X100451290Y-96452958D01*
X100449166Y-96467276D01*
X100445649Y-96481317D01*
X100440772Y-96494946D01*
X100434583Y-96508031D01*
X100427142Y-96520447D01*
X100418519Y-96532073D01*
X100408798Y-96542798D01*
X100398073Y-96552519D01*
X100386447Y-96561142D01*
X100374031Y-96568583D01*
X100360946Y-96574772D01*
X100347317Y-96579649D01*
X100333276Y-96583166D01*
X100318958Y-96585290D01*
X100304500Y-96586000D01*
X100009500Y-96586000D01*
X99995042Y-96585290D01*
X99980724Y-96583166D01*
X99966683Y-96579649D01*
X99953054Y-96574772D01*
X99939969Y-96568583D01*
X99927553Y-96561142D01*
X99915927Y-96552519D01*
X99905202Y-96542798D01*
X99895481Y-96532073D01*
X99886858Y-96520447D01*
X99879417Y-96508031D01*
X99873228Y-96494946D01*
X99868351Y-96481317D01*
X99864834Y-96467276D01*
X99862710Y-96452958D01*
X99862000Y-96438500D01*
X99862000Y-96093500D01*
X99862710Y-96079042D01*
X99864834Y-96064724D01*
X99868351Y-96050683D01*
X99873228Y-96037054D01*
X99879417Y-96023969D01*
X99886858Y-96011553D01*
X99895481Y-95999927D01*
X99905202Y-95989202D01*
X99915927Y-95979481D01*
X99927553Y-95970858D01*
X99939969Y-95963417D01*
X99953054Y-95957228D01*
X99966683Y-95952351D01*
X99980724Y-95948834D01*
X99995042Y-95946710D01*
X100009500Y-95946000D01*
X100304500Y-95946000D01*
X100318958Y-95946710D01*
X100318958Y-95946710D01*
G37*
D12*
X100157000Y-96266000D03*
D13*
X105283000Y-97409000D03*
X105283000Y-101727000D03*
D11*
G36*
X99394958Y-102931710D02*
G01*
X99409276Y-102933834D01*
X99423317Y-102937351D01*
X99436946Y-102942228D01*
X99450031Y-102948417D01*
X99462447Y-102955858D01*
X99474073Y-102964481D01*
X99484798Y-102974202D01*
X99494519Y-102984927D01*
X99503142Y-102996553D01*
X99510583Y-103008969D01*
X99516772Y-103022054D01*
X99521649Y-103035683D01*
X99525166Y-103049724D01*
X99527290Y-103064042D01*
X99528000Y-103078500D01*
X99528000Y-103423500D01*
X99527290Y-103437958D01*
X99525166Y-103452276D01*
X99521649Y-103466317D01*
X99516772Y-103479946D01*
X99510583Y-103493031D01*
X99503142Y-103505447D01*
X99494519Y-103517073D01*
X99484798Y-103527798D01*
X99474073Y-103537519D01*
X99462447Y-103546142D01*
X99450031Y-103553583D01*
X99436946Y-103559772D01*
X99423317Y-103564649D01*
X99409276Y-103568166D01*
X99394958Y-103570290D01*
X99380500Y-103571000D01*
X99085500Y-103571000D01*
X99071042Y-103570290D01*
X99056724Y-103568166D01*
X99042683Y-103564649D01*
X99029054Y-103559772D01*
X99015969Y-103553583D01*
X99003553Y-103546142D01*
X98991927Y-103537519D01*
X98981202Y-103527798D01*
X98971481Y-103517073D01*
X98962858Y-103505447D01*
X98955417Y-103493031D01*
X98949228Y-103479946D01*
X98944351Y-103466317D01*
X98940834Y-103452276D01*
X98938710Y-103437958D01*
X98938000Y-103423500D01*
X98938000Y-103078500D01*
X98938710Y-103064042D01*
X98940834Y-103049724D01*
X98944351Y-103035683D01*
X98949228Y-103022054D01*
X98955417Y-103008969D01*
X98962858Y-102996553D01*
X98971481Y-102984927D01*
X98981202Y-102974202D01*
X98991927Y-102964481D01*
X99003553Y-102955858D01*
X99015969Y-102948417D01*
X99029054Y-102942228D01*
X99042683Y-102937351D01*
X99056724Y-102933834D01*
X99071042Y-102931710D01*
X99085500Y-102931000D01*
X99380500Y-102931000D01*
X99394958Y-102931710D01*
X99394958Y-102931710D01*
G37*
D12*
X99233000Y-103251000D03*
D11*
G36*
X100364958Y-102931710D02*
G01*
X100379276Y-102933834D01*
X100393317Y-102937351D01*
X100406946Y-102942228D01*
X100420031Y-102948417D01*
X100432447Y-102955858D01*
X100444073Y-102964481D01*
X100454798Y-102974202D01*
X100464519Y-102984927D01*
X100473142Y-102996553D01*
X100480583Y-103008969D01*
X100486772Y-103022054D01*
X100491649Y-103035683D01*
X100495166Y-103049724D01*
X100497290Y-103064042D01*
X100498000Y-103078500D01*
X100498000Y-103423500D01*
X100497290Y-103437958D01*
X100495166Y-103452276D01*
X100491649Y-103466317D01*
X100486772Y-103479946D01*
X100480583Y-103493031D01*
X100473142Y-103505447D01*
X100464519Y-103517073D01*
X100454798Y-103527798D01*
X100444073Y-103537519D01*
X100432447Y-103546142D01*
X100420031Y-103553583D01*
X100406946Y-103559772D01*
X100393317Y-103564649D01*
X100379276Y-103568166D01*
X100364958Y-103570290D01*
X100350500Y-103571000D01*
X100055500Y-103571000D01*
X100041042Y-103570290D01*
X100026724Y-103568166D01*
X100012683Y-103564649D01*
X99999054Y-103559772D01*
X99985969Y-103553583D01*
X99973553Y-103546142D01*
X99961927Y-103537519D01*
X99951202Y-103527798D01*
X99941481Y-103517073D01*
X99932858Y-103505447D01*
X99925417Y-103493031D01*
X99919228Y-103479946D01*
X99914351Y-103466317D01*
X99910834Y-103452276D01*
X99908710Y-103437958D01*
X99908000Y-103423500D01*
X99908000Y-103078500D01*
X99908710Y-103064042D01*
X99910834Y-103049724D01*
X99914351Y-103035683D01*
X99919228Y-103022054D01*
X99925417Y-103008969D01*
X99932858Y-102996553D01*
X99941481Y-102984927D01*
X99951202Y-102974202D01*
X99961927Y-102964481D01*
X99973553Y-102955858D01*
X99985969Y-102948417D01*
X99999054Y-102942228D01*
X100012683Y-102937351D01*
X100026724Y-102933834D01*
X100041042Y-102931710D01*
X100055500Y-102931000D01*
X100350500Y-102931000D01*
X100364958Y-102931710D01*
X100364958Y-102931710D01*
G37*
D12*
X100203000Y-103251000D03*
D14*
X95250000Y-98425000D03*
X88011000Y-99822000D03*
X88083228Y-101326024D03*
X88343390Y-102809135D03*
X88787384Y-104247945D03*
X89408207Y-105619762D03*
X90196069Y-106902952D03*
X91138546Y-108077279D03*
X92220772Y-109124222D03*
X93425682Y-110027270D03*
X94734273Y-110772183D03*
X96125907Y-111347212D03*
X97578638Y-111743288D03*
X99069556Y-111954166D03*
X100575147Y-111976519D03*
X102071667Y-111809996D03*
X103535517Y-111457222D03*
X104943609Y-110923760D03*
X106273737Y-110218025D03*
X107504925Y-109351145D03*
X108617755Y-108336792D03*
X109594679Y-107190962D03*
X110420289Y-105931727D03*
X111081564Y-104578945D03*
X111568077Y-103153951D03*
X111872154Y-101679217D03*
X111989000Y-100178000D03*
X111916772Y-98673976D03*
X111656610Y-97190865D03*
X111212616Y-95752055D03*
X110591793Y-94380238D03*
X109803931Y-93097048D03*
X108861454Y-91922721D03*
X107779228Y-90875778D03*
X106574318Y-89972730D03*
X105265727Y-89227817D03*
X103874093Y-88652788D03*
X102421362Y-88256712D03*
X100930444Y-88045834D03*
X99424853Y-88023481D03*
X97928333Y-88190004D03*
X96464483Y-88542778D03*
X95056391Y-89076240D03*
X93726263Y-89781975D03*
X92495075Y-90648855D03*
X91382245Y-91663208D03*
X90405321Y-92809038D03*
X89579711Y-94068273D03*
X88918436Y-95421055D03*
X88431923Y-96846049D03*
X88127846Y-98320783D03*
X95250000Y-101727000D03*
D15*
X99187000Y-96266000D02*
X96520000Y-96266000D01*
X95250000Y-97536000D02*
X95250000Y-98425000D01*
X96520000Y-96266000D02*
X95250000Y-97536000D01*
X101808000Y-97917000D02*
X102158800Y-97917000D01*
X100157000Y-96266000D02*
X101808000Y-97917000D01*
X104775000Y-97917000D02*
X105283000Y-97409000D01*
X102158800Y-97917000D02*
X104775000Y-97917000D01*
X100203000Y-102831000D02*
X100203000Y-103251000D01*
X100203000Y-99161600D02*
X100203000Y-102831000D01*
X101447600Y-97917000D02*
X100203000Y-99161600D01*
X102158800Y-97917000D02*
X101447600Y-97917000D01*
X100203000Y-104313000D02*
X100284000Y-104394000D01*
X100203000Y-103251000D02*
X100203000Y-104313000D01*
X95990600Y-99187000D02*
X95504000Y-99673600D01*
X97231200Y-99187000D02*
X95990600Y-99187000D01*
X94763400Y-99673600D02*
X94361000Y-100076000D01*
X95504000Y-99673600D02*
X94763400Y-99673600D01*
X102158800Y-99187000D02*
X105283000Y-99187000D01*
X97231200Y-101727000D02*
X95250000Y-101727000D01*
X97231200Y-102692200D02*
X97790000Y-103251000D01*
X97231200Y-101727000D02*
X97231200Y-102692200D01*
X97790000Y-103251000D02*
X99233000Y-103251000D01*
X99141000Y-104221000D02*
X99314000Y-104394000D01*
X97790000Y-104221000D02*
X99141000Y-104221000D01*
X101289990Y-105039010D02*
X101773832Y-104555168D01*
X99940778Y-105039010D02*
X101289990Y-105039010D01*
X101773832Y-104555168D02*
X102108000Y-104221000D01*
X99663990Y-104762222D02*
X99940778Y-105039010D01*
X99663990Y-104616990D02*
X99663990Y-104762222D01*
X99441000Y-104394000D02*
X99663990Y-104616990D01*
X99314000Y-104394000D02*
X99441000Y-104394000D01*
X103399400Y-101727000D02*
X105283000Y-101727000D01*
X102158800Y-101727000D02*
X103399400Y-101727000D01*
X102158800Y-103200200D02*
X102108000Y-103251000D01*
X102158800Y-101727000D02*
X102158800Y-103200200D01*
M02*
